<?xml version="1.0" encoding="UTF-8"?>
<svg version="1.1" xmlns="http://www.w3.org/2000/svg" width="851" height="848">
<path d="M0 0 C7.6669872 5.31461613 13.28170097 12.93576377 15.28149414 22.12084961 C15.77036812 24.96885793 16.20562509 27.82062855 16.625 30.6796875 C18.10857667 40.21349166 19.93223091 49.61124058 22.08740234 59.015625 C28.47111214 87.13859233 24.47212314 114.42126614 10.75 139.6796875 C11.905 140.0096875 13.06 140.3396875 14.25 140.6796875 C14.8996875 140.8653125 15.549375 141.0509375 16.21875 141.2421875 C24.6894176 142.7062535 30.7229125 140.55694686 38.66287231 137.5758667 C67.66604258 126.75588148 96.2578448 125.60355656 124.97558594 138.27832031 C132.97956065 141.97505547 140.38902202 146.45559925 147.8684082 151.10449219 C154.27385783 154.99924146 160.84355631 158.09060749 167.75 160.9921875 C185.13302049 168.30766128 198.1092848 175.50570063 205.75 193.6796875 C208.54661071 202.06951962 208.0391496 214.53576482 204.14453125 222.50390625 C199.85990873 229.18887752 194.99608965 234.34648626 187.75 237.6796875 C187.09 237.6796875 186.43 237.6796875 185.75 237.6796875 C185.75 238.3396875 185.75 238.9996875 185.75 239.6796875 C186.41386719 239.78152344 187.07773437 239.88335937 187.76171875 239.98828125 C192.22276044 241.02044384 196.3882254 242.83294539 200.60351562 244.59570312 C206.30216615 246.84789707 211.34534087 247.77549845 217.359375 245.83984375 C218.06578125 245.47761719 218.7721875 245.11539063 219.5 244.7421875 C228.1382069 240.40754771 238.28470409 240.22508322 247.5 243.1171875 C256.09216565 246.68350736 263.95767975 253.96064013 267.5456543 262.59423828 C269.62535717 268.35271316 270.22679292 273.45476167 270.125 279.5546875 C270.11557373 280.43310303 270.10614746 281.31151855 270.09643555 282.21655273 C269.94482795 288.74534352 269.19255808 294.57819704 266.75 300.6796875 C266.39808594 301.56398438 266.04617188 302.44828125 265.68359375 303.359375 C264.46830862 306.19102946 263.1447753 308.93217123 261.75 311.6796875 C261.26917969 312.63746094 260.78835938 313.59523438 260.29296875 314.58203125 C250.27444115 333.13215169 233.42762836 346.81433885 213.62890625 353.77734375 C211.01213989 354.51597709 208.41383347 355.1371303 205.75 355.6796875 C204.31720703 355.98326172 204.31720703 355.98326172 202.85546875 356.29296875 C200.49064755 356.77916276 198.1241827 357.24193147 195.75 357.6796875 C196.33007812 358.37191406 196.91015625 359.06414062 197.5078125 359.77734375 C204.72310796 368.81432272 209.27579 378.08552039 211.8125 389.4296875 C215.14004552 399.68160519 229.73635671 406.83767307 238.296875 412.3984375 C242.65395621 415.24310423 246.72289826 418.3885448 250.75 421.6796875 C251.32621094 422.11023438 251.90242187 422.54078125 252.49609375 422.984375 C266.66162962 434.04199884 275.78422455 452.20344657 278.4375 469.6796875 C279.10905741 476.64709568 278.95861752 483.40838893 278.03125 490.34936523 C274.66868069 515.96852393 276.18458421 541.30727536 283.10400391 566.13354492 C286.40474227 578.32815516 284.98199784 587.82026293 279 598.9296875 C272.60636038 606.74413593 264.83694568 612.69460221 254.52929688 613.95019531 C237.07298941 615.22766017 225.46707429 609.24582401 210.75 600.6796875 C210.09 600.3496875 209.43 600.0196875 208.75 599.6796875 C208.84539063 600.77023437 208.94078125 601.86078125 209.0390625 602.984375 C211.79617069 638.45334033 199.45973377 670.14876384 176.4375 697.0546875 C165.92194419 709.364764 160.42781987 724.08471691 155.15625 739.20703125 C152.42211846 747.00370446 149.6098962 753.65199692 143.75 759.6796875 C143.20601562 760.25074219 142.66203125 760.82179688 142.1015625 761.41015625 C134.6368556 768.50688464 124.73687379 771.02426029 114.6875 770.890625 C99.47159799 769.79799374 89.50231814 759.32746056 79.75 748.6796875 C72.75 740.54548128 72.75 740.54548128 72.75 737.6796875 C72.09 737.6796875 71.43 737.6796875 70.75 737.6796875 C67.78499088 754.33420683 65.3717013 770.13237704 68.25 786.9296875 C70.67450463 801.24533689 71.60367192 814.56727334 63.625 827.4296875 C58.9740647 833.4053474 52.03259583 837.80828106 44.75 839.6796875 C31.74716947 841.21900858 20.78461705 839.38268874 10.125 831.4296875 C8.64944787 830.20006072 7.1913645 828.94921673 5.75 827.6796875 C4.98429688 827.01066406 4.21859375 826.34164062 3.4296875 825.65234375 C0.84489043 823.35428461 -1.70345277 821.02005122 -4.25 818.6796875 C-5.35373541 817.68051299 -6.45792376 816.68183865 -7.5625 815.68359375 C-25.08672618 799.78848539 -31.84837684 784.74565998 -33.9375 760.9921875 C-34.06746949 759.59692203 -34.1983234 758.20173865 -34.33007812 756.80664062 C-34.64538495 753.43168979 -34.95181977 750.05618714 -35.25 746.6796875 C-35.87003906 747.44410156 -36.49007812 748.20851563 -37.12890625 748.99609375 C-67.41170651 785.84133302 -105.46650054 805.7247477 -152.890625 811.265625 C-160.22282383 811.93858712 -167.58019205 811.96488643 -174.9375 811.9921875 C-176.14397186 811.99860764 -176.14397186 811.99860764 -177.37481689 812.00515747 C-194.0267726 812.05043935 -210.5005789 810.70606228 -227.05737305 809.01489258 C-248.55384955 806.73624315 -248.55384955 806.73624315 -269 812.6171875 C-277.30594331 816.50351195 -285.68846686 819.62334044 -294.375 822.5546875 C-305.61026444 826.40710362 -315.29291791 831.39180287 -325.38134766 837.57177734 C-334.99055395 843.2690047 -345.46619036 844.41375273 -356.37109375 841.984375 C-366.38018896 838.68040182 -373.34713154 833.04822595 -378.25 823.6796875 C-381.93971877 814.66460143 -381.64105386 803.28156063 -378.3125 794.1796875 C-377.33873922 791.99146103 -376.31316882 789.82589746 -375.25 787.6796875 C-374.93353516 787.0196875 -374.61707031 786.3596875 -374.29101562 785.6796875 C-366.34827176 769.2192964 -356.24646934 756.14091927 -341.9375 744.7421875 C-341.31391602 744.24444824 -340.69033203 743.74670898 -340.04785156 743.23388672 C-335.49399491 739.6796875 -335.49399491 739.6796875 -333.25 739.6796875 C-333.25 739.0196875 -333.25 738.3596875 -333.25 737.6796875 C-334.075 737.4321875 -334.9 737.1846875 -335.75 736.9296875 C-338.41469364 735.9780112 -340.55003439 735.01422161 -343 733.6796875 C-352.8553179 728.65834682 -363.59651355 729.36769749 -374.32543945 730.13793945 C-404.42836485 732.20825443 -431.46054348 723.66109046 -454.3984375 704.01953125 C-459.00471212 699.95728747 -463.28598343 695.71027661 -467.3347168 691.09277344 C-479.30045229 677.48798484 -494.49913416 670.86212043 -510.7109375 663.57324219 C-524.54859149 657.34974581 -536.43429059 651.26571124 -542.625 636.5546875 C-546.11602614 625.96426367 -545.05695619 615.62741628 -540.25 605.6796875 C-535.66516359 597.16499132 -528.25145198 591.82681169 -519.25 588.6796875 C-516.11380894 587.74247889 -513.31572433 587.56302631 -510.046875 587.58203125 C-509.0671875 587.58525391 -508.0875 587.58847656 -507.078125 587.59179688 C-506.06234375 587.60017578 -505.0465625 587.60855469 -504 587.6171875 C-502.453125 587.62395508 -502.453125 587.62395508 -500.875 587.63085938 C-498.33327427 587.64262662 -495.79166681 587.65906739 -493.25 587.6796875 C-493.98863281 586.9990625 -494.72726562 586.3184375 -495.48828125 585.6171875 C-513.59653152 568.49272155 -524.65043863 546.10199229 -534.625 523.57421875 C-539.48062981 513.09704134 -546.67364252 504.13076524 -553.56005859 494.92919922 C-563.15213241 482.09574876 -567.79262021 471.06537458 -566.25 454.6796875 C-564.45807688 445.0345711 -558.76483841 437.94342827 -551.09765625 432.015625 C-541.83450365 425.93501427 -530.99906805 425.06594688 -520.24072266 427.05029297 C-511.35715507 429.23425522 -497.90174648 434.02794102 -491.25 440.6796875 C-490.899375 439.4628125 -490.54875 438.2459375 -490.1875 436.9921875 C-489.99027344 436.30769531 -489.79304688 435.62320312 -489.58984375 434.91796875 C-489.16132577 432.09566065 -489.31891914 430.39360032 -490.25 427.6796875 C-492.46016033 425.17329001 -492.46016033 425.17329001 -495.25 422.7421875 C-511.74056778 407.14038134 -522.7479236 382.20414745 -523.5859375 359.61328125 C-523.90884071 336.40150823 -519.2987798 317.34511022 -507.49731445 297.19140625 C-500.48522592 284.72824067 -499.3925181 271.12214548 -498.25 257.1796875 C-496.78902764 239.35104579 -493.21434327 224.58204115 -484.9375 208.6796875 C-484.291163 207.41725719 -483.64597789 206.15423646 -483.00195312 204.890625 C-482.04263882 203.00975285 -481.08101471 201.13031719 -480.11045837 199.25521851 C-478.49278415 196.1298827 -476.90809484 192.99446003 -475.38305664 189.82275391 C-475.07942703 189.1965918 -474.77579742 188.57042969 -474.46296692 187.92529297 C-473.63331373 186.2079857 -472.81290452 184.48622121 -471.99316406 182.76416016 C-467.07642603 174.06415059 -459.51461867 167.84898335 -450 165.0078125 C-439.82815356 162.46485089 -430.18646381 163.80516018 -420.94921875 168.96484375 C-418.91642733 170.42731293 -417.09143607 171.98282699 -415.25 173.6796875 C-414.52296875 174.31648437 -413.7959375 174.95328125 -413.046875 175.609375 C-406.22612049 181.94293276 -401.4031164 189.37345469 -397.25 197.6796875 C-396.75693359 196.69742188 -396.75693359 196.69742188 -396.25390625 195.6953125 C-383.34486794 170.92675119 -363.75729009 156.51671504 -337.95874023 147.41821289 C-326.08167431 143.20870798 -319.96985147 137.92769966 -312.6171875 127.73828125 C-302.04452228 114.07756034 -286.7999833 106.57842853 -271.38989258 99.72241211 C-269.15457533 98.72753363 -266.92563469 97.71931763 -264.69726562 96.70898438 C-263.26596936 96.06433905 -261.83434103 95.42043037 -260.40234375 94.77734375 C-259.74193588 94.47949478 -259.08152802 94.18164581 -258.40110779 93.87477112 C-248.8985235 89.65816618 -236.60186397 88.57713412 -226.6875 92.3046875 C-215.53820209 97.73736746 -209.91319509 105.42511402 -205.25 116.6796875 C-204.46238281 115.84566406 -203.67476563 115.01164062 -202.86328125 114.15234375 C-191.19022587 102.00294802 -178.11551348 93.46411181 -163.25 85.6796875 C-162.42902832 85.24946289 -161.60805664 84.81923828 -160.76220703 84.37597656 C-142.25316031 74.81059569 -125.50908904 71.35330702 -104.90698242 69.80493164 C-89.23685645 68.55980799 -74.885991 66.15629427 -63.58984375 54.390625 C-60.25119683 50.12727995 -59.87650961 46.15248399 -59.4375 40.8671875 C-57.78260925 24.79036481 -52.395757 10.97952527 -39.6875 0.375 C-27.51763533 -8.0892969 -12.49413261 -7.33162643 0 0 Z " fill="#BE362E" transform="translate(566.25,5.3203125)"/>
<path d="M0 0 C0.63583008 0.3599707 1.27166016 0.71994141 1.92675781 1.09082031 C13.25472134 7.56473755 23.14784892 15.48563086 33 24 C33.87785156 24.74636719 34.75570313 25.49273437 35.66015625 26.26171875 C49.03744016 37.94102838 61.54488033 50.63568354 72 65 C72.85649066 66.14994831 73.71326433 67.29968589 74.5703125 68.44921875 C92.17502887 92.32172308 105.01002323 119.46354811 113 148 C113.22284668 148.79535156 113.44569336 149.59070313 113.67529297 150.41015625 C123.39231208 185.99400876 126.8378713 224.81537394 119 261 C118.81276367 261.87591797 118.62552734 262.75183594 118.43261719 263.65429688 C114.51477397 281.53157112 108.77971577 298.65059002 100.15820312 314.81005859 C98.85546175 317.27329429 97.59096692 319.75436281 96.328125 322.23828125 C91.39898025 331.88390063 86.44629847 341.26709 80 350 C79.6090918 350.53077148 79.21818359 351.06154297 78.81542969 351.60839844 C71.56112915 361.36883223 63.466442 370.28245548 55 379 C54.4225 379.59723877 53.845 380.19447754 53.25 380.80981445 C49.53191808 384.59935841 45.69570389 388.06150384 41.5 391.3125 C40.89961914 391.77906006 40.29923828 392.24562012 39.68066406 392.72631836 C-1.33849837 424.20304993 -59.9465146 450.34272994 -112.21875 450.30078125 C-113.43792114 450.30506638 -114.65709229 450.3093515 -115.91320801 450.31376648 C-118.4779397 450.31947103 -121.04268756 450.32003892 -123.60742188 450.31567383 C-127.46253191 450.31253055 -131.31686033 450.33596619 -135.171875 450.36132812 C-153.97125595 450.41056908 -171.96844608 449.01619431 -190.1875 444.1875 C-191.68953979 443.79630981 -191.68953979 443.79630981 -193.22192383 443.3972168 C-196.15435568 442.61958763 -199.07824381 441.81673565 -202 441 C-202.81597656 440.77473633 -203.63195312 440.54947266 -204.47265625 440.31738281 C-236.55700467 431.23767508 -266.17011601 409.85244201 -290 387 C-290.53125488 386.49597656 -291.06250977 385.99195313 -291.60986328 385.47265625 C-299.91406817 377.56060122 -307.16164637 369.19915265 -314 360 C-314.4237793 359.44231934 -314.84755859 358.88463867 -315.28417969 358.31005859 C-335.91454382 331.13855288 -347.58095503 298.34043335 -355.5625 265.4375 C-355.78945557 264.50752197 -356.01641113 263.57754395 -356.25024414 262.61938477 C-359.50640647 248.38458112 -360.32898336 234.38064586 -360.26074219 219.83740234 C-360.25003906 217.13486159 -360.2606967 214.43298932 -360.2734375 211.73046875 C-360.3048593 172.54881781 -351.36042871 135.1711829 -330.6328125 101.7578125 C-329.31082321 99.52497891 -328.07698524 97.28582853 -326.8671875 94.9921875 C-318.76944801 79.73516618 -308.75445287 66.63894636 -297 54 C-295.84977537 52.67045304 -294.70378111 51.33723193 -293.5625 50 C-286.88643169 42.37240011 -279.68389642 35.51749826 -271.7578125 29.203125 C-269.9800802 27.78295359 -268.2228031 26.33659828 -266.4921875 24.859375 C-253.57043979 13.87391364 -239.01756206 4.82844834 -224 -3 C-223.23945313 -3.39928711 -222.47890625 -3.79857422 -221.6953125 -4.20996094 C-199.30965843 -15.81029381 -175.81037908 -22.85421231 -151 -27 C-149.66920363 -27.24703406 -148.33846544 -27.49438202 -147.0078125 -27.7421875 C-99.43512234 -35.34132619 -41.54349509 -24.09931563 0 0 Z " fill="#BE362E" transform="translate(547,247)"/>
<path d="M0 0 C7.6669872 5.31461613 13.28170097 12.93576377 15.28149414 22.12084961 C15.77036812 24.96885793 16.20562509 27.82062855 16.625 30.6796875 C18.10857667 40.21349166 19.93223091 49.61124058 22.08740234 59.015625 C28.47111214 87.13859233 24.47212314 114.42126614 10.75 139.6796875 C11.905 140.0096875 13.06 140.3396875 14.25 140.6796875 C14.8996875 140.8653125 15.549375 141.0509375 16.21875 141.2421875 C24.6894176 142.7062535 30.7229125 140.55694686 38.66287231 137.5758667 C67.66604258 126.75588148 96.2578448 125.60355656 124.97558594 138.27832031 C132.97956065 141.97505547 140.38902202 146.45559925 147.8684082 151.10449219 C154.27385783 154.99924146 160.84355631 158.09060749 167.75 160.9921875 C185.13302049 168.30766128 198.1092848 175.50570063 205.75 193.6796875 C208.54661071 202.06951962 208.0391496 214.53576482 204.14453125 222.50390625 C199.85990873 229.18887752 194.99608965 234.34648626 187.75 237.6796875 C187.09 237.6796875 186.43 237.6796875 185.75 237.6796875 C185.75 238.3396875 185.75 238.9996875 185.75 239.6796875 C186.41386719 239.78152344 187.07773437 239.88335937 187.76171875 239.98828125 C192.22276044 241.02044384 196.3882254 242.83294539 200.60351562 244.59570312 C206.30216615 246.84789707 211.34534087 247.77549845 217.359375 245.83984375 C218.06578125 245.47761719 218.7721875 245.11539063 219.5 244.7421875 C228.1382069 240.40754771 238.28470409 240.22508322 247.5 243.1171875 C256.09216565 246.68350736 263.95767975 253.96064013 267.5456543 262.59423828 C269.62535717 268.35271316 270.22679292 273.45476167 270.125 279.5546875 C270.11557373 280.43310303 270.10614746 281.31151855 270.09643555 282.21655273 C269.94482795 288.74534352 269.19255808 294.57819704 266.75 300.6796875 C266.39808594 301.56398438 266.04617188 302.44828125 265.68359375 303.359375 C264.46830862 306.19102946 263.1447753 308.93217123 261.75 311.6796875 C261.26917969 312.63746094 260.78835938 313.59523438 260.29296875 314.58203125 C250.27444115 333.13215169 233.42762836 346.81433885 213.62890625 353.77734375 C211.01213989 354.51597709 208.41383347 355.1371303 205.75 355.6796875 C204.31720703 355.98326172 204.31720703 355.98326172 202.85546875 356.29296875 C200.49064755 356.77916276 198.1241827 357.24193147 195.75 357.6796875 C196.33007812 358.37191406 196.91015625 359.06414062 197.5078125 359.77734375 C204.72310796 368.81432272 209.27579 378.08552039 211.8125 389.4296875 C215.14004552 399.68160519 229.73635671 406.83767307 238.296875 412.3984375 C242.65395621 415.24310423 246.72289826 418.3885448 250.75 421.6796875 C251.32621094 422.11023438 251.90242187 422.54078125 252.49609375 422.984375 C266.66162962 434.04199884 275.78422455 452.20344657 278.4375 469.6796875 C279.10905741 476.64709568 278.95861752 483.40838893 278.03125 490.34936523 C274.66868069 515.96852393 276.18458421 541.30727536 283.10400391 566.13354492 C286.40474227 578.32815516 284.98199784 587.82026293 279 598.9296875 C272.60636038 606.74413593 264.83694568 612.69460221 254.52929688 613.95019531 C237.07298941 615.22766017 225.46707429 609.24582401 210.75 600.6796875 C210.09 600.3496875 209.43 600.0196875 208.75 599.6796875 C208.84539063 600.77023437 208.94078125 601.86078125 209.0390625 602.984375 C211.79617069 638.45334033 199.45973377 670.14876384 176.4375 697.0546875 C165.92194419 709.364764 160.42781987 724.08471691 155.15625 739.20703125 C152.42211846 747.00370446 149.6098962 753.65199692 143.75 759.6796875 C143.20601562 760.25074219 142.66203125 760.82179688 142.1015625 761.41015625 C134.6368556 768.50688464 124.73687379 771.02426029 114.6875 770.890625 C99.47159799 769.79799374 89.50231814 759.32746056 79.75 748.6796875 C72.75 740.54548128 72.75 740.54548128 72.75 737.6796875 C72.09 737.6796875 71.43 737.6796875 70.75 737.6796875 C67.78499088 754.33420683 65.3717013 770.13237704 68.25 786.9296875 C70.67450463 801.24533689 71.60367192 814.56727334 63.625 827.4296875 C58.9740647 833.4053474 52.03259583 837.80828106 44.75 839.6796875 C31.74716947 841.21900858 20.78461705 839.38268874 10.125 831.4296875 C8.64944787 830.20006072 7.1913645 828.94921673 5.75 827.6796875 C4.98429688 827.01066406 4.21859375 826.34164062 3.4296875 825.65234375 C0.84489043 823.35428461 -1.70345277 821.02005122 -4.25 818.6796875 C-5.35373541 817.68051299 -6.45792376 816.68183865 -7.5625 815.68359375 C-25.08672618 799.78848539 -31.84837684 784.74565998 -33.9375 760.9921875 C-34.06746949 759.59692203 -34.1983234 758.20173865 -34.33007812 756.80664062 C-34.64538495 753.43168979 -34.95181977 750.05618714 -35.25 746.6796875 C-35.87003906 747.44410156 -36.49007812 748.20851563 -37.12890625 748.99609375 C-67.41170651 785.84133302 -105.46650054 805.7247477 -152.890625 811.265625 C-160.22282383 811.93858712 -167.58019205 811.96488643 -174.9375 811.9921875 C-176.14397186 811.99860764 -176.14397186 811.99860764 -177.37481689 812.00515747 C-194.0267726 812.05043935 -210.5005789 810.70606228 -227.05737305 809.01489258 C-248.55384955 806.73624315 -248.55384955 806.73624315 -269 812.6171875 C-277.30594331 816.50351195 -285.68846686 819.62334044 -294.375 822.5546875 C-305.61026444 826.40710362 -315.29291791 831.39180287 -325.38134766 837.57177734 C-334.99055395 843.2690047 -345.46619036 844.41375273 -356.37109375 841.984375 C-366.38018896 838.68040182 -373.34713154 833.04822595 -378.25 823.6796875 C-381.93971877 814.66460143 -381.64105386 803.28156063 -378.3125 794.1796875 C-377.33873922 791.99146103 -376.31316882 789.82589746 -375.25 787.6796875 C-374.93353516 787.0196875 -374.61707031 786.3596875 -374.29101562 785.6796875 C-366.34827176 769.2192964 -356.24646934 756.14091927 -341.9375 744.7421875 C-341.31391602 744.24444824 -340.69033203 743.74670898 -340.04785156 743.23388672 C-335.49399491 739.6796875 -335.49399491 739.6796875 -333.25 739.6796875 C-333.25 739.0196875 -333.25 738.3596875 -333.25 737.6796875 C-334.075 737.4321875 -334.9 737.1846875 -335.75 736.9296875 C-338.41469364 735.9780112 -340.55003439 735.01422161 -343 733.6796875 C-352.8553179 728.65834682 -363.59651355 729.36769749 -374.32543945 730.13793945 C-404.42836485 732.20825443 -431.46054348 723.66109046 -454.3984375 704.01953125 C-459.00471212 699.95728747 -463.28598343 695.71027661 -467.3347168 691.09277344 C-479.30045229 677.48798484 -494.49913416 670.86212043 -510.7109375 663.57324219 C-524.54859149 657.34974581 -536.43429059 651.26571124 -542.625 636.5546875 C-546.11602614 625.96426367 -545.05695619 615.62741628 -540.25 605.6796875 C-535.66516359 597.16499132 -528.25145198 591.82681169 -519.25 588.6796875 C-516.11380894 587.74247889 -513.31572433 587.56302631 -510.046875 587.58203125 C-509.0671875 587.58525391 -508.0875 587.58847656 -507.078125 587.59179688 C-506.06234375 587.60017578 -505.0465625 587.60855469 -504 587.6171875 C-502.453125 587.62395508 -502.453125 587.62395508 -500.875 587.63085938 C-498.33327427 587.64262662 -495.79166681 587.65906739 -493.25 587.6796875 C-493.98863281 586.9990625 -494.72726562 586.3184375 -495.48828125 585.6171875 C-513.59653152 568.49272155 -524.65043863 546.10199229 -534.625 523.57421875 C-539.48062981 513.09704134 -546.67364252 504.13076524 -553.56005859 494.92919922 C-563.15213241 482.09574876 -567.79262021 471.06537458 -566.25 454.6796875 C-564.45807688 445.0345711 -558.76483841 437.94342827 -551.09765625 432.015625 C-541.83450365 425.93501427 -530.99906805 425.06594688 -520.24072266 427.05029297 C-511.35715507 429.23425522 -497.90174648 434.02794102 -491.25 440.6796875 C-490.899375 439.4628125 -490.54875 438.2459375 -490.1875 436.9921875 C-489.99027344 436.30769531 -489.79304688 435.62320312 -489.58984375 434.91796875 C-489.16132577 432.09566065 -489.31891914 430.39360032 -490.25 427.6796875 C-492.46016033 425.17329001 -492.46016033 425.17329001 -495.25 422.7421875 C-511.74056778 407.14038134 -522.7479236 382.20414745 -523.5859375 359.61328125 C-523.90884071 336.40150823 -519.2987798 317.34511022 -507.49731445 297.19140625 C-500.48522592 284.72824067 -499.3925181 271.12214548 -498.25 257.1796875 C-496.78902764 239.35104579 -493.21434327 224.58204115 -484.9375 208.6796875 C-484.291163 207.41725719 -483.64597789 206.15423646 -483.00195312 204.890625 C-482.04263882 203.00975285 -481.08101471 201.13031719 -480.11045837 199.25521851 C-478.49278415 196.1298827 -476.90809484 192.99446003 -475.38305664 189.82275391 C-475.07942703 189.1965918 -474.77579742 188.57042969 -474.46296692 187.92529297 C-473.63331373 186.2079857 -472.81290452 184.48622121 -471.99316406 182.76416016 C-467.07642603 174.06415059 -459.51461867 167.84898335 -450 165.0078125 C-439.82815356 162.46485089 -430.18646381 163.80516018 -420.94921875 168.96484375 C-418.91642733 170.42731293 -417.09143607 171.98282699 -415.25 173.6796875 C-414.52296875 174.31648437 -413.7959375 174.95328125 -413.046875 175.609375 C-406.22612049 181.94293276 -401.4031164 189.37345469 -397.25 197.6796875 C-396.75693359 196.69742188 -396.75693359 196.69742188 -396.25390625 195.6953125 C-383.34486794 170.92675119 -363.75729009 156.51671504 -337.95874023 147.41821289 C-326.08167431 143.20870798 -319.96985147 137.92769966 -312.6171875 127.73828125 C-302.04452228 114.07756034 -286.7999833 106.57842853 -271.38989258 99.72241211 C-269.15457533 98.72753363 -266.92563469 97.71931763 -264.69726562 96.70898438 C-263.26596936 96.06433905 -261.83434103 95.42043037 -260.40234375 94.77734375 C-259.74193588 94.47949478 -259.08152802 94.18164581 -258.40110779 93.87477112 C-248.8985235 89.65816618 -236.60186397 88.57713412 -226.6875 92.3046875 C-215.53820209 97.73736746 -209.91319509 105.42511402 -205.25 116.6796875 C-204.46238281 115.84566406 -203.67476563 115.01164062 -202.86328125 114.15234375 C-191.19022587 102.00294802 -178.11551348 93.46411181 -163.25 85.6796875 C-162.42902832 85.24946289 -161.60805664 84.81923828 -160.76220703 84.37597656 C-142.25316031 74.81059569 -125.50908904 71.35330702 -104.90698242 69.80493164 C-89.23685645 68.55980799 -74.885991 66.15629427 -63.58984375 54.390625 C-60.25119683 50.12727995 -59.87650961 46.15248399 -59.4375 40.8671875 C-57.78260925 24.79036481 -52.395757 10.97952527 -39.6875 0.375 C-27.51763533 -8.0892969 -12.49413261 -7.33162643 0 0 Z M-23.25 26.0546875 C-28.70920592 33.21989527 -29.54927429 40.49918151 -29.99609375 49.29296875 C-30.89211862 61.24456199 -37.18638204 71.59826607 -45.84765625 79.7109375 C-64.66427296 95.13138437 -85.24054995 98.54371322 -108.90478516 100.20605469 C-118.1700958 100.86801317 -126.56506452 102.15590839 -135.25 105.6796875 C-135.99636719 105.98084473 -136.74273437 106.28200195 -137.51171875 106.59228516 C-139.53364655 107.4498845 -141.5182607 108.35817411 -143.5 109.3046875 C-144.2110791 109.64314697 -144.9221582 109.98160645 -145.65478516 110.33032227 C-170.94052531 122.67183945 -186.77636303 138.77955581 -199.21606445 163.82177734 C-208.57520511 182.65467708 -222.30778191 203.55411952 -243.25 210.6796875 C-247.39403921 211.03737276 -248.72940649 211.02674984 -252.25 208.6796875 C-257.2007796 193.8273487 -251.22332571 176.95784901 -247.09570312 162.66796875 C-246.38863628 160.16955703 -245.73819807 157.67464838 -245.140625 155.1484375 C-243.40048639 147.88259558 -241.02946647 141.44419873 -237.53515625 134.86230469 C-235.37128061 130.64085735 -234.76406436 127.40020519 -235.25 122.6796875 C-237.19496608 120.32230694 -237.19496608 120.32230694 -240.73046875 120.265625 C-246.27608571 120.41317467 -250.70038488 122.83032419 -255.5625 125.3046875 C-256.49022217 125.76327148 -257.41794434 126.22185547 -258.3737793 126.69433594 C-261.0087781 128.0047837 -263.63108718 129.33744179 -266.25 130.6796875 C-267.4153125 131.27007812 -268.580625 131.86046875 -269.78125 132.46875 C-280.03978536 137.85736268 -288.10890496 144.41945817 -294.8515625 153.94140625 C-302.43982165 164.65094441 -313.24744942 170.08854793 -325.25 174.6796875 C-328.82631824 176.1056104 -332.38316258 177.57495288 -335.9375 179.0546875 C-336.81664062 179.40595703 -337.69578125 179.75722656 -338.6015625 180.11914062 C-353.99447279 186.54249793 -364.70565221 198.54427138 -371.57421875 213.578125 C-375.86378384 224.70866936 -376.5247679 235.59148053 -376.375 247.4296875 C-376.3661667 248.81924754 -376.3585395 250.20881571 -376.35205078 251.59838867 C-376.32943254 255.95894194 -376.29084923 260.31927205 -376.25 264.6796875 C-376.20269273 269.76507958 -376.16204237 274.85035287 -376.13812256 279.93591309 C-376.12518641 281.96297702 -376.10019489 283.98966228 -376.07470703 286.01660156 C-376.06810059 287.24217773 -376.06149414 288.46775391 -376.0546875 289.73046875 C-376.04421387 290.80981689 -376.03374023 291.88916504 -376.02294922 293.0012207 C-376.25 295.6796875 -376.25 295.6796875 -378.25 298.6796875 C-381.8187366 299.48083245 -384.13983041 299.33826268 -387.32421875 297.44921875 C-406.16534073 282.12600823 -418.17125731 254.26222169 -421.25 230.6796875 C-421.36472656 229.42285156 -421.47945313 228.16601562 -421.59765625 226.87109375 C-422.81596562 213.82334314 -426.66101028 204.67165026 -436.00390625 195.12890625 C-438.15312405 193.49746778 -438.15312405 193.49746778 -440.71484375 193.44921875 C-447.61101214 196.79635749 -450.61551493 207.35148592 -453.6875 213.9296875 C-457.01675522 221.00665946 -460.36008324 228.03126325 -464.12890625 234.88671875 C-467.46868465 243.2070726 -467.7465991 252.29421036 -468.45300293 261.13916016 C-470.33141472 284.10671044 -475.90878054 302.69005214 -486.49707031 323.10180664 C-494.0174094 337.72575509 -496.23337898 355.10374572 -491.1875 370.9921875 C-490.2935701 373.59350411 -489.30553278 376.13995579 -488.25 378.6796875 C-487.99299316 379.30246582 -487.73598633 379.92524414 -487.47119141 380.56689453 C-483.74855344 389.30332481 -479.03463408 396.0802994 -472.25 402.6796875 C-471.59773438 403.35257812 -470.94546875 404.02546875 -470.2734375 404.71875 C-459.61966025 415.04345305 -445.34827616 421.34447257 -432.03027344 427.45654297 C-430.74878418 428.04653076 -430.74878418 428.04653076 -429.44140625 428.6484375 C-428.68029541 428.99326172 -427.91918457 429.33808594 -427.13500977 429.69335938 C-425.25 430.6796875 -425.25 430.6796875 -423.25 432.6796875 C-423.38569629 436.88627255 -423.58817059 439.57663849 -425.75 443.1796875 C-429.4969403 445.42785168 -432.97002556 445.10446309 -437.25 444.6796875 C-440.26932338 443.89400705 -443.11363098 442.79417884 -446 441.6171875 C-452.45658414 438.79711212 -452.45658414 438.79711212 -459.25 439.6796875 C-459.58 440.0096875 -459.91 440.3396875 -460.25 440.6796875 C-459.67601189 457.61233678 -449.96781812 471.85001498 -441.68286133 486.03930664 C-439.34523293 490.34693165 -437.85937586 493.73178177 -438.25 498.6796875 C-438.58 499.6696875 -438.91 500.6596875 -439.25 501.6796875 C-460.470951 504.0911592 -490.22191443 478.58573979 -506.4609375 466.97265625 C-510.26766563 464.28654282 -513.92463508 462.17518096 -518.1875 460.3046875 C-519.26902344 459.82257813 -520.35054687 459.34046875 -521.46484375 458.84375 C-525.97068676 456.96052249 -529.34557221 456.32300184 -534.25 456.6796875 C-536.81304503 460.52425504 -536.84070523 462.101722 -536.25 466.6796875 C-534.00580932 471.29168953 -530.59603556 475.22668674 -527.49609375 479.28515625 C-517.68983738 492.14192934 -510.03344283 504.72436074 -503.375 519.4921875 C-496.0060558 535.79237147 -488.01524414 550.04357156 -475.25 562.6796875 C-474.461698 563.51826294 -474.461698 563.51826294 -473.6574707 564.3737793 C-469.47717486 568.75390149 -465.13157274 572.02505434 -459.9375 575.1171875 C-458.77214722 575.81823608 -458.77214722 575.81823608 -457.58325195 576.53344727 C-445.50269426 583.63887135 -432.78656109 589.04442728 -419.25 592.6796875 C-418.92 594.3296875 -418.59 595.9796875 -418.25 597.6796875 C-427.0211385 602.50811928 -435.89326759 605.65620612 -445.5 608.3046875 C-446.87976243 608.69393503 -448.25931864 609.08391426 -449.63867188 609.47460938 C-467.39147225 614.47764261 -483.16038373 617.9120814 -501.73046875 617.46484375 C-503.49583984 617.44357422 -503.49583984 617.44357422 -505.296875 617.421875 C-506.36776367 617.3997998 -507.43865234 617.37772461 -508.54199219 617.35498047 C-511.25441003 617.46279962 -511.25441003 617.46279962 -513.10644531 618.98876953 C-514.53455712 620.79905494 -514.53455712 620.79905494 -514.5 623.9921875 C-512.67184407 629.38524749 -509.07721541 630.94130377 -504.25 633.6796875 C-500.18492259 635.66062678 -496.04493542 637.4321421 -491.875 639.1796875 C-471.50473074 647.77881576 -454.313649 658.85324468 -439.93359375 675.78515625 C-428.45988365 688.69640775 -412.47845206 697.72901107 -395.25 699.6796875 C-392.0715814 699.76508925 -388.90110266 699.70261125 -385.72265625 699.63671875 C-383.8587349 699.61430502 -381.9948018 699.59285245 -380.13085938 699.57226562 C-377.23493601 699.53547266 -374.33963491 699.49274872 -371.4440918 699.43286133 C-355.03177258 699.11027776 -341.04620239 700.53085087 -326.25 708.3046875 C-309.24689999 717.04913894 -292.24196268 716.39191407 -274.25 710.6796875 C-272.83783972 710.22221325 -271.42639041 709.7625391 -270.015625 709.30078125 C-268.61474963 708.84324053 -267.2137105 708.38620086 -265.8125 707.9296875 C-264.81246948 707.60121826 -264.81246948 707.60121826 -263.79223633 707.26611328 C-258.71857378 705.66470868 -254.52327326 705.20885953 -249.25 705.6796875 C-249.4276818 712.0762324 -252.77724808 714.97891632 -257.125 719.1796875 C-257.8375293 719.87819824 -258.55005859 720.57670898 -259.28417969 721.29638672 C-267.30601946 728.96907323 -276.15381853 735.35550442 -285.25 741.6796875 C-286.91170252 742.8434014 -288.57315971 744.00746569 -290.234375 745.171875 C-292.73866282 746.92424235 -295.24379412 748.67536023 -297.75097656 750.42358398 C-324.6594243 768.46719074 -324.6594243 768.46719074 -344.25 793.6796875 C-344.85070312 794.7625 -345.45140625 795.8453125 -346.0703125 796.9609375 C-349.77377083 803.91623397 -349.77377083 803.91623397 -350.25 811.6796875 C-349.04366642 813.11776279 -349.04366642 813.11776279 -345.5 812.7421875 C-340.32518053 812.11369996 -336.7544772 809.75754713 -332.4387207 806.96264648 C-320.66050747 799.37127863 -307.77321547 794.97497888 -294.60742188 790.38916016 C-287.99461379 788.07254301 -281.54622509 785.62111167 -275.1875 782.6796875 C-257.441344 774.65306937 -238.11594007 777.38572785 -219.28305054 779.39691162 C-173.77878382 784.23786887 -126.06408162 784.60044376 -87.25 756.6796875 C-83.75711245 753.82761395 -80.50467694 750.79640125 -77.25 747.6796875 C-76.239375 746.8959375 -75.22875 746.1121875 -74.1875 745.3046875 C-63.31244945 735.58655722 -54.43649956 721.99210009 -46.13671875 710.01953125 C-42.49217421 705.49969237 -38.27623898 702.16113461 -32.5 701.2421875 C-25.48381351 702.18667414 -21.32712755 706.18644825 -17.125 711.6796875 C-8.31230623 724.5517717 -5.25111727 736.70660986 -4.25 751.9921875 C-2.79371824 773.98473888 1.25660539 783.72843213 17.9375 798.4296875 C19.20702471 799.51455407 20.47781908 800.59793699 21.75 801.6796875 C22.38035156 802.23785156 23.01070312 802.79601562 23.66015625 803.37109375 C24.26730469 803.90605469 24.87445312 804.44101562 25.5 804.9921875 C26.03109375 805.46269531 26.5621875 805.93320312 27.109375 806.41796875 C31.0021716 809.41171471 33.85209642 809.90231948 38.75 809.6796875 C41.37499825 804.429691 39.42600676 797.4882743 38.25 792.0546875 C35.0067523 775.23575491 36.33891743 758.35279186 39.75 741.6796875 C39.88390137 740.98681641 40.01780273 740.29394531 40.15576172 739.58007812 C43.37174131 723.28578153 50.23525294 709.53104502 60.75 696.6796875 C75.9646295 677.91576651 83.31825089 659.42411733 86.1875 635.3671875 C89.06804306 612.36164444 89.06804306 612.36164444 92.75 608.6796875 C95.5 607.9921875 95.5 607.9921875 98.75 608.6796875 C107.08956295 617.22020378 108.24983361 628.70869968 108.125 640.0546875 C108.13660156 641.10140625 108.14820313 642.148125 108.16015625 643.2265625 C108.11068612 656.5834982 103.82531096 667.47391182 98.125 679.3046875 C97.51984045 680.58156116 96.91566812 681.85890318 96.3125 683.13671875 C92.64286957 690.89394835 92.64286957 690.89394835 90.75 694.6796875 C89.48419643 708.95629172 93.93026616 717.77106932 102.75 728.6796875 C108.20610832 735.27096479 108.20610832 735.27096479 114.75 740.6796875 C118.2745821 740.60469639 120.10359126 740.29351516 122.6875 737.83984375 C125.67387616 733.26412725 127.1044762 728.344658 128.8125 723.1796875 C134.91863908 705.55768562 142.84232369 690.0383766 154.75 675.6796875 C172.9393907 652.50240149 181.93927837 629.67933175 178.42919922 599.96386719 C176.32280243 586.6395638 171.9397952 573.92889048 166.8125 561.4921875 C151.85650829 525.15524203 151.85650829 525.15524203 156.9375 510.1796875 C158.75 507.6796875 158.75 507.6796875 160.9453125 506.83984375 C169.05352458 506.37684 179.62386927 514.3267652 185.58203125 519.41015625 C190.59571552 524.65871582 193.52696964 531.15906217 196.67578125 537.62109375 C206.42488116 557.62663739 219.94818069 573.23162342 240.39453125 582.87109375 C244.13199374 584.15410326 247.88200015 584.62888992 251.75 583.6796875 C253.71997843 582.75776867 253.71997843 582.75776867 254.75 580.6796875 C254.44862483 573.90242148 252.49508171 567.48056949 250.65429688 560.98046875 C246.92747228 546.94612026 246.4299438 532.45197129 246.54418945 518.00805664 C246.5627339 515.58664616 246.56469603 513.16561565 246.56445312 510.74414062 C246.5799661 504.01821109 246.6137723 497.35547687 247.51196289 490.67797852 C247.98696901 486.690363 248.0162136 482.69117587 248.0625 478.6796875 C248.09150391 477.84179688 248.12050781 477.00390625 248.15039062 476.140625 C248.26934381 464.31850884 241.70501267 455.39873284 234.0078125 446.90625 C230.29861214 443.24838805 226.11668256 440.49180579 221.75 437.6796875 C213.66545497 432.43068571 206.10013221 426.91993842 198.75 420.6796875 C198.00621094 420.08285156 197.26242187 419.48601562 196.49609375 418.87109375 C188.30515639 412.1411585 184.7441617 405.57567342 182.27929688 395.27514648 C178.4184094 379.75539484 166.66155125 370.71749321 153.61767578 362.75585938 C144.88579579 357.72447023 135.00088 354.76800193 125.1875 352.6796875 C113.46025946 350.13843822 113.46025946 350.13843822 109.625 346.8671875 C108.3106097 343.58121175 108.54705 342.02121529 109.75 338.6796875 C118.19594442 329.64449115 132.15042077 321.93329325 144.66015625 321.24609375 C146.37745541 321.22345204 148.09516113 321.22279069 149.8125 321.2421875 C150.72136963 321.24613525 151.63023926 321.25008301 152.56665039 321.25415039 C159.86715299 321.40711086 166.41565554 322.65730884 173.40234375 324.70703125 C187.63424874 328.84208883 200.79089528 327.24479374 213.7265625 320.5 C226.04860108 313.08130494 235.92369806 300.60317512 239.75 286.6796875 C240.80136755 279.4252032 240.80136755 279.4252032 238.41796875 272.8359375 C236.65150232 271.37033952 236.65150232 271.37033952 233.5625 271.7421875 C230.42034162 272.5148494 228.76830169 273.15583949 226.0859375 274.70703125 C221.53181293 277.0300497 217.61354221 277.29934867 212.5625 277.1796875 C211.72517334 277.16615234 210.88784668 277.15261719 210.02514648 277.13867188 C202.72780425 276.8974606 196.53951515 275.38621404 189.75 272.6796875 C188.37795935 272.16051869 187.00553682 271.64235841 185.6328125 271.125 C177.66127971 268.06217246 169.81570959 264.73090662 162.015625 261.2578125 C159.23969257 260.02319164 156.46363185 258.78885986 153.6875 257.5546875 C152.99664307 257.24697418 152.30578613 256.93926086 151.59399414 256.6222229 C142.59568386 252.62665527 133.66242194 248.96730179 124.14233398 246.36474609 C117.64267393 244.56776771 117.64267393 244.56776771 115.75 241.6796875 C114.37054824 236.4506029 115.71828427 232.08408807 118.3125 227.4921875 C123.66338006 219.4094764 130.61682129 214.7240804 139.75 211.6796875 C141.96403948 211.6193128 144.17991573 211.61926765 146.39453125 211.65234375 C147.71130859 211.66458984 149.02808594 211.67683594 150.38476562 211.68945312 C152.47152528 211.71419925 154.55813752 211.74211743 156.64477539 211.77563477 C158.66553628 211.80604555 160.68611294 211.82367841 162.70703125 211.83984375 C163.91335205 211.85668213 165.11967285 211.87352051 166.36254883 211.89086914 C169.91639827 211.66931384 174.10016468 211.32952282 176.75 208.6796875 C177.24531644 205.70778888 177.24975793 203.57846164 175.76171875 200.90234375 C171.27747806 195.12967334 165.54320446 192.74220193 158.97412109 189.91552734 C157.00315419 189.06706434 155.03256345 188.21774632 153.0625 187.3671875 C152.381875 187.07400635 151.70125 186.7808252 151 186.47875977 C141.86541487 182.49309006 133.10335755 177.7921245 124.625 172.5546875 C118.91355801 169.06118882 112.88387041 166.34349462 106.75 163.6796875 C106.0178125 163.35871094 105.285625 163.03773438 104.53125 162.70703125 C86.16478594 155.21742808 67.75563845 159.12303131 49.77880859 165.47094727 C30.88063673 172.14083878 17.77653659 174.03134812 -1.25 166.6796875 C-3.11819405 166.07491171 -4.99256946 165.48857751 -6.875 164.9296875 C-7.60976563 164.70796875 -8.34453125 164.48625 -9.1015625 164.2578125 C-23.36714781 160.41907318 -35.84274133 164.4095853 -49.4375 169.0078125 C-52.2407212 169.6774709 -53.59223791 169.67634828 -56.25 168.6796875 C-54.00757139 161.74854452 -49.1811793 157.50816789 -43.8203125 152.921875 C-25.38369682 136.83886983 -8.1959309 120.26564295 -5.25 94.6796875 C-4.50305396 82.39793546 -5.97753303 71.2750432 -8.67236328 59.31201172 C-9.68396682 54.70207538 -10.55747403 50.06621168 -11.4375 45.4296875 C-11.60411133 44.57270264 -11.77072266 43.71571777 -11.94238281 42.83276367 C-12.68497802 38.9585362 -13.34228356 35.11645191 -13.78125 31.1953125 C-13.97837046 27.77869077 -13.97837046 27.77869077 -15.5625 25.6796875 C-18.41929265 23.98677334 -20.57973602 24.21888102 -23.25 26.0546875 Z " fill="#F0A0BF" transform="translate(566.25,5.3203125)"/>
<path d="M0 0 C0.63583008 0.3599707 1.27166016 0.71994141 1.92675781 1.09082031 C13.25472134 7.56473755 23.14784892 15.48563086 33 24 C33.87785156 24.74636719 34.75570313 25.49273437 35.66015625 26.26171875 C49.03744016 37.94102838 61.54488033 50.63568354 72 65 C72.85649066 66.14994831 73.71326433 67.29968589 74.5703125 68.44921875 C92.17502887 92.32172308 105.01002323 119.46354811 113 148 C113.22284668 148.79535156 113.44569336 149.59070313 113.67529297 150.41015625 C123.39231208 185.99400876 126.8378713 224.81537394 119 261 C118.81276367 261.87591797 118.62552734 262.75183594 118.43261719 263.65429688 C114.51477397 281.53157112 108.77971577 298.65059002 100.15820312 314.81005859 C98.85546175 317.27329429 97.59096692 319.75436281 96.328125 322.23828125 C91.39898025 331.88390063 86.44629847 341.26709 80 350 C79.6090918 350.53077148 79.21818359 351.06154297 78.81542969 351.60839844 C71.56112915 361.36883223 63.466442 370.28245548 55 379 C54.4225 379.59723877 53.845 380.19447754 53.25 380.80981445 C49.53191808 384.59935841 45.69570389 388.06150384 41.5 391.3125 C40.89961914 391.77906006 40.29923828 392.24562012 39.68066406 392.72631836 C-1.33849837 424.20304993 -59.9465146 450.34272994 -112.21875 450.30078125 C-113.43792114 450.30506638 -114.65709229 450.3093515 -115.91320801 450.31376648 C-118.4779397 450.31947103 -121.04268756 450.32003892 -123.60742188 450.31567383 C-127.46253191 450.31253055 -131.31686033 450.33596619 -135.171875 450.36132812 C-153.97125595 450.41056908 -171.96844608 449.01619431 -190.1875 444.1875 C-191.68953979 443.79630981 -191.68953979 443.79630981 -193.22192383 443.3972168 C-196.15435568 442.61958763 -199.07824381 441.81673565 -202 441 C-202.81597656 440.77473633 -203.63195312 440.54947266 -204.47265625 440.31738281 C-236.55700467 431.23767508 -266.17011601 409.85244201 -290 387 C-290.53125488 386.49597656 -291.06250977 385.99195313 -291.60986328 385.47265625 C-299.91406817 377.56060122 -307.16164637 369.19915265 -314 360 C-314.4237793 359.44231934 -314.84755859 358.88463867 -315.28417969 358.31005859 C-335.91454382 331.13855288 -347.58095503 298.34043335 -355.5625 265.4375 C-355.78945557 264.50752197 -356.01641113 263.57754395 -356.25024414 262.61938477 C-359.50640647 248.38458112 -360.32898336 234.38064586 -360.26074219 219.83740234 C-360.25003906 217.13486159 -360.2606967 214.43298932 -360.2734375 211.73046875 C-360.3048593 172.54881781 -351.36042871 135.1711829 -330.6328125 101.7578125 C-329.31082321 99.52497891 -328.07698524 97.28582853 -326.8671875 94.9921875 C-318.76944801 79.73516618 -308.75445287 66.63894636 -297 54 C-295.84977537 52.67045304 -294.70378111 51.33723193 -293.5625 50 C-286.88643169 42.37240011 -279.68389642 35.51749826 -271.7578125 29.203125 C-269.9800802 27.78295359 -268.2228031 26.33659828 -266.4921875 24.859375 C-253.57043979 13.87391364 -239.01756206 4.82844834 -224 -3 C-223.23945313 -3.39928711 -222.47890625 -3.79857422 -221.6953125 -4.20996094 C-199.30965843 -15.81029381 -175.81037908 -22.85421231 -151 -27 C-149.66920363 -27.24703406 -148.33846544 -27.49438202 -147.0078125 -27.7421875 C-99.43512234 -35.34132619 -41.54349509 -24.09931563 0 0 Z M-152 0 C-152.97904297 0.19867676 -153.95808594 0.39735352 -154.96679688 0.60205078 C-190.20069437 7.98391725 -225.85595061 20.95627674 -251.35546875 47.3515625 C-253.00264502 49.00265131 -254.71783942 50.49642127 -256.5 52 C-265.97378929 60.17600993 -275.08002124 69.30844704 -283 79 C-283.4125 79.49338867 -283.825 79.98677734 -284.25 80.49511719 C-303.18458231 103.17716891 -317.32254602 128.06296404 -327 156 C-327.59361328 157.62615234 -327.59361328 157.62615234 -328.19921875 159.28515625 C-334.91502244 179.00785246 -337.2469072 200.15762311 -337.3125 220.875 C-337.31511841 221.66635345 -337.31773682 222.45770691 -337.32043457 223.27304077 C-337.32745386 243.19303302 -335.1712496 262.97018852 -329 282 C-328.78617676 282.66080566 -328.57235352 283.32161133 -328.35205078 284.00244141 C-318.7911147 313.17105586 -303.96470555 339.06889448 -282.59765625 361.28515625 C-280.47030335 363.50847996 -278.47052451 365.76511884 -276.5 368.125 C-244.09323797 405.28371512 -194.80586546 419.77867791 -147.24169922 423.484375 C-137.4596511 424.11401016 -127.67391242 424.21231752 -117.875 424.25 C-117.09612427 424.25535767 -116.31724854 424.26071533 -115.51477051 424.26623535 C-100.91393835 424.34259873 -87.08609554 422.80451744 -72.875 419.25 C-71.80878418 418.98687012 -70.74256836 418.72374023 -69.64404297 418.45263672 C-66.42553914 417.64932649 -63.21207029 416.82862976 -60 416 C-58.5778418 415.63600098 -58.5778418 415.63600098 -57.12695312 415.26464844 C-25.80642892 407.13830258 1.8564711 392.52950415 26 371 C26.78117188 370.31139893 26.78117188 370.31139893 27.578125 369.60888672 C65.87531165 335.77891522 89.72930927 289.83601233 94 239 C94.33142631 233.23223898 94.34115325 227.46297533 94.3125 221.6875 C94.31067719 220.91507965 94.30885437 220.1426593 94.30697632 219.34683228 C94.10333572 167.55645068 80.32623045 119.04276759 48 78 C47.34 77.13503906 46.68 76.27007812 46 75.37890625 C36.84559819 63.71051152 26.08772808 53.07599243 14.421875 43.9296875 C12.10948122 42.08723181 9.97003802 40.14465025 7.8125 38.125 C-9.24633846 22.93150191 -30.11624242 12.5609727 -51.75927734 5.71826172 C-53.25534626 5.23869812 -54.74547094 4.74018745 -56.22900391 4.22314453 C-61.71178609 2.31238714 -67.17855235 0.98239651 -72.875 -0.125 C-73.69613281 -0.29386719 -74.51726562 -0.46273437 -75.36328125 -0.63671875 C-99.65091843 -5.44877791 -127.77787854 -4.94483147 -152 0 Z " fill="#F0A0BE" transform="translate(547,247)"/>
<path d="M0 0 C1.0301976 -0.00350464 2.0603952 -0.00700928 3.12181091 -0.01062012 C6.51438208 -0.01939481 9.90674325 -0.01360237 13.29931641 -0.00683594 C15.66671793 -0.00818402 18.03411919 -0.01012574 20.40151978 -0.01263428 C25.35934082 -0.01557995 30.3170897 -0.0113065 35.27490234 -0.00195312 C41.61538644 0.00942851 47.95570097 0.00288646 54.29617882 -0.00909805 C59.18449164 -0.01634229 64.07276459 -0.01401673 68.96107864 -0.00884247 C71.29815313 -0.00751242 73.63523129 -0.00913101 75.97230148 -0.01380157 C79.245954 -0.01890754 82.51933624 -0.01109884 85.79296875 0 C87.22873009 -0.00607269 87.22873009 -0.00607269 88.6934967 -0.01226807 C99.82394905 0.0572798 108.81323364 2.37983421 117.35009766 9.85644531 C124.61005307 17.59186381 126.12408677 26.24631821 125.99633789 36.50634766 C125.53685023 48.26188001 120.99961047 56.65765094 114.52587891 66.25878906 C111.7308669 70.94719631 111.20398494 73.81482801 111.52587891 79.25878906 C112.27711998 81.61983242 113.11615842 83.95416382 114.02587891 86.25878906 C118.60433653 98.91137574 117.4326205 111.78203965 112.34228516 124.12988281 C105.35791944 138.39540033 92.16682381 145.3791611 77.81884766 150.61035156 C70.83612044 152.82886375 64.18778658 154.38288533 56.83158875 154.38577271 C55.72041183 154.38859253 54.60923492 154.39141235 53.46438599 154.39431763 C52.25966644 154.3922934 51.0549469 154.39026917 49.8137207 154.38818359 C47.89289925 154.39081207 47.89289925 154.39081207 45.93327332 154.39349365 C42.42845704 154.3980432 38.9236703 154.39628729 35.41885352 154.39311457 C31.73258879 154.3905722 28.04632648 154.39293427 24.36006165 154.39450073 C18.1587377 154.39631947 11.95742566 154.39392649 5.75610352 154.38916016 C-1.37142442 154.38374451 -8.49892363 154.38546164 -15.62645084 154.39098656 C-21.77371059 154.39555785 -27.92096179 154.39614799 -34.0682227 154.39354789 C-37.72676924 154.39200362 -41.3853024 154.39173919 -45.04384804 154.39508438 C-86.13691898 154.42739012 -86.13691898 154.42739012 -90.47412109 152.25878906 C-89.47386022 145.14582286 -81.22238206 140.55021073 -75.81396484 136.46191406 C-73.8148151 134.96661304 -71.80979447 133.47980834 -69.80004883 131.9987793 C-64.06058973 127.75487462 -58.52295586 123.29714898 -53.05371094 118.7109375 C-44.79426388 111.86671451 -38.67492037 108.08530784 -27.73925781 108.19287109 C-26.84619431 108.19754395 -25.9531308 108.2022168 -25.03300476 108.20703125 C-23.09159004 108.21753961 -21.15018609 108.2302042 -19.20879745 108.24475479 C-16.13123132 108.26676302 -13.0537267 108.2808528 -9.97610474 108.29244995 C-1.22470671 108.32604927 7.52659021 108.36749498 16.27783203 108.43017578 C21.63050961 108.46794534 26.98308151 108.4908859 32.33587265 108.50448227 C34.37153944 108.512511 36.40719251 108.52608355 38.44278336 108.54541397 C41.30020209 108.57206205 44.1571203 108.57980167 47.01464844 108.58349609 C47.8471965 108.59585297 48.67974457 108.60820984 49.53752136 108.62094116 C55.34308779 108.60126867 60.13385057 107.38619246 65.52587891 105.25878906 C65.85587891 102.94878906 66.18587891 100.63878906 66.52587891 98.25878906 C50.62238298 95.28501099 35.05101662 94.78104646 18.90087891 94.69628906 C15.27523424 94.6724678 11.64982655 94.64449083 8.02432251 94.60450745 C5.7896866 94.58019686 3.55492372 94.5653006 1.32015991 94.56089783 C-0.17443253 94.5456179 -0.17443253 94.5456179 -1.69921875 94.5300293 C-2.57599274 94.52575424 -3.45276672 94.52147919 -4.35610962 94.51707458 C-6.47412109 94.25878906 -6.47412109 94.25878906 -8.47412109 92.25878906 C-8.8215332 89.8293457 -8.8215332 89.8293457 -8.47412109 87.25878906 C-6.99975586 85.59643555 -6.99975586 85.59643555 -4.91552734 84.12988281 C-4.14523193 83.57550537 -3.37493652 83.02112793 -2.58129883 82.44995117 C-1.74155518 81.87124268 -0.90181152 81.29253418 -0.03662109 80.69628906 C0.81923584 80.08857666 1.67509277 79.48086426 2.55688477 78.85473633 C4.33308418 77.59589245 6.11417178 76.34391937 7.89990234 75.09863281 C10.35980507 73.37514574 12.79411112 71.62183191 15.22119141 69.85253906 C16.67648729 68.79985647 18.13219652 67.74774501 19.58837891 66.69628906 C20.24056396 66.22054443 20.89274902 65.7447998 21.56469727 65.25463867 C30.9168081 58.60626901 37.91411925 55.51107736 49.52587891 56.19628906 C61.14843303 56.88950077 61.14843303 56.88950077 71.52587891 52.25878906 C71.92238713 50.27034939 72.26080001 48.2689742 72.52587891 46.25878906 C62.65406393 43.98837888 53.44396857 42.80910438 43.28369141 42.78222656 C41.27364132 42.75891658 39.26359126 42.73560336 37.2535429 42.71214485 C35.1519745 42.69025034 33.05046404 42.67520827 30.94882202 42.66235352 C26.60427801 42.63553463 22.26009436 42.58880537 17.91577148 42.53808594 C13.55748094 42.48782799 9.19920015 42.43804055 4.84083557 42.39459229 C-6.50045946 42.28075561 -17.83892679 42.09489157 -29.17755127 41.82110596 C-31.73254825 41.76008058 -34.28763013 41.70537204 -36.84277344 41.65087891 C-38.3618284 41.61442861 -39.88087234 41.57751484 -41.39990234 41.54003906 C-42.68292236 41.50974609 -43.96594238 41.47945313 -45.2878418 41.44824219 C-47.86441142 41.29504182 -50.02307563 41.01780267 -52.47412109 40.25878906 C-52.79978025 36.71215735 -52.92774625 34.87937347 -50.78662109 31.95019531 C-50.02349609 31.24765625 -49.26037109 30.54511719 -48.47412109 29.82128906 C-47.64654297 29.0465625 -46.81896484 28.27183594 -45.96630859 27.47363281 C-43.21319346 25.02689883 -40.44252654 22.60430309 -37.64208984 20.21191406 C-34.95547642 17.79154161 -32.44075827 15.2156702 -29.91162109 12.63378906 C-20.51941666 3.1343092 -13.2590713 -0.05584434 0 0 Z " fill="#F1ECDA" transform="translate(323.47412109375,383.7412109375)"/>
<path d="M0 0 C17.1856004 -0.04678892 34.37118082 -0.08202256 51.55683041 -0.10362434 C59.53701346 -0.11392248 67.51715686 -0.12795477 75.49731445 -0.15087891 C82.45548342 -0.17085765 89.41362366 -0.18372706 96.37182051 -0.18817699 C100.05370712 -0.19077679 103.73551156 -0.19685679 107.41737175 -0.21146011 C111.53471343 -0.22765715 115.65191364 -0.22797682 119.76928711 -0.22705078 C121.58622322 -0.23783661 121.58622322 -0.23783661 123.43986511 -0.24884033 C134.3141217 -0.2224169 143.18458753 1.22699996 152 8 C158.39904899 14.50866867 162.43439559 22.95164454 162.70874023 32.09057617 C162.70173096 32.90631104 162.69472168 33.7220459 162.6875 34.5625 C162.68242432 35.42657471 162.67734863 36.29064941 162.67211914 37.1809082 C162.21932979 49.97073735 156.38097954 60.52499982 148 70 C147.38382813 70.81210937 146.76765625 71.62421875 146.1328125 72.4609375 C134.13622734 86.7425865 114.84073568 92.50061696 97 95 C93.81651368 95.18861036 90.63349575 95.25486898 87.4453125 95.31640625 C86.09299026 95.3475779 86.09299026 95.3475779 84.71334839 95.37937927 C81.8506386 95.4444458 78.98784181 95.50355914 76.125 95.5625 C74.17707456 95.60572607 72.22915771 95.64934164 70.28125 95.69335938 C65.52092111 95.80008289 60.76050524 95.90146964 56 96 C53.62886971 102.11872079 53.62886971 102.11872079 51.82421875 108.41796875 C51.63907715 109.18713623 51.45393555 109.95630371 51.26318359 110.7487793 C51.07320801 111.55355713 50.88323242 112.35833496 50.6875 113.1875 C48.89408913 120.564656 46.9639177 127.88837595 44.875 135.1875 C44.63354248 136.03530029 44.39208496 136.88310059 44.14331055 137.7565918 C43.4452972 140.17635549 42.72931935 142.58949591 42 145 C41.74379883 145.85029785 41.48759766 146.7005957 41.22363281 147.57666016 C40.96678711 148.39312012 40.70994141 149.20958008 40.4453125 150.05078125 C40.21602051 150.78594971 39.98672852 151.52111816 39.75048828 152.27856445 C39 154 39 154 37 155 C34.04555109 155.12360927 31.11562051 155.18843825 28.16015625 155.203125 C27.28225937 155.20882507 26.40436249 155.21452515 25.49986267 155.22039795 C23.64127815 155.22985151 21.78267684 155.23638334 19.92407227 155.24023438 C17.07734061 155.24994935 14.23132802 155.28097279 11.38476562 155.3125 C9.58073346 155.31902906 7.77669613 155.32427991 5.97265625 155.328125 C5.11946304 155.3404718 4.26626984 155.3528186 3.38722229 155.36553955 C-2.52478752 155.34319797 -2.52478752 155.34319797 -4.75140381 153.73513794 C-6.81870405 150.86227071 -6.04939586 148.55886877 -5.59439087 145.17657471 C-4.31300816 138.32854237 -2.4746794 131.62224563 -0.66796875 124.8984375 C-0.23014989 123.25048942 0.20723563 121.60242615 0.64421082 119.95425415 C1.55791674 116.51531835 2.47726979 113.077956 3.40063477 109.64160156 C4.57856453 105.25580117 5.74155814 100.86620097 6.90025806 96.47528648 C7.79911503 93.07625368 8.70624307 89.67946968 9.61578941 86.28328323 C10.04775228 84.66618852 10.4771137 83.0483964 10.90372658 81.42988205 C15.15866653 65.32105187 15.15866653 65.32105187 19 59 C26.02069385 55.48965307 35.8169152 56.9194591 43.48556709 57.01653099 C45.73581296 57.04350098 47.98595591 57.06116055 50.23631287 57.07600403 C56.6280233 57.11843531 63.01952916 57.16643475 69.41088867 57.24682617 C73.33755239 57.29554382 77.26394343 57.3243939 81.19087029 57.34057045 C82.67755723 57.35041215 84.16421587 57.36753658 85.65072823 57.39235497 C93.66372176 57.52325411 100.11920983 57.543159 107 53 C108.29633621 51.93354885 108.29633621 51.93354885 108.0625 49.4375 C108.041875 48.633125 108.02125 47.82875 108 47 C97.52812771 42.30562486 84.9015135 42.71000333 73.60316086 42.69503975 C71.33208729 42.6912969 69.06142065 42.67437153 66.79043579 42.65428162 C60.34718358 42.59954758 53.90388121 42.56802205 47.46044922 42.54370117 C43.48782612 42.52781972 39.51551181 42.49762817 35.54304886 42.45893669 C34.04002784 42.44732738 32.53695181 42.4413567 31.03388596 42.44125557 C28.94071725 42.44106323 26.84840622 42.42278785 24.75537109 42.40063477 C23.56817474 42.39556412 22.38097839 42.39049347 21.1578064 42.38526917 C17.64981875 41.95727603 15.74366708 41.21543289 13 39 C12.53304262 36.1042578 12.35397088 33.70585914 12.375 30.8125 C12.17171084 23.1230069 11.90018561 17.35810965 6.625 11.25 C4.12486576 9.1070278 1.60731295 7.0113557 -1 5 C-0.67 3.35 -0.34 1.7 0 0 Z " fill="#F1EBD9" transform="translate(447,384)"/>
</svg>
