<?xml version="1.0" encoding="UTF-8"?>
<svg version="1.1" xmlns="http://www.w3.org/2000/svg" width="64" height="64">
<path d="M0 0 C3.756229 3.84784434 3.756229 3.84784434 4.5625 6.625 C4.1875 8.875 4.1875 8.875 3.5625 10.625 C-1.70922612 11.76720733 -1.70922612 11.76720733 -4.4375 11.625 C-6.5625 9.25 -6.5625 9.25 -8.4375 6.625 C-11.9512963 5.42881402 -13.69775752 5.35600273 -17.1875 6.625 C-20.21037372 9.31199886 -21.06119224 11.71139932 -21.4375 15.625 C-21.61038788 24.35692895 -21.61038788 24.35692895 -17.4375 31.625 C-13.80587643 32.61544279 -11.56875961 33.17534251 -8.125 31.5 C-6.18159725 29.34066361 -5.32904354 27.37392592 -4.4375 24.625 C0.0175 25.615 0.0175 25.615 4.5625 26.625 C4.0854205 31.63433477 2.70667521 34.69478099 -0.4375 38.625 C-4.88441358 42.20723594 -9.92219334 42.93359562 -15.484375 42.4453125 C-20.84275394 41.42763588 -25.01857122 38.89216933 -28.4375 34.625 C-31.08752422 29.55350843 -31.91152622 25.36852072 -31.8125 19.625 C-31.82990234 18.61566406 -31.82990234 18.61566406 -31.84765625 17.5859375 C-31.80229606 9.75374422 -28.81673289 4.13230986 -23.4375 -1.375 C-21 -2.6875 -21 -2.6875 -18.4375 -3.375 C-17.07625 -3.74625 -17.07625 -3.74625 -15.6875 -4.125 C-9.91768852 -4.56883165 -4.61257468 -3.65397114 0 0 Z " fill="#210047" transform="translate(45.4375,8.375)"/>
<path d="M0 0 C17.16 0 34.32 0 52 0 C52 2.31 52 4.62 52 7 C34.84 7 17.68 7 0 7 C0 4.69 0 2.38 0 0 Z " fill="#220048" transform="translate(6,52)"/>
</svg>
