<svg id="svg" version="1.1" xmlns="http://www.w3.org/2000/svg" xmlns:xlink="http://www.w3.org/1999/xlink" width="400" height="225" viewBox="0, 0, 400,225"><g id="svgg"><path id="path0" d="M0.000 112.500 L 0.000 225.000 200.000 225.000 L 400.000 225.000 400.000 112.500 L 400.000 0.000 200.000 0.000 L 0.000 0.000 0.000 112.500 M201.377 65.823 C 204.615 68.427,207.629 72.188,209.830 76.368 L 210.770 78.154 212.193 76.702 C 213.560 75.306,213.623 75.209,213.799 74.200 C 214.210 71.854,215.484 70.965,221.622 68.739 C 224.644 67.644,224.511 67.443,223.160 71.046 C 220.943 76.955,219.900 78.333,217.642 78.333 L 216.889 78.333 210.070 85.175 C 206.319 88.938,203.227 92.043,203.198 92.075 C 203.169 92.106,204.329 93.318,205.776 94.768 L 208.406 97.404 208.526 96.827 C 208.785 95.590,209.019 91.734,208.908 90.547 L 208.791 89.298 210.768 87.315 C 211.855 86.225,212.799 85.333,212.866 85.333 C 213.638 85.333,213.929 95.105,213.258 98.500 C 211.678 106.492,207.427 113.571,201.208 118.568 L 199.998 119.539 199.208 118.897 C 191.792 112.879,187.050 104.136,186.334 95.167 C 186.092 92.139,186.567 85.204,187.005 85.368 C 187.076 85.395,188.021 86.278,189.106 87.331 L 191.079 89.245 191.026 91.331 C 190.975 93.346,191.235 96.687,191.476 97.117 C 191.554 97.257,192.466 96.453,194.212 94.705 L 196.830 92.082 189.954 85.208 L 183.077 78.333 182.367 78.333 C 179.964 78.333,178.053 75.379,175.925 68.375 C 175.770 67.865,175.971 67.885,177.962 68.578 C 184.150 70.732,186.167 72.175,186.167 74.447 C 186.167 75.094,188.957 78.452,189.239 78.145 C 189.270 78.111,189.562 77.521,189.887 76.833 C 191.795 72.802,195.599 68.042,198.887 65.570 C 200.096 64.661,199.908 64.641,201.377 65.823 M198.743 72.276 C 196.179 75.217,193.513 79.487,192.927 81.592 C 192.850 81.870,193.510 82.607,196.386 85.458 L 199.941 88.982 203.570 85.449 L 207.200 81.917 206.839 81.000 C 205.846 78.476,203.582 74.922,201.370 72.412 C 199.870 70.711,200.098 70.723,198.743 72.276 M196.460 98.792 C 194.559 100.694,192.961 102.298,192.908 102.358 C 192.455 102.867,196.564 109.651,198.647 111.833 L 199.999 113.250 201.166 112.000 C 202.969 110.068,204.374 107.995,205.845 105.097 L 207.192 102.445 203.639 98.889 C 201.685 96.933,200.048 95.334,200.001 95.334 C 199.955 95.334,198.361 96.891,196.460 98.792 M186.754 105.092 C 187.140 106.096,187.512 107.047,187.579 107.207 C 187.831 107.805,180.907 114.501,180.038 114.500 C 178.697 114.500,177.246 112.702,177.670 111.566 C 177.867 111.036,185.655 103.135,185.900 103.217 C 185.984 103.245,186.368 104.088,186.754 105.092 M218.261 107.232 L 222.333 111.298 222.333 112.059 C 222.333 113.177,221.045 114.500,219.956 114.500 C 219.237 114.500,219.213 114.480,215.825 111.079 C 213.950 109.197,212.417 107.566,212.417 107.454 C 212.417 107.089,213.913 103.171,214.053 103.169 C 214.128 103.168,216.021 104.996,218.261 107.232 M100.500 139.564 C 107.022 141.267,109.923 148.276,106.807 154.805 C 104.924 158.750,102.048 159.826,93.375 159.830 L 87.667 159.833 87.667 149.487 L 87.667 139.141 93.542 139.211 C 98.363 139.269,99.611 139.332,100.500 139.564 M125.004 143.792 C 126.127 146.335,127.479 149.392,128.007 150.583 C 130.852 157.003,132.000 159.630,132.000 159.726 C 132.000 159.785,130.819 159.833,129.375 159.832 L 126.750 159.831 125.910 157.707 L 125.069 155.583 120.482 155.539 L 115.895 155.495 114.989 157.662 L 114.083 159.829 111.542 159.831 C 110.144 159.832,109.000 159.802,109.000 159.764 C 109.000 159.725,109.331 158.957,109.735 158.055 C 110.507 156.335,111.576 153.915,115.503 145.000 C 116.815 142.021,117.960 139.490,118.048 139.375 C 118.162 139.226,118.879 139.167,120.584 139.167 L 122.960 139.167 125.004 143.792 M140.793 149.542 L 140.836 159.833 138.418 159.833 L 136.000 159.833 136.000 149.495 L 136.000 139.158 138.375 139.204 L 140.750 139.250 140.793 149.542 M152.460 147.458 L 152.503 155.667 159.085 155.667 L 165.667 155.667 165.667 157.750 L 165.667 159.833 156.667 159.833 L 147.667 159.833 147.667 149.495 L 147.667 139.158 150.042 139.204 L 152.417 139.250 152.460 147.458 M172.297 141.625 C 173.307 142.977,174.467 144.515,174.877 145.042 L 175.621 146.000 178.188 142.625 L 180.754 139.250 183.627 139.204 C 186.738 139.155,186.722 139.150,186.031 140.004 C 185.773 140.322,185.074 141.221,184.478 142.000 C 183.881 142.779,182.645 144.392,181.729 145.583 C 180.814 146.775,179.563 148.411,178.949 149.219 L 177.833 150.688 177.833 155.261 L 177.833 159.833 175.417 159.833 L 173.000 159.833 173.000 155.191 L 173.000 150.548 171.283 148.316 C 170.339 147.088,168.900 145.221,168.086 144.167 C 165.152 140.367,164.500 139.488,164.500 139.329 C 164.500 139.230,165.662 139.167,167.481 139.167 L 170.462 139.167 172.297 141.625 M213.500 139.570 C 216.866 140.674,218.083 142.382,218.083 146.000 C 218.083 151.286,216.068 152.673,208.208 152.795 L 203.667 152.865 203.667 156.349 L 203.667 159.833 201.167 159.833 L 198.667 159.833 198.667 149.611 C 198.667 143.989,198.722 139.334,198.789 139.266 C 199.080 138.976,212.536 139.253,213.500 139.570 M232.653 139.806 C 232.832 140.158,234.003 142.764,235.254 145.598 C 239.091 154.286,239.264 154.679,240.334 157.083 C 240.905 158.367,241.409 159.510,241.454 159.625 C 241.517 159.786,240.937 159.833,238.882 159.833 L 236.228 159.833 235.322 157.708 L 234.417 155.583 229.820 155.539 L 225.224 155.495 224.402 157.622 L 223.579 159.750 220.956 159.796 C 219.514 159.821,218.333 159.810,218.333 159.771 C 218.333 159.732,218.740 158.811,219.236 157.725 C 220.185 155.650,221.721 152.219,223.330 148.583 C 224.515 145.906,227.048 140.245,227.339 139.625 L 227.554 139.167 229.940 139.167 L 232.327 139.167 232.653 139.806 M259.345 139.403 C 263.002 140.056,264.667 142.115,264.667 145.987 C 264.667 151.319,262.740 152.657,254.875 152.789 L 250.333 152.865 250.333 156.349 L 250.333 159.833 247.919 159.833 L 245.505 159.833 245.461 149.625 C 245.437 144.010,245.440 139.360,245.468 139.292 C 245.565 139.058,257.967 139.158,259.345 139.403 M287.167 141.250 L 287.167 143.333 280.245 143.333 L 273.323 143.333 273.370 145.292 L 273.417 147.250 279.333 147.333 L 285.250 147.417 285.297 149.458 L 285.344 151.500 282.047 151.528 C 280.234 151.543,277.550 151.562,276.083 151.569 L 273.417 151.583 273.417 153.583 L 273.417 155.583 280.292 155.627 L 287.167 155.670 287.167 157.752 L 287.167 159.833 277.833 159.833 L 268.500 159.833 268.500 149.611 C 268.500 143.989,268.550 139.339,268.611 139.278 C 268.672 139.217,272.872 139.167,277.944 139.167 L 287.167 139.167 287.167 141.250 M305.747 139.341 C 309.749 139.920,311.896 142.860,311.315 146.965 C 310.994 149.229,309.352 151.380,307.661 151.751 C 307.009 151.894,306.966 151.798,308.956 154.689 C 311.707 158.684,312.333 159.619,312.333 159.729 C 312.333 159.786,311.040 159.830,309.458 159.827 L 306.583 159.820 304.507 156.618 C 303.366 154.857,302.250 153.173,302.029 152.875 L 301.627 152.333 299.147 152.333 L 296.667 152.333 296.667 156.083 L 296.667 159.833 294.167 159.833 L 291.667 159.833 291.667 149.611 C 291.667 143.989,291.717 139.339,291.778 139.278 C 291.956 139.099,304.467 139.156,305.747 139.341 M92.500 149.500 L 92.500 155.667 95.132 155.667 C 100.928 155.667,103.199 153.752,102.970 149.055 C 102.768 144.896,100.589 143.333,94.992 143.333 L 92.500 143.333 92.500 149.500 M203.667 145.903 L 203.667 148.500 207.542 148.500 C 212.628 148.499,213.082 148.287,213.067 145.915 C 213.052 143.703,212.462 143.434,207.458 143.361 L 203.667 143.306 203.667 145.903 M250.333 145.905 L 250.333 148.500 254.125 148.500 C 259.072 148.499,259.744 148.200,259.744 146.000 C 259.744 143.796,258.960 143.434,254.042 143.364 L 250.333 143.310 250.333 145.905 M296.667 145.654 L 296.667 148.000 300.672 148.000 C 305.831 148.000,306.333 147.800,306.333 145.750 C 306.333 143.657,305.800 143.431,300.708 143.362 L 296.667 143.307 296.667 145.654 M120.186 144.865 C 119.426 146.855,118.306 149.750,118.022 150.458 L 117.672 151.333 120.419 151.333 C 121.930 151.333,123.167 151.269,123.167 151.191 C 123.167 151.112,122.604 149.686,121.917 148.022 C 121.229 146.358,120.667 144.926,120.667 144.841 C 120.667 144.490,120.322 144.508,120.186 144.865 M229.621 145.000 C 229.110 146.210,227.293 150.599,227.153 150.958 L 227.008 151.333 229.820 151.333 L 232.631 151.333 231.397 148.208 C 229.717 143.951,229.913 144.307,229.621 145.000 " stroke="none" fill="#fbfbfb" fill-rule="evenodd"></path><path id="path1" d="M198.333 66.229 C 194.657 69.396,191.689 73.233,189.813 77.242 C 189.180 78.594,189.352 78.630,187.531 76.772 C 186.074 75.288,186.000 75.176,185.996 74.481 C 185.988 72.829,185.066 71.770,182.624 70.608 C 180.974 69.823,176.336 68.108,176.208 68.236 C 176.002 68.443,177.969 73.798,178.991 75.809 C 179.788 77.380,180.909 78.167,182.349 78.167 C 182.996 78.167,183.143 78.264,184.535 79.625 C 185.617 80.683,196.383 91.464,196.986 92.094 C 197.085 92.197,191.739 97.500,191.537 97.500 C 191.156 97.500,190.798 94.312,190.858 91.454 L 190.903 89.325 189.001 87.418 C 187.956 86.369,187.075 85.536,187.044 85.567 C 186.659 85.952,186.289 92.543,186.502 95.228 C 187.196 103.971,191.292 111.778,198.461 118.024 L 200.006 119.369 200.961 118.591 C 210.742 110.627,215.329 98.278,213.060 86.024 L 212.956 85.465 210.968 87.441 L 208.980 89.417 209.084 90.667 C 209.252 92.679,208.794 97.500,208.435 97.500 C 208.331 97.500,207.048 96.300,205.583 94.833 L 202.920 92.166 205.919 89.148 C 207.567 87.488,210.704 84.338,212.890 82.148 L 216.862 78.167 217.646 78.167 C 219.386 78.167,220.451 77.169,221.666 74.400 C 222.525 72.443,224.027 68.304,223.917 68.195 C 223.802 68.080,219.238 69.739,217.600 70.492 C 214.852 71.756,214.161 72.507,213.915 74.500 C 213.806 75.376,213.738 75.481,212.359 76.874 C 210.616 78.634,210.817 78.625,209.987 76.974 C 207.882 72.787,204.897 68.952,201.619 66.220 C 199.843 64.741,200.061 64.740,198.333 66.229 M200.940 71.708 C 203.156 74.069,205.627 77.791,206.732 80.431 L 207.348 81.901 203.674 85.575 L 200.001 89.248 196.335 85.585 C 193.408 82.660,192.688 81.854,192.762 81.586 C 193.396 79.303,196.641 74.238,199.146 71.625 C 200.073 70.657,199.948 70.652,200.940 71.708 M203.730 98.796 L 207.313 102.341 207.054 102.962 C 205.590 106.467,202.886 110.617,200.682 112.743 L 199.997 113.404 198.986 112.410 C 196.743 110.208,193.914 105.741,192.776 102.608 C 192.667 102.308,199.722 95.119,200.031 95.215 C 200.094 95.234,201.759 96.846,203.730 98.796 M181.774 107.448 C 176.990 112.232,177.094 112.038,178.542 113.446 C 180.151 115.013,180.141 115.018,184.314 110.726 L 187.518 107.432 186.700 105.386 L 185.882 103.341 181.774 107.448 M213.325 105.207 C 212.917 106.239,212.558 107.185,212.526 107.309 C 212.459 107.572,218.696 113.908,219.374 114.266 C 220.526 114.874,222.866 112.598,222.188 111.528 C 222.065 111.334,216.465 105.664,214.710 103.957 L 214.067 103.331 213.325 105.207 M87.833 149.585 L 87.833 159.866 93.542 159.792 C 99.954 159.710,100.735 159.595,102.990 158.410 C 109.607 154.933,109.510 143.898,102.833 140.607 C 100.546 139.480,100.386 139.458,93.792 139.377 L 87.833 139.304 87.833 149.585 M117.811 140.120 C 117.620 140.558,117.220 141.479,116.922 142.167 C 116.196 143.838,114.033 148.735,112.836 151.417 C 110.861 155.839,109.167 159.695,109.167 159.768 C 109.167 159.809,110.232 159.822,111.535 159.796 L 113.903 159.750 114.823 157.667 C 115.967 155.076,115.315 155.339,120.604 155.336 L 125.124 155.333 126.020 157.542 L 126.917 159.750 129.375 159.796 C 130.727 159.821,131.833 159.795,131.833 159.737 C 131.833 159.640,128.641 152.328,126.892 148.417 C 126.482 147.500,125.416 145.100,124.524 143.083 L 122.901 139.417 120.530 139.370 L 118.159 139.324 117.811 140.120 M136.167 149.583 L 136.167 159.833 138.417 159.833 L 140.667 159.833 140.667 149.583 L 140.667 139.333 138.417 139.333 L 136.167 139.333 136.167 149.583 M147.749 139.708 C 147.699 139.915,147.679 144.508,147.704 149.917 L 147.750 159.750 156.625 159.793 L 165.500 159.836 165.500 157.835 L 165.500 155.833 158.917 155.833 L 152.333 155.833 152.333 147.583 L 152.333 139.333 150.087 139.333 C 147.895 139.333,147.837 139.342,147.749 139.708 M164.923 139.792 C 165.085 140.044,165.494 140.587,165.830 141.000 C 166.167 141.412,167.445 143.063,168.671 144.667 C 169.896 146.271,171.409 148.248,172.033 149.061 L 173.167 150.538 173.167 155.190 L 173.167 159.843 175.458 159.796 L 177.750 159.750 177.833 155.034 L 177.917 150.318 179.291 148.534 C 184.315 142.011,186.165 139.568,186.166 139.458 C 186.166 139.390,184.967 139.333,183.501 139.333 L 180.836 139.333 178.293 142.743 C 176.894 144.618,175.705 146.155,175.651 146.159 C 175.596 146.163,174.396 144.632,172.984 142.757 L 170.417 139.348 167.522 139.341 L 164.628 139.333 164.923 139.792 M198.944 139.444 C 198.784 139.605,198.812 159.376,198.974 159.630 C 199.075 159.790,199.652 159.832,201.263 159.797 L 203.417 159.750 203.462 156.208 L 203.507 152.667 207.745 152.667 C 215.715 152.667,217.988 151.189,218.000 146.000 C 218.008 142.217,216.125 140.045,212.362 139.501 C 211.118 139.321,199.118 139.270,198.944 139.444 M227.405 139.856 C 227.256 140.144,226.888 140.950,226.586 141.648 C 226.285 142.346,225.812 143.404,225.535 144.000 C 225.064 145.015,218.735 159.172,218.550 159.625 C 218.484 159.786,219.018 159.833,220.903 159.833 C 223.278 159.833,223.345 159.824,223.484 159.458 C 223.563 159.252,223.982 158.238,224.416 157.204 L 225.204 155.325 229.771 155.339 C 235.086 155.355,234.332 155.016,235.592 157.958 L 236.395 159.833 238.864 159.833 C 240.222 159.833,241.333 159.802,241.333 159.763 C 241.333 159.724,240.741 158.356,240.016 156.721 C 236.569 148.945,232.817 140.451,232.596 139.922 L 232.350 139.333 230.013 139.333 L 227.675 139.333 227.405 139.856 M245.540 149.542 L 245.583 159.750 247.875 159.796 L 250.167 159.843 250.167 156.255 L 250.167 152.667 254.394 152.667 C 260.109 152.667,261.617 152.305,263.149 150.564 C 264.961 148.505,265.074 143.815,263.363 141.672 C 261.712 139.604,260.381 139.336,251.790 139.334 L 245.497 139.333 245.540 149.542 M268.667 149.583 L 268.667 159.836 277.875 159.793 L 287.083 159.750 287.130 157.793 L 287.177 155.837 280.214 155.793 L 273.250 155.750 273.203 153.774 C 273.139 151.077,272.491 151.333,279.354 151.333 L 285.167 151.333 285.167 149.419 L 285.167 147.504 279.208 147.460 L 273.250 147.417 273.250 145.333 L 273.250 143.250 280.214 143.207 L 287.178 143.163 287.130 141.290 L 287.083 139.417 277.875 139.374 L 268.667 139.331 268.667 149.583 M291.910 139.542 C 291.866 139.656,291.850 144.250,291.873 149.750 L 291.917 159.750 294.167 159.750 L 296.417 159.750 296.461 155.958 L 296.506 152.167 299.132 152.167 L 301.757 152.167 303.503 154.834 C 304.464 156.301,305.612 158.026,306.053 158.668 L 306.857 159.833 309.512 159.833 C 310.972 159.833,312.167 159.792,312.167 159.742 C 312.167 159.634,311.054 157.976,308.717 154.605 C 306.694 151.685,306.758 151.961,307.978 151.413 C 310.103 150.460,311.030 148.910,311.135 146.138 C 311.280 142.325,309.530 140.066,306.000 139.507 C 304.351 139.246,292.011 139.276,291.910 139.542 M98.664 143.426 C 101.658 144.132,103.084 146.091,103.083 149.500 C 103.082 154.073,101.082 155.718,95.500 155.739 L 92.417 155.750 92.373 149.667 C 92.349 146.322,92.365 143.491,92.409 143.376 C 92.531 143.059,97.267 143.097,98.664 143.426 M211.912 143.583 C 213.538 144.402,213.755 147.142,212.280 148.235 C 211.837 148.563,211.566 148.586,207.655 148.633 L 203.500 148.683 203.500 146.036 C 203.500 144.580,203.556 143.333,203.624 143.265 C 203.933 142.956,211.223 143.236,211.912 143.583 M258.414 143.583 C 260.383 144.571,260.362 147.594,258.380 148.438 C 257.978 148.610,256.885 148.667,254.005 148.667 L 250.167 148.667 250.167 145.905 L 250.167 143.144 253.958 143.197 C 257.354 143.244,257.819 143.285,258.414 143.583 M305.316 143.583 C 306.878 144.503,307.042 146.686,305.625 147.697 C 305.097 148.073,304.972 148.085,300.792 148.135 L 296.500 148.187 296.500 145.788 C 296.500 144.468,296.556 143.333,296.624 143.265 C 296.937 142.952,304.728 143.237,305.316 143.583 M121.983 147.760 C 122.726 149.598,123.333 151.192,123.333 151.301 C 123.333 151.448,122.559 151.500,120.399 151.500 C 117.671 151.500,117.473 151.479,117.581 151.208 C 117.645 151.048,117.913 150.336,118.177 149.627 C 118.441 148.918,118.984 147.530,119.385 146.544 C 119.785 145.557,120.165 144.606,120.228 144.430 C 120.408 143.934,120.537 144.178,121.983 147.760 M231.323 147.662 C 232.062 149.534,232.667 151.164,232.667 151.283 C 232.667 151.453,232.031 151.500,229.732 151.500 C 227.451 151.500,226.816 151.454,226.882 151.292 C 227.814 148.980,229.705 144.407,229.774 144.295 C 229.912 144.072,229.877 143.996,231.323 147.662 " stroke="none" fill="#060606" fill-rule="evenodd"></path><path id="path2" d="M196.078 68.208 L 195.083 69.250 196.125 68.255 C 196.698 67.708,197.167 67.239,197.167 67.214 C 197.167 67.090,197.002 67.241,196.078 68.208 M186.039 74.667 C 186.039 74.987,186.073 75.119,186.115 74.958 C 186.157 74.798,186.157 74.535,186.115 74.375 C 186.073 74.215,186.039 74.346,186.039 74.667 M187.583 76.833 C 188.405 77.658,189.114 78.333,189.160 78.333 C 189.206 78.333,188.571 77.658,187.750 76.833 C 186.929 76.008,186.219 75.333,186.174 75.333 C 186.128 75.333,186.762 76.008,187.583 76.833 M212.910 76.208 L 212.083 77.083 212.958 76.256 C 213.440 75.801,213.833 75.408,213.833 75.381 C 213.833 75.257,213.679 75.395,212.910 76.208 M211.324 77.792 L 210.750 78.417 211.375 77.842 C 211.719 77.526,212.000 77.245,212.000 77.217 C 212.000 77.090,211.859 77.210,211.324 77.792 M182.208 78.282 C 182.369 78.323,182.631 78.323,182.792 78.282 C 182.952 78.240,182.821 78.205,182.500 78.205 C 182.179 78.205,182.048 78.240,182.208 78.282 M217.127 78.285 C 217.334 78.324,217.634 78.323,217.794 78.281 C 217.953 78.239,217.783 78.207,217.417 78.209 C 217.050 78.211,216.920 78.245,217.127 78.285 M213.661 81.292 L 212.750 82.250 213.708 81.339 C 214.235 80.838,214.667 80.407,214.667 80.381 C 214.667 80.257,214.507 80.401,213.661 81.292 M202.626 86.456 L 200.003 89.079 198.460 87.582 L 196.917 86.086 198.459 87.667 L 200.000 89.248 202.708 86.541 C 204.197 85.052,205.378 83.833,205.332 83.833 C 205.286 83.833,204.068 85.014,202.626 86.456 M210.831 87.458 L 208.917 89.417 210.875 87.503 C 211.952 86.450,212.833 85.569,212.833 85.544 C 212.833 85.424,212.608 85.639,210.831 87.458 M190.083 88.500 C 190.535 88.958,190.942 89.333,190.987 89.333 C 191.033 89.333,190.701 88.958,190.250 88.500 C 189.799 88.042,189.392 87.667,189.346 87.667 C 189.300 87.667,189.632 88.042,190.083 88.500 M193.000 88.219 C 193.000 88.248,193.244 88.491,193.542 88.760 L 194.083 89.250 193.594 88.708 C 193.138 88.203,193.000 88.090,193.000 88.219 M213.372 88.667 C 213.372 88.987,213.406 89.119,213.448 88.958 C 213.490 88.798,213.490 88.535,213.448 88.375 C 213.406 88.215,213.372 88.346,213.372 88.667 M190.899 92.083 C 190.899 93.367,190.926 93.870,190.957 93.201 C 190.989 92.532,190.989 91.482,190.957 90.868 C 190.925 90.253,190.899 90.800,190.899 92.083 M186.385 90.917 C 186.386 91.467,186.417 91.672,186.454 91.372 C 186.491 91.072,186.490 90.622,186.452 90.372 C 186.414 90.122,186.384 90.367,186.385 90.917 M196.000 91.250 C 196.498 91.754,196.943 92.167,196.989 92.167 C 197.034 92.167,196.665 91.754,196.167 91.250 C 195.669 90.746,195.224 90.333,195.178 90.333 C 195.132 90.333,195.502 90.746,196.000 91.250 M213.566 92.750 C 213.566 94.033,213.592 94.536,213.624 93.868 C 213.656 93.199,213.655 92.149,213.623 91.534 C 213.591 90.920,213.565 91.467,213.566 92.750 M209.056 91.833 C 209.056 92.521,209.085 92.802,209.121 92.458 C 209.157 92.115,209.157 91.552,209.121 91.208 C 209.085 90.865,209.056 91.146,209.056 91.833 M203.000 92.099 C 203.000 92.184,204.219 93.453,205.708 94.919 L 208.417 97.583 205.750 94.839 C 204.283 93.330,203.065 92.061,203.042 92.020 C 203.019 91.978,203.000 92.014,203.000 92.099 M195.578 93.542 L 194.583 94.583 195.625 93.589 C 196.593 92.664,196.743 92.500,196.620 92.500 C 196.594 92.500,196.125 92.969,195.578 93.542 M186.379 94.667 C 186.379 95.079,186.411 95.248,186.451 95.042 C 186.491 94.835,186.491 94.498,186.451 94.292 C 186.411 94.085,186.379 94.254,186.379 94.667 M208.872 94.833 C 208.872 95.154,208.906 95.285,208.948 95.125 C 208.990 94.965,208.990 94.702,208.948 94.542 C 208.906 94.381,208.872 94.513,208.872 94.833 M193.244 95.875 L 192.417 96.750 193.292 95.923 C 193.773 95.468,194.167 95.074,194.167 95.048 C 194.167 94.924,194.012 95.062,193.244 95.875 M200.660 95.875 C 201.350 96.611,201.500 96.743,201.500 96.618 C 201.500 96.591,201.144 96.235,200.708 95.826 L 199.917 95.083 200.660 95.875 M193.500 101.417 C 193.095 101.829,192.801 102.167,192.847 102.167 C 192.893 102.167,193.262 101.829,193.667 101.417 C 194.072 101.004,194.365 100.667,194.319 100.667 C 194.274 100.667,193.905 101.004,193.500 101.417 M185.158 103.958 L 184.583 104.583 185.208 104.009 C 185.790 103.474,185.910 103.333,185.783 103.333 C 185.755 103.333,185.474 103.615,185.158 103.958 M214.667 103.917 C 214.978 104.237,215.270 104.500,215.315 104.500 C 215.361 104.500,215.144 104.237,214.833 103.917 C 214.522 103.596,214.230 103.333,214.185 103.333 C 214.139 103.333,214.356 103.596,214.667 103.917 M216.583 105.833 C 217.220 106.475,217.779 107.000,217.824 107.000 C 217.870 107.000,217.387 106.475,216.750 105.833 C 216.113 105.192,215.555 104.667,215.509 104.667 C 215.463 104.667,215.947 105.192,216.583 105.833 M183.244 105.875 L 182.417 106.750 183.292 105.923 C 183.773 105.468,184.167 105.074,184.167 105.048 C 184.167 104.924,184.012 105.062,183.244 105.875 M220.000 109.250 C 221.143 110.396,222.116 111.333,222.162 111.333 C 222.207 111.333,221.310 110.396,220.167 109.250 C 219.024 108.104,218.051 107.167,218.005 107.167 C 217.959 107.167,218.857 108.104,220.000 109.250 M180.744 108.375 L 179.917 109.250 180.792 108.423 C 181.273 107.968,181.667 107.574,181.667 107.548 C 181.667 107.424,181.512 107.562,180.744 108.375 M186.410 108.542 L 185.583 109.417 186.458 108.590 C 186.940 108.135,187.333 107.741,187.333 107.715 C 187.333 107.590,187.179 107.729,186.410 108.542 M178.409 110.708 L 177.750 111.417 178.458 110.758 C 178.848 110.395,179.167 110.077,179.167 110.050 C 179.167 109.923,179.022 110.050,178.409 110.708 M201.324 111.958 L 200.750 112.583 201.375 112.009 C 201.957 111.474,202.077 111.333,201.949 111.333 C 201.922 111.333,201.640 111.615,201.324 111.958 M178.493 113.542 C 179.184 114.278,179.333 114.410,179.333 114.285 C 179.333 114.258,178.977 113.902,178.542 113.493 L 177.750 112.750 178.493 113.542 M221.409 113.542 L 220.750 114.250 221.458 113.591 C 222.117 112.978,222.243 112.833,222.117 112.833 C 222.090 112.833,221.771 113.152,221.409 113.542 M218.000 113.219 C 218.000 113.248,218.244 113.491,218.542 113.760 L 219.083 114.250 218.594 113.708 C 218.138 113.203,218.000 113.090,218.000 113.219 M204.573 115.208 L 204.083 115.750 204.625 115.260 C 205.130 114.804,205.243 114.667,205.115 114.667 C 205.086 114.667,204.842 114.910,204.573 115.208 M202.909 116.875 L 202.250 117.583 202.958 116.925 C 203.617 116.312,203.743 116.167,203.617 116.167 C 203.590 116.167,203.271 116.485,202.909 116.875 M87.745 149.583 C 87.745 155.267,87.766 157.616,87.792 154.804 C 87.817 151.992,87.817 147.342,87.792 144.470 C 87.766 141.599,87.745 143.900,87.745 149.583 M136.078 149.583 C 136.078 155.267,136.099 157.616,136.125 154.804 C 136.150 151.992,136.151 147.342,136.125 144.470 C 136.099 141.599,136.078 143.900,136.078 149.583 M92.391 143.424 C 92.337 143.565,92.339 143.728,92.396 143.785 C 92.453 143.842,92.500 143.766,92.500 143.615 C 92.500 143.375,92.828 143.336,95.208 143.291 L 97.917 143.241 95.203 143.204 C 92.888 143.172,92.475 143.204,92.391 143.424 M205.375 143.291 C 206.360 143.321,207.973 143.321,208.958 143.291 C 209.944 143.262,209.137 143.237,207.167 143.237 C 205.196 143.237,204.390 143.262,205.375 143.291 M251.866 143.291 C 252.846 143.320,254.496 143.320,255.532 143.291 C 256.569 143.262,255.767 143.238,253.750 143.238 C 251.733 143.238,250.885 143.262,251.866 143.291 M273.239 143.385 C 273.193 143.505,273.176 144.462,273.203 145.510 L 273.250 147.417 279.083 147.420 L 284.917 147.423 279.125 147.376 L 273.333 147.329 273.333 145.333 L 273.333 143.337 280.208 143.292 L 287.083 143.246 280.203 143.206 C 274.653 143.174,273.307 143.209,273.239 143.385 M298.551 143.291 C 299.633 143.320,301.358 143.320,302.384 143.291 C 303.410 143.262,302.525 143.238,300.417 143.238 C 298.308 143.238,297.469 143.262,298.551 143.291 M311.221 145.750 C 311.222 146.392,311.252 146.634,311.288 146.288 C 311.324 145.942,311.324 145.417,311.287 145.121 C 311.250 144.825,311.221 145.108,311.221 145.750 M218.052 145.917 C 218.053 146.467,218.084 146.672,218.121 146.372 C 218.158 146.072,218.157 145.622,218.119 145.372 C 218.081 145.122,218.051 145.367,218.052 145.917 M107.875 149.417 C 107.877 149.783,107.911 149.914,107.951 149.706 C 107.991 149.499,107.990 149.199,107.948 149.040 C 107.906 148.880,107.874 149.050,107.875 149.417 M309.573 150.375 L 309.083 150.917 309.625 150.427 C 310.130 149.971,310.243 149.833,310.115 149.833 C 310.086 149.833,309.842 150.077,309.573 150.375 M276.375 151.458 C 278.002 151.485,280.665 151.485,282.292 151.458 C 283.919 151.431,282.587 151.408,279.333 151.408 C 276.079 151.408,274.748 151.431,276.375 151.458 M273.196 153.615 C 273.180 154.733,273.223 155.682,273.292 155.725 C 273.360 155.768,273.397 155.153,273.372 154.360 C 273.293 151.814,273.226 151.528,273.196 153.615 M118.302 155.458 C 119.614 155.486,121.714 155.486,122.968 155.458 C 124.223 155.430,123.150 155.407,120.583 155.407 C 118.017 155.407,116.990 155.430,118.302 155.458 M227.292 155.458 C 228.506 155.486,230.494 155.486,231.708 155.458 C 232.923 155.429,231.929 155.406,229.500 155.406 C 227.071 155.406,226.077 155.429,227.292 155.458 M165.564 157.833 C 165.564 158.979,165.591 159.448,165.623 158.875 C 165.656 158.302,165.656 157.365,165.623 156.792 C 165.591 156.219,165.564 156.688,165.564 157.833 " stroke="none" fill="#747474" fill-rule="evenodd"></path><path id="path3" d="M202.000 66.385 C 202.000 66.414,202.244 66.658,202.542 66.927 L 203.083 67.417 202.594 66.875 C 202.138 66.370,202.000 66.257,202.000 66.385 M204.167 68.552 C 204.167 68.581,204.410 68.825,204.708 69.094 L 205.250 69.583 204.760 69.042 C 204.304 68.537,204.167 68.423,204.167 68.552 M213.692 74.747 C 213.672 75.132,213.320 75.601,212.126 76.830 L 210.586 78.417 212.223 76.819 C 213.677 75.400,213.853 75.166,213.789 74.735 L 213.717 74.250 213.692 74.747 M215.658 79.458 L 215.083 80.083 215.708 79.509 C 216.052 79.193,216.333 78.912,216.333 78.884 C 216.333 78.757,216.192 78.877,215.658 79.458 M187.167 82.417 C 188.769 84.021,190.117 85.333,190.163 85.333 C 190.209 85.333,188.936 84.021,187.333 82.417 C 185.731 80.813,184.383 79.500,184.337 79.500 C 184.291 79.500,185.564 80.813,187.167 82.417 M213.745 81.375 L 212.750 82.417 213.792 81.422 C 214.759 80.498,214.910 80.333,214.786 80.333 C 214.761 80.333,214.292 80.802,213.745 81.375 M193.833 83.083 C 194.424 83.679,194.945 84.167,194.990 84.167 C 195.036 84.167,194.591 83.679,194.000 83.083 C 193.409 82.487,192.889 82.000,192.843 82.000 C 192.797 82.000,193.243 82.487,193.833 83.083 M209.000 86.083 C 207.214 87.871,205.791 89.333,205.837 89.333 C 205.882 89.333,207.381 87.871,209.167 86.083 C 210.952 84.296,212.376 82.833,212.330 82.833 C 212.284 82.833,210.786 84.296,209.000 86.083 M210.778 87.305 L 208.811 89.277 208.877 90.013 L 208.942 90.750 208.971 89.991 C 208.999 89.255,209.059 89.174,210.974 87.283 C 212.059 86.211,212.902 85.333,212.846 85.333 C 212.790 85.333,211.860 86.221,210.778 87.305 M200.828 88.125 L 199.917 89.083 200.875 88.172 C 201.765 87.326,201.910 87.167,201.786 87.167 C 201.760 87.167,201.329 87.598,200.828 88.125 M186.223 92.833 C 186.223 93.521,186.252 93.802,186.288 93.458 C 186.324 93.115,186.324 92.552,186.288 92.208 C 186.252 91.865,186.223 92.146,186.223 92.833 M194.171 94.745 C 192.434 96.486,191.555 97.258,191.468 97.120 C 191.378 96.979,191.338 97.006,191.336 97.208 C 191.331 97.719,191.534 97.554,194.250 94.833 C 195.715 93.367,196.875 92.167,196.829 92.167 C 196.783 92.167,195.587 93.327,194.171 94.745 M208.872 93.500 C 208.872 93.821,208.906 93.952,208.948 93.792 C 208.990 93.631,208.990 93.369,208.948 93.208 C 208.906 93.048,208.872 93.179,208.872 93.500 M196.663 98.458 L 195.250 99.917 196.708 98.504 C 197.510 97.727,198.167 97.070,198.167 97.045 C 198.167 96.924,197.975 97.104,196.663 98.458 M205.417 100.667 C 206.330 101.583,207.115 102.333,207.160 102.333 C 207.206 102.333,206.497 101.583,205.583 100.667 C 204.670 99.750,203.885 99.000,203.840 99.000 C 203.794 99.000,204.503 99.750,205.417 100.667 M194.078 101.042 L 193.083 102.083 194.125 101.089 C 194.698 100.541,195.167 100.073,195.167 100.047 C 195.167 99.924,195.002 100.074,194.078 101.042 M181.749 107.208 L 177.750 111.250 181.773 107.270 C 184.492 104.580,185.864 103.333,186.007 103.421 C 186.145 103.506,186.177 103.484,186.099 103.359 C 185.894 103.026,185.833 103.080,181.749 107.208 M218.333 107.385 C 218.333 107.414,218.577 107.658,218.875 107.927 L 219.417 108.417 218.927 107.875 C 218.471 107.370,218.333 107.257,218.333 107.385 M213.667 108.917 C 214.442 109.696,215.113 110.333,215.159 110.333 C 215.205 110.333,214.608 109.696,213.833 108.917 C 213.058 108.138,212.387 107.500,212.341 107.500 C 212.295 107.500,212.892 108.138,213.667 108.917 M186.077 109.042 L 185.250 109.917 186.125 109.090 C 186.606 108.635,187.000 108.241,187.000 108.215 C 187.000 108.090,186.846 108.229,186.077 109.042 M221.250 110.333 C 221.608 110.700,221.938 111.000,221.984 111.000 C 222.030 111.000,221.775 110.700,221.417 110.333 C 221.059 109.967,220.728 109.667,220.682 109.667 C 220.637 109.667,220.892 109.967,221.250 110.333 M183.500 111.583 C 182.817 112.271,182.296 112.833,182.342 112.833 C 182.388 112.833,182.984 112.271,183.667 111.583 C 184.350 110.896,184.871 110.333,184.825 110.333 C 184.779 110.333,184.183 110.896,183.500 111.583 M199.202 112.584 C 199.635 113.033,200.014 113.367,200.045 113.325 C 200.076 113.284,199.722 112.916,199.259 112.508 L 198.417 111.767 199.202 112.584 M178.417 113.667 C 178.775 114.033,179.105 114.333,179.151 114.333 C 179.197 114.333,178.941 114.033,178.583 113.667 C 178.225 113.300,177.895 113.000,177.849 113.000 C 177.803 113.000,178.059 113.300,178.417 113.667 M196.417 116.333 C 196.961 116.883,197.444 117.333,197.490 117.333 C 197.535 117.333,197.128 116.883,196.583 116.333 C 196.039 115.783,195.556 115.333,195.510 115.333 C 195.465 115.333,195.872 115.783,196.417 116.333 M203.744 116.208 L 202.917 117.083 203.792 116.256 C 204.273 115.801,204.667 115.408,204.667 115.381 C 204.667 115.257,204.512 115.395,203.744 116.208 M90.386 139.291 C 91.927 139.319,94.402 139.319,95.886 139.291 C 97.369 139.264,96.108 139.241,93.083 139.241 C 90.058 139.241,88.844 139.264,90.386 139.291 M119.383 139.291 C 120.097 139.322,121.222 139.322,121.883 139.290 C 122.543 139.259,121.958 139.233,120.583 139.233 C 119.208 139.234,118.668 139.259,119.383 139.291 M136.750 139.278 C 138.775 139.400,140.796 139.406,140.725 139.292 C 140.682 139.223,139.583 139.181,138.282 139.197 C 136.981 139.214,136.292 139.251,136.750 139.278 M149.957 139.289 L 152.330 139.342 152.376 147.421 L 152.421 155.500 152.419 147.375 L 152.417 139.250 150.000 139.243 L 147.583 139.235 149.957 139.289 M167.404 139.292 C 169.441 139.325,170.476 139.406,170.654 139.546 C 170.886 139.726,170.890 139.716,170.688 139.458 C 170.483 139.197,170.144 139.171,167.438 139.204 L 164.417 139.242 167.404 139.292 M181.667 139.280 C 183.873 139.400,186.501 139.406,186.500 139.292 C 186.500 139.223,185.206 139.181,183.625 139.198 C 182.044 139.216,181.162 139.252,181.667 139.280 M198.743 139.375 C 198.699 139.490,198.684 144.158,198.708 149.750 L 198.753 159.917 198.793 149.627 L 198.833 139.337 205.292 139.292 L 211.750 139.246 205.286 139.206 C 200.240 139.175,198.805 139.212,198.743 139.375 M228.716 139.291 C 229.431 139.322,230.556 139.322,231.216 139.290 C 231.876 139.259,231.292 139.233,229.917 139.233 C 228.542 139.234,228.001 139.259,228.716 139.291 M245.444 139.278 C 245.383 139.339,245.334 139.470,245.336 139.569 C 245.337 139.678,245.391 139.668,245.469 139.544 C 245.569 139.387,247.138 139.326,252.009 139.292 L 258.417 139.246 251.986 139.206 C 248.449 139.184,245.506 139.217,245.444 139.278 M268.577 139.375 C 268.533 139.490,268.517 144.158,268.541 149.750 L 268.586 159.917 268.626 149.626 L 268.667 139.336 277.958 139.292 L 287.250 139.247 277.953 139.207 C 270.639 139.175,268.639 139.211,268.577 139.375 M291.743 139.375 C 291.699 139.490,291.684 144.158,291.708 149.750 L 291.753 159.917 291.793 149.627 L 291.833 139.337 298.458 139.292 L 305.083 139.246 298.453 139.206 C 293.273 139.175,291.805 139.212,291.743 139.375 M203.577 145.958 L 203.583 148.583 207.292 148.588 L 211.000 148.593 207.338 148.543 L 203.675 148.494 203.623 145.913 L 203.570 143.333 203.577 145.958 M250.243 145.958 L 250.250 148.583 253.833 148.588 L 257.417 148.593 253.879 148.543 L 250.342 148.494 250.289 145.913 L 250.237 143.333 250.243 145.958 M296.576 145.667 L 296.583 148.083 300.500 148.088 L 304.417 148.093 300.546 148.043 L 296.676 147.994 296.622 145.622 L 296.569 143.250 296.576 145.667 M306.381 145.750 C 306.382 146.208,306.415 146.376,306.453 146.123 C 306.491 145.869,306.490 145.494,306.451 145.289 C 306.411 145.084,306.380 145.292,306.381 145.750 M285.231 149.500 C 285.231 150.646,285.258 151.115,285.290 150.542 C 285.323 149.969,285.323 149.031,285.290 148.458 C 285.258 147.885,285.231 148.354,285.231 149.500 M103.050 149.500 C 103.050 150.004,103.081 150.210,103.119 149.958 C 103.158 149.706,103.158 149.294,103.119 149.042 C 103.081 148.790,103.050 148.996,103.050 149.500 M173.073 155.250 C 173.073 157.817,173.096 158.843,173.125 157.532 C 173.153 156.220,173.153 154.120,173.125 152.865 C 173.096 151.610,173.073 152.683,173.073 155.250 M123.167 151.163 C 123.167 151.260,122.045 151.345,120.375 151.375 L 117.583 151.425 120.458 151.463 C 122.919 151.495,123.333 151.464,123.333 151.250 C 123.333 151.112,123.296 151.000,123.250 151.000 C 123.204 151.000,123.167 151.073,123.167 151.163 M228.375 151.457 C 229.177 151.488,230.490 151.488,231.292 151.457 C 232.094 151.427,231.438 151.402,229.833 151.402 C 228.229 151.402,227.573 151.427,228.375 151.457 M277.792 151.618 C 277.998 151.657,278.335 151.657,278.542 151.618 C 278.748 151.578,278.579 151.545,278.167 151.545 C 277.754 151.545,277.585 151.578,277.792 151.618 M296.575 152.379 C 296.530 152.496,296.515 154.239,296.542 156.254 L 296.590 159.917 296.628 156.125 L 296.667 152.333 299.133 152.333 C 300.871 152.333,301.669 152.395,301.834 152.542 C 302.032 152.719,302.034 152.706,301.847 152.458 C 301.562 152.083,296.716 152.010,296.575 152.379 M203.571 156.333 C 203.571 158.304,203.595 159.110,203.624 158.125 C 203.654 157.140,203.654 155.527,203.624 154.542 C 203.595 153.556,203.571 154.362,203.571 156.333 M250.237 156.333 C 250.237 158.304,250.262 159.110,250.291 158.125 C 250.321 157.140,250.321 155.527,250.291 154.542 C 250.262 153.556,250.237 154.362,250.237 156.333 M105.240 156.875 L 104.750 157.417 105.292 156.927 C 105.590 156.658,105.833 156.414,105.833 156.385 C 105.833 156.257,105.696 156.370,105.240 156.875 " stroke="none" fill="#9b9b9b" fill-rule="evenodd"></path><path id="path4" d="M205.909 83.208 L 205.250 83.917 205.958 83.258 C 206.348 82.895,206.667 82.577,206.667 82.550 C 206.667 82.423,206.522 82.550,205.909 83.208 M196.333 85.583 C 196.644 85.904,196.936 86.167,196.982 86.167 C 197.028 86.167,196.811 85.904,196.500 85.583 C 196.189 85.262,195.897 85.000,195.851 85.000 C 195.805 85.000,196.022 85.262,196.333 85.583 M203.573 91.542 L 203.083 92.083 203.625 91.594 C 204.130 91.138,204.243 91.000,204.115 91.000 C 204.086 91.000,203.842 91.244,203.573 91.542 M140.745 149.583 C 140.745 155.175,140.766 157.438,140.792 154.613 C 140.817 151.788,140.817 147.213,140.792 144.446 C 140.766 141.680,140.745 143.992,140.745 149.583 M92.408 149.417 C 92.408 152.533,92.431 153.785,92.458 152.198 C 92.486 150.611,92.485 148.061,92.458 146.531 C 92.431 145.001,92.408 146.300,92.408 149.417 M205.551 152.791 C 206.633 152.820,208.358 152.820,209.384 152.791 C 210.410 152.762,209.525 152.738,207.417 152.738 C 205.308 152.738,204.469 152.762,205.551 152.791 M252.218 152.791 C 253.300 152.820,255.025 152.820,256.051 152.791 C 257.077 152.762,256.192 152.738,254.083 152.738 C 251.975 152.738,251.135 152.762,252.218 152.791 M152.477 155.710 C 152.547 155.780,155.524 155.818,159.094 155.794 L 165.583 155.750 158.967 155.667 C 155.327 155.621,152.407 155.640,152.477 155.710 M93.625 155.790 C 94.290 155.822,95.377 155.822,96.042 155.790 C 96.706 155.759,96.162 155.733,94.833 155.733 C 93.504 155.733,92.960 155.759,93.625 155.790 M276.886 155.792 C 278.794 155.818,281.869 155.818,283.719 155.791 C 285.570 155.765,284.008 155.743,280.250 155.743 C 276.492 155.743,274.978 155.765,276.886 155.792 " stroke="none" fill="#7c7c7c" fill-rule="evenodd"></path></g></svg>