<svg version="1.1" id="Layer_1" xmlns="http://www.w3.org/2000/svg" xmlns:xlink="http://www.w3.org/1999/xlink" x="0px" y="0px"
	 width="100%" viewBox="0 0 356 356" enable-background="new 0 0 356 356" xml:space="preserve">
<path fill="#FDFDFE" opacity="1.000000" stroke="none" 
	d="
M203.000000,357.000000 
	C135.333344,357.000000 68.166687,357.000000 1.000027,357.000000 
	C1.000018,238.333374 1.000018,119.666733 1.000009,1.000075 
	C119.666618,1.000050 238.333237,1.000050 356.999878,1.000025 
	C356.999939,119.666595 356.999939,238.333191 356.999969,356.999878 
	C305.833344,357.000000 254.666672,357.000000 203.000000,357.000000 
M185.265961,304.440704 
	C177.958679,301.501984 182.216690,295.420349 181.258469,290.458252 
	C180.178497,290.458252 178.832550,290.458252 177.808136,290.458252 
	C177.950089,293.632324 178.084534,296.432770 178.198669,299.234039 
	C178.419266,304.648895 180.316345,306.313110 186.790619,306.067963 
	C193.862671,303.492004 190.154724,297.428833 190.946625,292.854584 
	C191.046921,292.275269 189.805389,291.463623 188.774185,290.292450 
	C188.387817,295.966522 191.269714,301.133942 185.265961,304.440704 
M145.525192,69.286079 
	C149.469620,60.843674 147.996399,58.515007 138.344284,59.109058 
	C135.799683,59.890034 133.255081,60.671009 132.001419,61.055771 
	C134.256241,68.447701 136.348038,75.305229 138.486343,82.315201 
	C139.507797,81.995041 141.512863,81.366577 143.245193,80.823601 
	C142.173370,78.829933 141.017502,77.249001 140.459518,75.479538 
	C139.918167,73.762802 137.971069,71.143028 142.479202,71.319435 
	C146.490677,73.648918 148.554718,80.463440 155.676270,77.067177 
	C152.091415,74.511124 148.963074,72.280563 145.525192,69.286079 
M300.012665,191.582489 
	C307.678345,198.482544 314.503937,197.622574 320.888031,188.844376 
	C324.019501,184.453720 320.909790,177.007080 315.052490,174.991287 
	C306.455627,171.715866 299.644165,175.317993 297.539764,184.367645 
	C298.267700,186.551407 298.995605,188.735168 300.012665,191.582489 
M300.209412,210.453995 
	C305.385193,205.585297 311.332336,205.782333 317.087494,211.899948 
	C319.228790,217.103256 316.102814,220.089828 311.919281,222.802658 
	C317.191406,223.390350 319.506805,221.701050 319.755798,217.019180 
	C319.865448,214.957245 319.103638,212.848984 318.615326,210.038666 
	C317.377869,208.527878 316.370850,206.711502 314.855804,205.568756 
	C311.519104,203.052094 307.737610,202.242859 303.741028,204.101074 
	C300.804871,205.466263 297.804565,206.830872 298.932373,211.707672 
	C298.953979,213.471359 299.731049,215.920074 298.863159,216.877243 
	C295.542847,220.539093 298.362061,221.095749 300.960938,222.046219 
	C302.556427,222.629761 304.118225,223.305450 306.060516,224.086716 
	C306.433441,221.623062 306.792633,219.250381 307.037781,217.630951 
	C304.335175,217.630951 301.310699,218.495377 300.043457,217.373993 
	C298.905945,216.367416 299.700165,213.177841 300.209412,210.453995 
M68.322708,146.828262 
	C67.946289,145.929260 67.320366,145.053284 67.234848,144.127411 
	C66.759094,138.976837 62.851692,137.179199 58.826656,136.208847 
	C54.460171,135.156189 50.763794,136.884048 47.886848,141.125504 
	C46.929565,143.096252 45.972282,145.067017 44.955669,147.738251 
	C44.568645,149.410828 44.181618,151.083405 43.971230,151.992630 
	C46.482616,152.612167 48.826859,152.845001 50.860600,153.764557 
	C55.010975,155.641190 58.994183,157.887527 62.547848,160.355484 
	C62.932949,160.851868 63.318047,161.348236 63.703148,161.844620 
	C64.135147,160.895691 64.567154,159.946747 65.149765,158.498199 
	C65.224442,158.341110 65.299118,158.184006 66.041801,157.842514 
	C66.942390,154.344757 67.842972,150.847015 68.322708,146.828262 
M65.196289,237.811859 
	C63.642303,240.029770 62.495796,243.551697 60.448654,244.191391 
	C56.315239,245.483032 51.692520,245.208801 47.710625,245.543503 
	C49.182541,248.274231 55.406010,250.305176 60.342163,248.786575 
	C65.313484,247.257172 67.642670,243.196747 67.292610,236.452438 
	C65.057480,228.284668 63.383411,227.041397 59.376816,229.180283 
	C61.316101,231.739365 63.338165,234.407700 65.196289,237.811859 
M58.180714,175.241989 
	C51.981121,174.200912 45.781528,173.159836 38.963673,172.014938 
	C38.740925,172.898148 38.262695,174.794357 37.890709,176.269302 
	C42.674183,176.809265 46.865765,177.282425 51.361904,178.069519 
	C51.916012,178.074829 52.470119,178.080139 53.679005,178.391037 
	C55.507435,178.912918 57.335865,179.434784 59.369766,180.325745 
	C59.436932,180.449234 59.534969,180.566269 59.562550,180.698044 
	C59.589882,180.828644 59.546200,180.974121 59.533661,181.113068 
	C59.639870,180.720825 59.746075,180.328568 60.441601,179.531876 
	C60.622078,178.353561 60.802555,177.175262 61.395733,175.356140 
	C62.000908,172.038696 62.606079,168.721237 63.279171,165.031464 
	C60.832382,165.031464 58.975349,165.031464 55.749962,165.031464 
	C61.728287,167.835159 59.780399,171.626312 58.180714,175.241989 
M263.493988,82.531639 
	C257.766693,80.031593 252.217438,82.167297 249.451447,86.529121 
	C246.612488,91.006027 247.382263,95.657463 251.843933,99.694336 
	C251.843933,96.556297 251.103577,93.139389 252.001511,90.227715 
	C253.749908,84.558311 258.705200,82.616440 264.008179,82.034874 
	C264.008179,82.034874 264.167175,81.873405 264.167175,81.873405 
	C264.167175,81.873405 264.114471,82.070671 263.493988,82.531639 
M61.414223,215.603500 
	C61.085239,215.194534 60.756260,214.785568 60.427288,214.376587 
	C60.220581,214.882507 60.013874,215.388428 59.124523,216.290512 
	C56.427517,216.502167 53.730511,216.713806 51.069500,216.104462 
	C50.738251,213.228058 50.407001,210.351654 50.038815,207.154510 
	C52.897881,206.782486 55.305073,206.469254 57.975143,206.623489 
	C58.742725,207.005554 59.510311,207.387604 60.277897,207.769653 
	C60.174664,207.181488 60.071430,206.593323 60.049091,205.227158 
	C59.818935,203.608749 59.588776,201.990356 59.426811,200.851456 
	C52.160080,203.533539 45.011509,204.990494 37.266800,203.385315 
	C37.621262,205.702698 37.966766,207.961548 38.228436,209.672272 
	C41.376503,208.882874 44.326122,208.143250 47.881248,207.251770 
	C48.081081,211.573303 48.231857,214.833908 47.453724,218.071274 
	C44.804504,218.071274 42.155285,218.071274 39.250927,218.071274 
	C39.577496,220.223480 39.892025,222.296326 40.022232,223.154449 
	C47.450390,222.096283 54.501823,221.091797 61.964012,220.028778 
	C61.856197,219.486618 61.512165,217.756638 61.414223,215.603500 
M195.216248,54.073826 
	C192.869934,53.839352 190.523605,53.604877 187.930481,53.345741 
	C190.050491,57.547626 188.634384,71.011162 185.643768,75.488060 
	C188.218216,75.674133 190.545517,75.842346 191.973618,75.945564 
	C191.973618,72.555252 191.973618,69.705940 192.794861,66.507355 
	C194.758636,66.457977 197.011047,66.999962 198.616486,66.216393 
	C200.854660,65.124001 203.900787,63.242298 204.200714,61.323238 
	C204.490219,59.470699 201.971298,56.907459 200.211197,55.125530 
	C199.379761,54.283802 197.438293,54.538521 195.216248,54.073826 
M70.988586,116.072365 
	C77.328651,115.819572 83.668716,115.566772 90.008781,115.313972 
	C90.069633,114.842415 90.130486,114.370865 90.191338,113.899307 
	C87.935524,112.170029 85.679718,110.440758 83.124146,108.101593 
	C80.007179,105.307602 76.890205,102.513611 73.598412,99.562920 
	C72.657448,100.860489 71.284233,102.754135 70.389534,103.987915 
	C72.503639,104.700134 74.374756,105.062447 75.966652,105.934479 
	C77.966164,107.029816 79.737000,108.542610 81.910797,110.795387 
	C80.471954,111.502548 79.073486,112.698303 77.586365,112.821190 
	C73.801125,113.133965 69.958199,112.758980 66.175507,113.087265 
	C64.490639,113.233490 62.895138,114.409393 61.255104,115.119675 
	C64.280197,116.824432 66.440132,118.041634 68.912888,119.858635 
	C72.396454,122.687103 75.880020,125.515564 79.538162,128.485779 
	C79.779060,128.191238 80.544350,127.508965 80.970573,126.657043 
	C81.335091,125.928467 81.310738,125.005341 81.329285,124.900185 
	C76.627617,123.226326 72.798615,120.405006 70.988586,116.072365 
M123.303802,86.103271 
	C120.840164,88.345734 117.800827,90.231361 115.343010,86.981804 
	C112.131958,82.736389 109.790009,77.833618 106.891335,72.902672 
	C106.021057,73.365898 104.154160,74.359604 103.041679,74.951759 
	C105.316040,78.659920 107.503342,82.161148 109.626320,85.700943 
	C114.131889,93.213425 119.239166,93.676163 125.866745,86.916016 
	C128.021698,82.498802 126.232407,78.635773 124.295059,74.710091 
	C122.855103,71.792282 121.709343,68.729286 120.330383,65.491028 
	C119.026085,66.231506 117.007988,67.377228 114.794029,68.634148 
	C120.205963,70.269722 125.507347,80.540779 123.303802,86.103271 
M304.006653,241.930374 
	C307.156006,240.721115 310.305389,239.511871 313.454773,238.302612 
	C313.701172,238.766281 313.947571,239.229950 314.193970,239.693619 
	C314.845398,237.744690 315.496796,235.795761 316.254303,233.529465 
	C308.103180,234.784317 300.164062,241.696594 293.255341,231.963608 
	C292.304077,234.233398 291.358734,236.489105 290.372864,238.841431 
	C295.450256,238.505157 299.859772,239.706940 303.147156,244.687912 
	C304.979340,247.557693 306.811523,250.427460 308.870514,253.652496 
	C309.482941,251.757690 310.023071,250.086655 310.563171,248.415634 
	C310.037750,248.846588 309.512299,249.277542 308.986877,249.708496 
	C307.391571,247.359161 305.796234,245.009811 304.006653,241.930374 
M112.665009,303.981567 
	C117.027931,298.899048 116.468285,294.764526 110.932014,291.237091 
	C108.161118,289.107147 105.409668,287.333252 102.341248,291.995544 
	C97.325760,297.295197 98.506638,303.504120 105.523750,306.601349 
	C108.112160,307.007996 110.975372,308.178558 112.665009,303.981567 
M282.561890,112.525497 
	C280.659485,110.229530 278.757080,107.933556 276.331512,105.006172 
	C279.263306,103.227211 281.868530,101.646393 284.564056,100.010811 
	C284.279175,99.640396 283.635590,98.683258 282.867615,97.839386 
	C282.123840,97.022118 281.252106,96.321327 281.149231,96.226479 
	C275.226562,101.136147 269.645142,105.762909 264.087250,110.370201 
	C264.969849,111.330818 266.509308,113.006393 267.619995,114.215279 
	C270.014374,111.618584 272.264374,109.178467 274.662872,106.577286 
	C277.281342,109.499039 279.270813,111.718941 281.188965,114.675621 
	C278.641327,116.768387 276.093658,118.861153 273.375763,121.093773 
	C274.411163,122.302650 275.882263,124.020233 276.950989,125.268021 
	C281.370789,118.917114 287.179871,114.519051 293.508514,110.433754 
	C292.204132,108.950836 290.917114,107.487663 290.419800,106.922279 
	C287.735748,109.139885 285.352234,111.109200 282.561890,112.525497 
M235.999832,292.999695 
	C235.999832,292.999695 235.962708,292.961975 235.994217,292.343384 
	C234.934341,288.011688 231.958267,289.501099 229.378677,290.278290 
	C224.724579,291.680450 222.554871,297.027832 224.509247,301.963135 
	C226.189697,306.206696 231.902924,308.542908 235.677872,306.530121 
	C240.365250,304.030853 242.592316,297.938782 239.919998,294.113007 
	C239.327209,293.264404 237.367584,293.370514 235.999832,292.999695 
M87.623009,87.519287 
	C85.459373,89.091812 83.295731,90.664337 80.752991,92.512398 
	C85.690491,93.649086 94.900185,104.370033 95.461609,109.396179 
	C97.714928,107.313004 99.756393,105.425682 101.398956,103.907143 
	C96.442940,105.003868 95.954102,100.169518 94.084122,98.113457 
	C95.426346,95.382339 96.532143,93.132271 97.637947,90.882202 
	C97.713615,91.208237 97.789284,91.534279 97.864952,91.860321 
	C95.969666,93.195221 94.074379,94.530128 92.186958,95.859489 
	C87.180557,91.123558 87.180557,91.123558 88.002670,87.012169 
	C88.002670,87.012169 88.163582,86.865395 88.163582,86.865395 
	C88.163582,86.865395 88.097710,87.015427 87.623009,87.519287 
M169.257065,290.767822 
	C164.208069,289.478058 159.338928,291.132965 159.056900,294.686829 
	C158.816803,297.712585 159.668839,300.825012 160.309692,304.597229 
	C162.638611,308.071320 166.699799,308.016022 169.092514,306.457550 
	C171.749908,304.726685 173.962875,301.119080 174.665695,297.950653 
	C175.253036,295.302887 174.104752,291.600159 169.257065,290.767822 
M287.066742,142.701141 
	C293.498932,147.018021 297.476685,147.152710 302.460754,143.222427 
	C306.903259,139.719193 307.623413,135.698868 304.950562,128.238312 
	C303.601715,127.171661 302.252869,126.105019 300.170319,124.959007 
	C295.534912,122.396957 291.470459,122.851173 287.650940,126.358078 
	C283.387115,130.272858 282.639526,134.124985 285.077789,140.619354 
	C285.713165,141.078018 286.348572,141.536682 287.066742,142.701141 
M174.651489,74.040611 
	C176.253433,71.482307 178.832809,69.081047 179.273819,66.336220 
	C180.589569,58.147263 175.992645,54.141598 165.556839,53.369728 
	C164.034256,54.169662 162.511688,54.969597 160.320892,56.058857 
	C156.583542,60.440018 156.065277,65.370193 158.588470,70.350555 
	C160.431000,73.987373 163.246445,76.798576 168.412231,76.515823 
	C170.279068,75.794540 172.145889,75.073250 174.651489,74.040611 
M113.143471,142.651413 
	C112.248734,143.853714 111.296928,145.018005 110.467659,146.263885 
	C92.270363,173.603165 89.296326,202.526611 103.806961,232.008331 
	C118.303726,261.461884 142.873032,277.649414 175.745667,278.958435 
	C228.583786,281.062592 268.485901,237.386230 262.948090,184.582794 
	C258.488922,142.064331 218.409256,108.260254 175.915222,110.751137 
	C150.494583,112.241219 129.874130,122.716484 113.143471,142.651413 
M235.748581,87.599686 
	C237.909927,83.059547 240.071274,78.519402 242.232635,73.979256 
	C242.658310,74.269150 243.084000,74.559044 243.509689,74.848938 
	C242.210678,75.578720 240.911667,76.308502 238.485687,77.671417 
	C238.134567,73.257637 237.854996,69.743492 237.524261,65.586021 
	C236.681824,65.201767 234.796692,64.341911 232.550797,63.317505 
	C233.710968,71.678917 238.221756,79.869446 228.362946,86.914062 
	C231.799591,87.466896 233.964127,87.815094 235.748581,87.599686 
M315.000488,153.716843 
	C314.482605,151.914627 313.964691,150.112396 313.311768,147.840347 
	C310.602722,151.553314 297.245544,155.680664 292.213013,154.851273 
	C293.034393,157.702225 293.837860,160.491074 294.786621,163.784119 
	C296.158020,161.435928 296.836914,158.916229 297.840637,158.779404 
	C303.534851,158.003189 308.623718,153.248535 314.848358,156.039749 
	C314.953186,155.473450 315.058044,154.907166 315.000488,153.716843 
M43.376476,192.101791 
	C48.491085,192.335968 53.605694,192.570145 58.874977,192.811417 
	C58.874977,191.474930 58.874977,190.241333 58.874977,188.979813 
	C55.153442,188.790878 51.664883,188.698212 48.192043,188.413681 
	C44.727558,188.129822 41.278824,187.653732 37.631027,187.240143 
	C37.524231,188.913681 37.371536,191.306534 37.225277,193.598557 
	C39.318268,192.998215 40.939301,192.533249 43.376476,192.101791 
M211.007889,78.668579 
	C210.934921,78.868813 210.861969,79.069038 210.789001,79.269272 
	C210.948044,79.317734 211.105423,79.401817 211.266388,79.409409 
	C214.818710,79.576973 219.052170,81.599258 221.222778,77.117012 
	C223.221237,72.990211 219.893204,70.569603 217.537262,67.696762 
	C215.954391,65.766579 215.547195,62.872276 214.526047,60.177242 
	C211.210632,60.826328 209.683899,63.701744 211.992599,67.266418 
	C213.324615,69.323074 215.673706,70.743263 216.896332,72.839867 
	C217.583450,74.018143 217.534744,76.610374 216.697525,77.453812 
	C215.542267,78.617622 213.943268,81.813553 211.007889,78.668579 
M252.164886,301.277161 
	C253.678635,303.063629 255.192368,304.850128 257.564362,307.649536 
	C257.887451,300.879120 258.134430,295.702972 258.386780,290.414856 
	C257.489777,290.414856 256.092377,290.414856 254.941650,290.414856 
	C254.941650,293.563416 254.941650,296.419739 254.941650,299.407166 
	C250.548691,297.153625 250.065735,290.474976 243.934891,290.083008 
	C244.528839,292.374664 245.010452,294.232941 245.492081,296.091217 
	C245.794571,295.812347 246.097061,295.533447 246.399551,295.254578 
	C248.176788,297.070618 249.954041,298.886688 252.164886,301.277161 
M221.918564,292.915222 
	C221.746811,292.139343 221.595108,290.692047 221.400360,290.686218 
	C217.083450,290.557251 212.761810,290.587555 208.441055,290.587555 
	C208.446472,290.935608 208.451889,291.283661 208.457306,291.631714 
	C210.176971,291.927338 211.896622,292.222992 214.464783,292.664490 
	C214.464783,296.833862 214.464783,300.831451 214.464783,304.829041 
	C215.025391,304.805695 215.585999,304.782318 216.146606,304.758972 
	C216.146606,302.192993 216.128769,299.626862 216.150299,297.061066 
	C216.196320,291.575012 216.657059,291.285065 221.918564,292.915222 
M140.172195,295.848083 
	C140.163162,298.322845 139.917450,300.830017 140.249741,303.258057 
	C140.404770,304.390717 141.679169,305.370178 142.446182,306.419098 
	C142.777390,306.127747 143.108612,305.836426 143.439819,305.545105 
	C143.439819,300.539337 143.439819,295.533569 143.439819,290.376465 
	C142.160019,290.376465 140.937256,290.376465 139.586044,290.376465 
	C139.806778,292.102173 139.989426,293.530151 140.172195,295.848083 
M122.886879,301.716187 
	C123.962723,300.440094 125.038567,299.163971 125.511803,298.602631 
	C124.641060,296.563293 123.962921,294.463623 122.861351,292.616425 
	C122.330933,291.726959 121.002235,291.313568 119.738983,290.492096 
	C119.738983,296.227692 119.738983,301.061462 119.738983,305.895233 
	C120.286896,306.065186 120.834808,306.235107 121.382721,306.405060 
	C121.883255,305.129333 122.383789,303.853607 122.886879,301.716187 
M199.868134,305.277313 
	C199.757523,305.378845 199.577591,305.466766 199.554337,305.585419 
	C199.526993,305.725098 199.635422,305.891418 199.684967,306.046173 
	C201.658310,304.967255 203.631653,303.888336 205.604996,302.809448 
	C204.627548,301.062408 203.870514,299.133331 202.616333,297.614838 
	C201.081207,295.756226 199.129623,294.241608 197.390091,292.608276 
	C195.354050,295.689758 195.561188,296.366028 199.875824,299.175110 
	C203.981918,301.848419 203.995102,302.202362 199.868134,305.277313 
M152.455948,291.197510 
	C151.629410,292.173340 150.111526,293.139984 150.098434,294.126587 
	C150.047363,297.976898 150.472672,301.833527 150.720856,305.687805 
	C152.093521,305.259125 152.971405,304.359100 153.002945,303.430328 
	C153.132584,299.610474 153.004944,295.781921 152.455948,291.197510 
M244.972733,304.022949 
	C245.741577,304.774231 246.510406,305.525513 247.279251,306.276794 
	C247.604233,305.856873 247.929214,305.436920 248.254196,305.016998 
	C247.340240,304.513702 246.426300,304.010437 244.972733,304.022949 
M127.522682,295.540985 
	C127.522682,295.540985 127.489159,295.561890 127.522682,295.540985 
M217.376312,305.480530 
	C217.376312,305.480530 217.468491,305.437744 217.376312,305.480530 
z"/>
<path fill="#3A64D8" opacity="1.000000" stroke="none" 
	d="
M113.368958,142.375641 
	C129.874130,122.716484 150.494583,112.241219 175.915222,110.751137 
	C218.409256,108.260254 258.488922,142.064331 262.948090,184.582794 
	C268.485901,237.386230 228.583786,281.062592 175.745667,278.958435 
	C142.873032,277.649414 118.303726,261.461884 103.806961,232.008331 
	C89.296326,202.526611 92.270363,173.603165 110.467659,146.263885 
	C111.296928,145.018005 112.248734,143.853714 113.368958,142.375641 
M256.152771,173.459564 
	C245.199371,135.413101 209.890915,111.596329 170.474197,115.666367 
	C126.000847,120.258553 93.512154,162.199295 100.251068,206.319794 
	C107.175407,251.654282 149.853119,282.153229 194.099686,273.387146 
	C240.119476,264.269775 267.680206,220.396439 256.152771,173.459564 
z"/>
<path fill="#F4F4F4" opacity="1.000000" stroke="none" 
	d="
M160.989105,55.769531 
	C162.511688,54.969597 164.034256,54.169662 165.732178,54.030846 
	C166.654053,55.116676 167.388657,55.882175 168.149185,55.908871 
	C172.068100,56.046421 174.070816,58.366962 175.128052,61.771084 
	C176.537842,66.310333 176.270767,70.498245 171.710190,73.723961 
	C172.797302,74.020462 173.405014,74.186211 174.012726,74.351959 
	C172.145889,75.073250 170.279068,75.794540 168.219727,75.856155 
	C160.580048,69.646988 159.590652,66.256287 162.549957,56.817097 
	C162.603088,56.647678 161.534363,56.126553 160.989105,55.769531 
z"/>
<path fill="#F4F4F4" opacity="1.000000" stroke="none" 
	d="
M300.904022,125.038376 
	C302.252869,126.105019 303.601715,127.171661 304.611176,128.600037 
	C303.938568,129.230988 303.285980,129.549072 303.318634,129.762314 
	C304.285645,136.084442 303.112213,139.341232 297.430908,141.448654 
	C294.310364,142.606186 290.489197,141.874969 286.983948,141.995361 
	C286.348572,141.536682 285.713165,141.078018 285.433655,140.176941 
	C286.257721,130.712387 290.792786,126.556419 299.635040,126.888191 
	C300.034332,126.903175 300.479980,125.683159 300.904022,125.038376 
z"/>
<path fill="#EFF2FD" opacity="1.000000" stroke="none" 
	d="
M169.992157,291.002838 
	C174.104752,291.600159 175.253036,295.302887 174.665695,297.950653 
	C173.962875,301.119080 171.749908,304.726685 169.092514,306.457550 
	C166.699799,308.016022 162.638611,308.071320 160.530853,304.192261 
	C160.879868,302.352509 161.272797,300.882782 161.089081,299.489044 
	C160.345398,293.847107 162.148987,291.939697 167.803909,292.392822 
	C168.491776,292.447968 169.260757,291.490845 169.992157,291.002838 
z"/>
<path fill="#2A2A2A" opacity="1.000000" stroke="none" 
	d="
M88.202240,86.918159 
	C87.180557,91.123558 87.180557,91.123558 92.186958,95.859489 
	C94.074379,94.530128 95.969666,93.195221 97.864952,91.860321 
	C97.789284,91.534279 97.713615,91.208237 97.637947,90.882202 
	C96.532143,93.132271 95.426346,95.382339 94.084122,98.113457 
	C95.954102,100.169518 96.442940,105.003868 101.398956,103.907143 
	C99.756393,105.425682 97.714928,107.313004 95.461609,109.396179 
	C94.900185,104.370033 85.690491,93.649086 80.752991,92.512398 
	C83.295731,90.664337 85.459373,89.091812 87.884964,87.241394 
	C88.146919,86.963509 88.202240,86.918159 88.202240,86.918159 
z"/>
<path fill="#EDF1FC" opacity="1.000000" stroke="none" 
	d="
M236.037323,293.037018 
	C237.367584,293.370514 239.327209,293.264404 239.919998,294.113007 
	C242.592316,297.938782 240.365250,304.030853 235.677872,306.530121 
	C231.902924,308.542908 226.189697,306.206696 224.509247,301.963135 
	C222.554871,297.027832 224.724579,291.680450 229.378677,290.278290 
	C231.958267,289.501099 234.934341,288.011688 235.548508,292.677673 
	C233.783371,293.022644 231.924164,292.491302 231.256424,293.156342 
	C229.847610,294.559387 227.854752,296.999878 228.287399,298.270203 
	C229.050842,300.511841 231.449142,302.196686 233.163055,304.114624 
	C234.423187,302.749207 236.452194,301.535309 236.758377,299.981873 
	C237.188614,297.799072 236.339355,295.364136 236.037323,293.037018 
z"/>
<path fill="#2D2D2D" opacity="1.000000" stroke="none" 
	d="
M235.938629,87.881485 
	C233.964127,87.815094 231.799591,87.466896 228.362946,86.914062 
	C238.221756,79.869446 233.710968,71.678917 232.550797,63.317505 
	C234.796692,64.341911 236.681824,65.201767 237.524261,65.586021 
	C237.854996,69.743492 238.134567,73.257637 238.485687,77.671417 
	C240.911667,76.308502 242.210678,75.578720 243.509689,74.848938 
	C243.084000,74.559044 242.658310,74.269150 242.232635,73.979256 
	C240.071274,78.519402 237.909927,83.059547 235.938629,87.881485 
z"/>
<path fill="#333333" opacity="1.000000" stroke="none" 
	d="
M281.260284,113.938843 
	C279.270813,111.718941 277.281342,109.499039 274.662872,106.577286 
	C272.264374,109.178467 270.014374,111.618584 267.619995,114.215279 
	C266.509308,113.006393 264.969849,111.330818 264.087250,110.370201 
	C269.645142,105.762909 275.226562,101.136147 281.149231,96.226479 
	C281.252106,96.321327 282.123840,97.022118 282.867615,97.839386 
	C283.635590,98.683258 284.279175,99.640396 284.564056,100.010811 
	C281.868530,101.646393 279.263306,103.227211 276.331512,105.006172 
	C278.757080,107.933556 280.659485,110.229530 282.630249,113.022041 
	C282.219177,113.658669 281.739716,113.798752 281.260284,113.938843 
z"/>
<path fill="#F4F6FD" opacity="1.000000" stroke="none" 
	d="
M102.991913,291.670654 
	C105.409668,287.333252 108.161118,289.107147 110.646942,291.587982 
	C110.911461,296.048523 111.461060,300.158142 112.010666,304.267792 
	C110.975372,308.178558 108.112160,307.007996 105.282135,305.951294 
	C101.910767,301.459442 100.784752,297.405090 103.622192,292.860992 
	C103.741508,292.669891 103.216660,292.076599 102.991913,291.670654 
z"/>
<path fill="#303030" opacity="1.000000" stroke="none" 
	d="
M57.712261,206.156021 
	C55.305073,206.469254 52.897881,206.782486 50.038815,207.154510 
	C50.407001,210.351654 50.738251,213.228058 50.888062,216.773880 
	C49.931957,217.660370 49.157295,217.877441 48.382633,218.094528 
	C48.231857,214.833908 48.081081,211.573303 47.881248,207.251770 
	C44.326122,208.143250 41.376503,208.882874 38.228436,209.672272 
	C37.966766,207.961548 37.621262,205.702698 37.266800,203.385315 
	C45.011509,204.990494 52.160080,203.533539 59.426811,200.851456 
	C59.588776,201.990356 59.818935,203.608749 59.631172,205.621429 
	C58.712925,206.062469 58.212593,206.109238 57.712261,206.156021 
z"/>
<path fill="#2F2F2F" opacity="1.000000" stroke="none" 
	d="
M302.968353,244.011475 
	C299.859772,239.706940 295.450256,238.505157 290.372864,238.841431 
	C291.358734,236.489105 292.304077,234.233398 293.255341,231.963608 
	C300.164062,241.696594 308.103180,234.784317 316.254303,233.529465 
	C315.496796,235.795761 314.845398,237.744690 314.193970,239.693619 
	C313.947571,239.229950 313.701172,238.766281 313.454773,238.302612 
	C310.305389,239.511871 307.156006,240.721115 303.965881,242.579254 
	C303.606171,243.489243 303.287262,243.750366 302.968353,244.011475 
z"/>
<path fill="#2F2F2F" opacity="1.000000" stroke="none" 
	d="
M315.081665,154.028870 
	C315.058044,154.907166 314.953186,155.473450 314.848389,156.039749 
	C308.623718,153.248535 303.534851,158.003189 297.840637,158.779404 
	C296.836914,158.916229 296.158020,161.435928 294.786621,163.784119 
	C293.837860,160.491074 293.034393,157.702225 292.213013,154.851273 
	C297.245544,155.680664 310.602722,151.553314 313.311768,147.840347 
	C313.964691,150.112396 314.482605,151.914627 315.081665,154.028870 
z"/>
<path fill="#282828" opacity="1.000000" stroke="none" 
	d="
M125.208420,87.079735 
	C119.239166,93.676163 114.131889,93.213425 109.626320,85.700943 
	C107.503342,82.161148 105.316040,78.659920 103.041679,74.951759 
	C104.154160,74.359604 106.021057,73.365898 106.891335,72.902672 
	C109.790009,77.833618 112.131958,82.736389 115.343010,86.981804 
	C117.800827,90.231361 120.840164,88.345734 123.765961,86.245529 
	C124.554878,86.618431 124.881653,86.849083 125.208420,87.079735 
z"/>
<path fill="#2D2D2D" opacity="1.000000" stroke="none" 
	d="
M142.032120,70.813423 
	C137.971069,71.143028 139.918167,73.762802 140.459518,75.479538 
	C141.017502,77.249001 142.173370,78.829933 143.245193,80.823601 
	C141.512863,81.366577 139.507797,81.995041 138.486343,82.315201 
	C136.348038,75.305229 134.256241,68.447701 132.001419,61.055771 
	C133.255081,60.671009 135.799683,59.890034 138.316788,59.425194 
	C137.917374,60.290165 137.545456,60.838997 137.091873,61.763653 
	C137.824432,64.788589 136.498917,68.648941 141.128876,69.412323 
	C141.509216,70.017334 141.770660,70.415375 142.032120,70.813423 
z"/>
<path fill="#2D2D2D" opacity="1.000000" stroke="none" 
	d="
M42.968407,192.085037 
	C40.939301,192.533249 39.318268,192.998215 37.225277,193.598557 
	C37.371536,191.306534 37.524231,188.913681 37.631027,187.240143 
	C41.278824,187.653732 44.727558,188.129822 48.192043,188.413681 
	C51.664883,188.698212 55.153442,188.790878 58.874977,188.979813 
	C58.874977,190.241333 58.874977,191.474930 58.874977,192.811417 
	C53.605694,192.570145 48.491085,192.335968 42.968407,192.085037 
z"/>
<path fill="#0E0E0E" opacity="1.000000" stroke="none" 
	d="
M83.423920,108.711487 
	C85.679718,110.440758 87.935524,112.170029 90.191338,113.899307 
	C90.130486,114.370865 90.069633,114.842415 90.008781,115.313972 
	C83.668716,115.566772 77.328651,115.819572 70.200729,115.977158 
	C69.141930,117.007576 68.870995,118.133202 68.600060,119.258835 
	C66.440132,118.041634 64.280197,116.824432 61.255104,115.119675 
	C62.895138,114.409393 64.490639,113.233490 66.175507,113.087265 
	C69.958199,112.758980 73.801125,113.133965 77.586365,112.821190 
	C79.073486,112.698303 80.471954,111.502548 81.976379,110.171844 
	C82.502609,109.269363 82.963264,108.990425 83.423920,108.711487 
z"/>
<path fill="#303030" opacity="1.000000" stroke="none" 
	d="
M191.973618,66.856621 
	C191.973618,69.705940 191.973618,72.555252 191.973618,75.945564 
	C190.545517,75.842346 188.218216,75.674133 185.643768,75.488060 
	C188.634384,71.011162 190.050491,57.547626 187.930481,53.345741 
	C190.523605,53.604877 192.869934,53.839352 195.609024,54.478878 
	C196.000656,55.275585 195.999496,55.667236 195.587234,56.089264 
	C191.178604,58.040421 193.158493,61.549931 192.931320,64.739182 
	C192.596756,65.618492 192.285187,66.237556 191.973618,66.856621 
z"/>
<path fill="#1F1F1F" opacity="1.000000" stroke="none" 
	d="
M211.227539,78.674316 
	C213.943268,81.813553 215.542267,78.617622 216.697525,77.453812 
	C217.534744,76.610374 217.583450,74.018143 216.896332,72.839867 
	C215.673706,70.743263 213.324615,69.323074 211.992599,67.266418 
	C209.683899,63.701744 211.210632,60.826328 214.526047,60.177242 
	C215.547195,62.872276 215.954391,65.766579 217.537262,67.696762 
	C219.893204,70.569603 223.221237,72.990211 221.222778,77.117012 
	C219.052170,81.599258 214.818710,79.576973 211.266388,79.409409 
	C211.105423,79.401817 210.948044,79.317734 210.789001,79.269272 
	C210.861969,79.069038 210.934921,78.868813 211.227539,78.674316 
z"/>
<path fill="#292929" opacity="1.000000" stroke="none" 
	d="
M47.918179,218.082901 
	C49.157295,217.877441 49.931957,217.660370 50.870064,217.184387 
	C53.730511,216.713806 56.427517,216.502167 59.805794,216.128525 
	C60.714085,215.986572 60.941105,216.006622 61.168129,216.026657 
	C61.512165,217.756638 61.856197,219.486618 61.964012,220.028778 
	C54.501823,221.091797 47.450390,222.096283 40.022232,223.154449 
	C39.892025,222.296326 39.577496,220.223480 39.250927,218.071274 
	C42.155285,218.071274 44.804504,218.071274 47.918179,218.082901 
z"/>
<path fill="#2C2C2C" opacity="1.000000" stroke="none" 
	d="
M281.224609,114.307236 
	C281.739716,113.798752 282.219177,113.658669 282.833649,113.298553 
	C285.352234,111.109200 287.735748,109.139885 290.419800,106.922279 
	C290.917114,107.487663 292.204132,108.950836 293.508514,110.433754 
	C287.179871,114.519051 281.370789,118.917114 276.950989,125.268021 
	C275.882263,124.020233 274.411163,122.302650 273.375763,121.093773 
	C276.093658,118.861153 278.641327,116.768387 281.224609,114.307236 
z"/>
<path fill="#6C8DE9" opacity="1.000000" stroke="none" 
	d="
M251.948090,300.989929 
	C249.954041,298.886688 248.176788,297.070618 246.399551,295.254578 
	C246.097061,295.533447 245.794571,295.812347 245.492081,296.091217 
	C245.010452,294.232941 244.528839,292.374664 243.934891,290.083008 
	C250.065735,290.474976 250.548691,297.153625 254.941650,299.407166 
	C254.941650,296.419739 254.941650,293.563416 254.941650,290.414856 
	C256.092377,290.414856 257.489777,290.414856 258.386780,290.414856 
	C258.134430,295.702972 257.887451,300.879120 257.564362,307.649536 
	C255.192368,304.850128 253.678635,303.063629 251.948090,300.989929 
z"/>
<path fill="#2C2C2C" opacity="1.000000" stroke="none" 
	d="
M264.212463,81.960175 
	C258.705200,82.616440 253.749908,84.558311 252.001511,90.227715 
	C251.103577,93.139389 251.843933,96.556297 251.843933,99.694336 
	C247.382263,95.657463 246.612488,91.006027 249.451447,86.529121 
	C252.217438,82.167297 257.766693,80.031593 263.821350,82.267006 
	C264.148743,82.002373 264.212463,81.960175 264.212463,81.960175 
z"/>
<path fill="#303030" opacity="1.000000" stroke="none" 
	d="
M287.025330,142.348251 
	C290.489197,141.874969 294.310364,142.606186 297.430908,141.448654 
	C303.112213,139.341232 304.285645,136.084442 303.318634,129.762314 
	C303.285980,129.549072 303.938568,129.230988 304.646393,128.945465 
	C307.623413,135.698868 306.903259,139.719193 302.460754,143.222427 
	C297.476685,147.152710 293.498932,147.018021 287.025330,142.348251 
z"/>
<path fill="#202020" opacity="1.000000" stroke="none" 
	d="
M65.373795,158.026917 
	C65.299118,158.184006 65.224442,158.341110 64.789795,158.789368 
	C63.968639,159.380875 63.507450,159.681213 63.046257,159.981552 
	C58.994183,157.887527 55.010975,155.641190 50.860600,153.764557 
	C48.826859,152.845001 46.482616,152.612167 43.971230,151.992630 
	C44.181618,151.083405 44.568645,149.410828 45.334629,147.316681 
	C46.816643,147.493790 47.919701,148.092453 49.313377,148.922485 
	C53.443108,150.579086 57.282219,152.004303 61.391876,153.724808 
	C62.899544,155.355698 64.136665,156.691299 65.373795,158.026917 
z"/>
<path fill="#252525" opacity="1.000000" stroke="none" 
	d="
M174.332108,74.196289 
	C173.405014,74.186211 172.797302,74.020462 171.710190,73.723961 
	C176.270767,70.498245 176.537842,66.310333 175.128052,61.771084 
	C174.070816,58.366962 172.068100,56.046421 168.149185,55.908871 
	C167.388657,55.882175 166.654053,55.116676 165.938599,54.284630 
	C175.992645,54.141598 180.589569,58.147263 179.273819,66.336220 
	C178.832809,69.081047 176.253433,71.482307 174.332108,74.196289 
z"/>
<path fill="#262626" opacity="1.000000" stroke="none" 
	d="
M51.057346,177.755585 
	C46.865765,177.282425 42.674183,176.809265 37.890709,176.269302 
	C38.262695,174.794357 38.740925,172.898148 38.963673,172.014938 
	C45.781528,173.159836 51.981121,174.200912 58.781509,175.431824 
	C59.915882,175.746765 60.449459,175.871857 60.983032,175.996948 
	C60.802555,177.175262 60.622078,178.353561 59.973740,179.698395 
	C59.505882,179.864899 59.164291,179.956665 59.164291,179.956665 
	C57.335865,179.434784 55.507435,178.912918 53.233437,178.009811 
	C52.211029,177.670914 51.634186,177.713242 51.057346,177.755585 
z"/>
<path fill="#363636" opacity="1.000000" stroke="none" 
	d="
M125.537582,86.997879 
	C124.881653,86.849083 124.554878,86.618431 124.084778,86.120033 
	C125.507347,80.540779 120.205963,70.269722 114.794029,68.634148 
	C117.007988,67.377228 119.026085,66.231506 120.330383,65.491028 
	C121.709343,68.729286 122.855103,71.792282 124.295059,74.710091 
	C126.232407,78.635773 128.021698,82.498802 125.537582,86.997879 
z"/>
<path fill="#212121" opacity="1.000000" stroke="none" 
	d="
M67.094879,237.014709 
	C67.642670,243.196747 65.313484,247.257172 60.342163,248.786575 
	C55.406010,250.305176 49.182541,248.274231 47.710625,245.543503 
	C51.692520,245.208801 56.315239,245.483032 60.448654,244.191391 
	C62.495796,243.551697 63.642303,240.029770 65.568619,237.452484 
	C66.325584,237.066986 66.710236,237.040848 67.094879,237.014709 
z"/>
<path fill="#202020" opacity="1.000000" stroke="none" 
	d="
M300.537170,124.998688 
	C300.479980,125.683159 300.034332,126.903175 299.635040,126.888191 
	C290.792786,126.556419 286.257721,130.712387 285.399261,139.853058 
	C282.639526,134.124985 283.387115,130.272858 287.650940,126.358078 
	C291.470459,122.851173 295.534912,122.396957 300.537170,124.998688 
z"/>
<path fill="#2A2A2A" opacity="1.000000" stroke="none" 
	d="
M48.544491,141.065811 
	C50.763794,136.884048 54.460171,135.156189 58.826656,136.208847 
	C62.851692,137.179199 66.759094,138.976837 67.234848,144.127411 
	C67.320366,145.053284 67.946289,145.929260 68.284546,147.079849 
	C67.918129,147.385513 67.589890,147.439606 67.038040,147.247070 
	C62.248463,139.846283 57.548531,138.238480 50.621704,141.467682 
	C49.660137,141.246094 49.102314,141.155945 48.544491,141.065811 
z"/>
<path fill="#2A2A2A" opacity="1.000000" stroke="none" 
	d="
M298.336243,210.953522 
	C297.804565,206.830872 300.804871,205.466263 303.741028,204.101074 
	C307.737610,202.242859 311.519104,203.052094 314.855804,205.568756 
	C316.370850,206.711502 317.377869,208.527878 318.228821,210.465393 
	C317.543274,210.930893 317.244232,210.969681 316.945160,211.008484 
	C311.332336,205.782333 305.385193,205.585297 299.709106,210.666290 
	C298.913757,210.854385 298.622894,210.879364 298.336243,210.953522 
z"/>
<path fill="#232323" opacity="1.000000" stroke="none" 
	d="
M160.654999,55.914192 
	C161.534363,56.126553 162.603088,56.647678 162.549957,56.817097 
	C159.590652,66.256287 160.580048,69.646988 168.008316,75.581261 
	C163.246445,76.798576 160.431000,73.987373 158.588470,70.350555 
	C156.065277,65.370193 156.583542,60.440018 160.654999,55.914192 
z"/>
<path fill="#1A1A1A" opacity="1.000000" stroke="none" 
	d="
M298.091705,183.960724 
	C299.644165,175.317993 306.455627,171.715866 315.524139,175.376389 
	C315.994324,176.632263 315.992889,177.503036 315.548096,178.285767 
	C312.668030,178.168213 310.127472,177.687164 307.819458,178.217697 
	C304.557129,178.967590 300.546753,179.359177 300.053284,184.192429 
	C299.136658,184.096115 298.614197,184.028427 298.091705,183.960724 
z"/>
<path fill="#262626" opacity="1.000000" stroke="none" 
	d="
M320.143280,189.046204 
	C314.503937,197.622574 307.678345,198.482544 300.164093,191.157684 
	C300.866852,190.516998 301.418182,190.301132 302.137360,190.444244 
	C309.104919,193.698593 313.723083,192.474930 318.595306,186.401093 
	C319.332733,187.166916 319.738007,188.106567 320.143280,189.046204 
z"/>
<path fill="#2F2F2F" opacity="1.000000" stroke="none" 
	d="
M195.998352,56.058891 
	C195.999496,55.667236 196.000656,55.275585 196.000793,54.590187 
	C197.438293,54.538521 199.379761,54.283802 200.211197,55.125530 
	C201.971298,56.907459 204.490219,59.470699 204.200714,61.323238 
	C203.900787,63.242298 200.854660,65.124001 198.616486,66.216393 
	C197.011047,66.999962 194.758636,66.457977 192.384247,66.681992 
	C192.285187,66.237556 192.596756,65.618492 193.277969,64.727234 
	C196.546448,64.635834 199.644791,64.857605 200.634750,61.287758 
	C201.687256,57.492290 198.313766,57.134945 195.998352,56.058891 
z"/>
<path fill="#3D3D3D" opacity="1.000000" stroke="none" 
	d="
M298.634308,211.330597 
	C298.622894,210.879364 298.913757,210.854385 299.425537,210.914948 
	C299.700165,213.177841 298.905945,216.367416 300.043457,217.373993 
	C301.310699,218.495377 304.335175,217.630951 307.037781,217.630951 
	C306.792633,219.250381 306.433441,221.623062 306.060516,224.086716 
	C304.118225,223.305450 302.556427,222.629761 300.960938,222.046219 
	C298.362061,221.095749 295.542847,220.539093 298.863159,216.877243 
	C299.731049,215.920074 298.953979,213.471359 298.634308,211.330597 
z"/>
<path fill="#282828" opacity="1.000000" stroke="none" 
	d="
M142.255661,71.066429 
	C141.770660,70.415375 141.509216,70.017334 141.364929,69.216614 
	C142.147018,68.339722 142.811951,67.865501 143.613983,67.748634 
	C144.445633,68.753998 145.140182,69.402000 145.834717,70.050003 
	C148.963074,72.280563 152.091415,74.511124 155.676270,77.067177 
	C148.554718,80.463440 146.490677,73.648918 142.255661,71.066429 
z"/>
<path fill="#7C99EB" opacity="1.000000" stroke="none" 
	d="
M186.026733,306.081604 
	C180.316345,306.313110 178.419266,304.648895 178.198669,299.234039 
	C178.084534,296.432770 177.950089,293.632324 177.808136,290.458252 
	C178.832550,290.458252 180.178497,290.458252 181.258469,290.458252 
	C182.216690,295.420349 177.958679,301.501984 185.637955,304.819885 
	C186.007492,305.493439 186.013077,305.787598 186.026733,306.081604 
z"/>
<path fill="#3A3A3A" opacity="1.000000" stroke="none" 
	d="
M68.756470,119.558731 
	C68.870995,118.133202 69.141930,117.007576 69.736275,115.956696 
	C72.798615,120.405006 76.627617,123.226326 81.329285,124.900185 
	C81.310738,125.005341 81.335091,125.928467 80.970573,126.657043 
	C80.544350,127.508965 79.779060,128.191238 79.538162,128.485779 
	C75.880020,125.515564 72.396454,122.687103 68.756470,119.558731 
z"/>
<path fill="#3D3D3D" opacity="1.000000" stroke="none" 
	d="
M83.274033,108.406540 
	C82.963264,108.990425 82.502609,109.269363 81.824234,109.711777 
	C79.737000,108.542610 77.966164,107.029816 75.966652,105.934479 
	C74.374756,105.062447 72.503639,104.700134 70.389534,103.987915 
	C71.284233,102.754135 72.657448,100.860489 73.598412,99.562920 
	C76.890205,102.513611 80.007179,105.307602 83.274033,108.406540 
z"/>
<path fill="#7C99EB" opacity="1.000000" stroke="none" 
	d="
M221.741531,293.251648 
	C216.657059,291.285065 216.196320,291.575012 216.150299,297.061066 
	C216.128769,299.626862 216.146606,302.192993 216.146606,304.758972 
	C215.585999,304.782318 215.025391,304.805695 214.464783,304.829041 
	C214.464783,300.831451 214.464783,296.833862 214.464783,292.664490 
	C211.896622,292.222992 210.176971,291.927338 208.457306,291.631714 
	C208.451889,291.283661 208.446472,290.935608 208.441055,290.587555 
	C212.761810,290.587555 217.083450,290.557251 221.400360,290.686218 
	C221.595108,290.692047 221.746811,292.139343 221.741531,293.251648 
z"/>
<path fill="#7795EB" opacity="1.000000" stroke="none" 
	d="
M140.172150,295.403137 
	C139.989426,293.530151 139.806778,292.102173 139.586044,290.376465 
	C140.937256,290.376465 142.160019,290.376465 143.439819,290.376465 
	C143.439819,295.533569 143.439819,300.539337 143.439819,305.545105 
	C143.108612,305.836426 142.777390,306.127747 142.446182,306.419098 
	C141.679169,305.370178 140.404770,304.390717 140.249741,303.258057 
	C139.917450,300.830017 140.163162,298.322845 140.172150,295.403137 
z"/>
<path fill="#7292EA" opacity="1.000000" stroke="none" 
	d="
M122.885597,302.147034 
	C122.383789,303.853607 121.883255,305.129333 121.382721,306.405060 
	C120.834808,306.235107 120.286896,306.065186 119.738983,305.895233 
	C119.738983,301.061462 119.738983,296.227692 119.738983,290.492096 
	C121.002235,291.313568 122.330933,291.726959 122.861351,292.616425 
	C123.962921,294.463623 124.641060,296.563293 125.511803,298.602631 
	C125.038567,299.163971 123.962723,300.440094 122.885597,302.147034 
z"/>
<path fill="#6386E8" opacity="1.000000" stroke="none" 
	d="
M199.992645,305.466980 
	C203.995102,302.202362 203.981918,301.848419 199.875824,299.175110 
	C195.561188,296.366028 195.354050,295.689758 197.390091,292.608276 
	C199.129623,294.241608 201.081207,295.756226 202.616333,297.614838 
	C203.870514,299.133331 204.627548,301.062408 205.604980,302.809448 
	C203.631653,303.888336 201.658310,304.967255 199.684967,306.046173 
	C199.635422,305.891418 199.526993,305.725098 199.554337,305.585419 
	C199.577591,305.466766 199.757523,305.378845 199.992645,305.466980 
z"/>
<path fill="#2C2C2C" opacity="1.000000" stroke="none" 
	d="
M145.679962,69.668045 
	C145.140182,69.402000 144.445633,68.753998 143.631439,67.733124 
	C143.511795,67.360252 143.552490,67.337296 143.723495,67.458557 
	C144.029724,67.575661 144.164963,67.571518 144.300186,67.567368 
	C144.147461,67.370506 143.994751,67.173653 143.915146,66.578438 
	C144.526169,60.587509 140.959000,60.832474 137.173553,61.387825 
	C137.545456,60.838997 137.917374,60.290165 138.707977,59.456738 
	C147.996399,58.515007 149.469620,60.843674 145.679962,69.668045 
z"/>
<path fill="#839FED" opacity="1.000000" stroke="none" 
	d="
M169.624603,290.885315 
	C169.260757,291.490845 168.491776,292.447968 167.803909,292.392822 
	C162.148987,291.939697 160.345398,293.847107 161.089081,299.489044 
	C161.272797,300.882782 160.879868,302.352509 160.394852,303.843201 
	C159.668839,300.825012 158.816803,297.712585 159.056900,294.686829 
	C159.338928,291.132965 164.208069,289.478058 169.624603,290.885315 
z"/>
<path fill="#3A3A3A" opacity="1.000000" stroke="none" 
	d="
M317.016327,211.454224 
	C317.244232,210.969681 317.543274,210.930893 318.289917,210.826935 
	C319.103638,212.848984 319.865448,214.957245 319.755798,217.019180 
	C319.506805,221.701050 317.191406,223.390350 311.919281,222.802658 
	C316.102814,220.089828 319.228790,217.103256 317.016327,211.454224 
z"/>
<path fill="#F5F5F5" opacity="1.000000" stroke="none" 
	d="
M320.515656,188.945282 
	C319.738007,188.106567 319.332733,187.166916 318.521149,186.014160 
	C317.407043,183.325287 316.699249,180.849548 315.991455,178.373810 
	C315.992889,177.503036 315.994324,176.632263 315.878784,175.427780 
	C320.909790,177.007080 324.019501,184.453720 320.515656,188.945282 
z"/>
<path fill="#4C4C4C" opacity="1.000000" stroke="none" 
	d="
M303.057739,244.349701 
	C303.287262,243.750366 303.606171,243.489243 304.062988,242.944305 
	C305.796234,245.009811 307.391571,247.359161 308.986877,249.708496 
	C309.512299,249.277542 310.037750,248.846588 310.563171,248.415634 
	C310.023071,250.086655 309.482941,251.757690 308.870514,253.652496 
	C306.811523,250.427460 304.979340,247.557693 303.057739,244.349701 
z"/>
<path fill="#6386E8" opacity="1.000000" stroke="none" 
	d="
M112.337837,304.124695 
	C111.461060,300.158142 110.911461,296.048523 110.687622,291.859314 
	C116.468285,294.764526 117.027931,298.899048 112.337837,304.124695 
z"/>
<path fill="#444444" opacity="1.000000" stroke="none" 
	d="
M61.189384,175.676544 
	C60.449459,175.871857 59.915882,175.746765 59.218018,175.399536 
	C59.780399,171.626312 61.728287,167.835159 55.749962,165.031464 
	C58.975349,165.031464 60.832382,165.031464 63.279171,165.031464 
	C62.606079,168.721237 62.000908,172.038696 61.189384,175.676544 
z"/>
<path fill="#4670E4" opacity="1.000000" stroke="none" 
	d="
M152.713959,291.577026 
	C153.004944,295.781921 153.132584,299.610474 153.002945,303.430328 
	C152.971405,304.359100 152.093521,305.259125 150.720856,305.687805 
	C150.472672,301.833527 150.047363,297.976898 150.098434,294.126587 
	C150.111526,293.139984 151.629410,292.173340 152.713959,291.577026 
z"/>
<path fill="#597FE7" opacity="1.000000" stroke="none" 
	d="
M102.666580,291.833099 
	C103.216660,292.076599 103.741508,292.669891 103.622192,292.860992 
	C100.784752,297.405090 101.910767,301.459442 105.028671,305.682373 
	C98.506638,303.504120 97.325760,297.295197 102.666580,291.833099 
z"/>
<path fill="#4C4C4C" opacity="1.000000" stroke="none" 
	d="
M67.193741,236.733582 
	C66.710236,237.040848 66.325584,237.066986 65.650589,237.084579 
	C63.338165,234.407700 61.316101,231.739365 59.376816,229.180283 
	C63.383411,227.041397 65.057480,228.284668 67.193741,236.733582 
z"/>
<path fill="#F0F0F0" opacity="1.000000" stroke="none" 
	d="
M67.261642,147.493683 
	C67.589890,147.439606 67.918129,147.385513 68.494965,147.340347 
	C67.842972,150.847015 66.942390,154.344757 65.707794,157.934723 
	C64.136665,156.691299 62.899544,155.355698 61.805069,153.600159 
	C63.719025,151.284729 65.490334,149.389206 67.261642,147.493683 
z"/>
<path fill="#7695EB" opacity="1.000000" stroke="none" 
	d="
M186.408676,306.074768 
	C186.013077,305.787598 186.007492,305.493439 186.007263,304.981323 
	C191.269714,301.133942 188.387817,295.966522 188.774185,290.292450 
	C189.805389,291.463623 191.046921,292.275269 190.946625,292.854584 
	C190.154724,297.428833 193.862671,303.492004 186.408676,306.074768 
z"/>
<path fill="#F0F0F0" opacity="1.000000" stroke="none" 
	d="
M48.215668,141.095657 
	C49.102314,141.155945 49.660137,141.246094 50.628799,141.801361 
	C50.367340,144.408020 49.695049,146.549576 49.022758,148.691116 
	C47.919701,148.092453 46.816643,147.493790 45.364296,146.966446 
	C45.972282,145.067017 46.929565,143.096252 48.215668,141.095657 
z"/>
<path fill="#F5F5F5" opacity="1.000000" stroke="none" 
	d="
M301.969513,190.085266 
	C301.418182,190.301132 300.866852,190.516998 300.019531,190.825897 
	C298.995605,188.735168 298.267700,186.551407 297.815735,184.164185 
	C298.614197,184.028427 299.136658,184.096115 300.257111,184.452423 
	C301.226562,186.522461 301.598022,188.303848 301.969513,190.085266 
z"/>
<path fill="#4F4F4F" opacity="1.000000" stroke="none" 
	d="
M57.843704,206.389755 
	C58.212593,206.109238 58.712925,206.062469 59.590729,206.010422 
	C60.071430,206.593323 60.174664,207.181488 60.277893,207.769653 
	C59.510311,207.387604 58.742725,207.005554 57.843704,206.389755 
z"/>
<path fill="#6C8DE9" opacity="1.000000" stroke="none" 
	d="
M245.242554,303.765076 
	C246.426300,304.010437 247.340240,304.513702 248.254196,305.016998 
	C247.929214,305.436920 247.604233,305.856873 247.279251,306.276794 
	C246.510406,305.525513 245.741577,304.774231 245.242554,303.765076 
z"/>
<path fill="#F0F0F0" opacity="1.000000" stroke="none" 
	d="
M62.797050,160.168518 
	C63.507450,159.681213 63.968639,159.380875 64.714493,159.039185 
	C64.567154,159.946747 64.135147,160.895691 63.703148,161.844620 
	C63.318047,161.348236 62.932949,160.851868 62.797050,160.168518 
z"/>
<path fill="#444444" opacity="1.000000" stroke="none" 
	d="
M51.209625,177.912537 
	C51.634186,177.713242 52.211029,177.670914 52.906048,177.857025 
	C52.470119,178.080139 51.916012,178.074829 51.209625,177.912537 
z"/>
<path fill="#4F4F4F" opacity="1.000000" stroke="none" 
	d="
M61.291176,215.815079 
	C60.941105,216.006622 60.714085,215.986572 60.147114,215.930450 
	C60.013874,215.388428 60.220581,214.882507 60.427284,214.376587 
	C60.756260,214.785568 61.085239,215.194534 61.291176,215.815079 
z"/>
<path fill="#444444" opacity="1.000000" stroke="none" 
	d="
M59.267029,180.141205 
	C59.164291,179.956665 59.505882,179.864899 59.679085,179.900604 
	C59.746075,180.328568 59.639870,180.720825 59.533665,181.113068 
	C59.546200,180.974121 59.589882,180.828644 59.562550,180.698044 
	C59.534969,180.566269 59.436932,180.449234 59.267029,180.141205 
z"/>
<path fill="#2A2A2A" opacity="1.000000" stroke="none" 
	d="
M88.122314,86.989471 
	C88.097710,87.015427 88.163582,86.865395 88.163582,86.865395 
	C88.163582,86.865395 88.002670,87.012169 88.102455,86.965164 
	C88.202240,86.918159 88.146919,86.963509 88.122314,86.989471 
z"/>
<path fill="#2C2C2C" opacity="1.000000" stroke="none" 
	d="
M264.131592,82.036522 
	C264.114471,82.070671 264.167175,81.873405 264.167175,81.873405 
	C264.167175,81.873405 264.008179,82.034874 264.110321,81.997528 
	C264.212463,81.960175 264.148743,82.002373 264.131592,82.036522 
z"/>
<path fill="#7292EA" opacity="1.000000" stroke="none" 
	d="
M127.505920,295.551453 
	C127.489159,295.561890 127.522682,295.540985 127.505920,295.551453 
z"/>
<path fill="#7C99EB" opacity="1.000000" stroke="none" 
	d="
M217.422394,305.459137 
	C217.468491,305.437744 217.376312,305.480530 217.422394,305.459137 
z"/>
<path fill="#010306" opacity="1.000000" stroke="none" 
	d="
M256.266357,173.852112 
	C267.680206,220.396439 240.119476,264.269775 194.099686,273.387146 
	C149.853119,282.153229 107.175407,251.654282 100.251068,206.319794 
	C93.512154,162.199295 126.000847,120.258553 170.474197,115.666367 
	C209.890915,111.596329 245.199371,135.413101 256.266357,173.852112 
M217.357651,143.106491 
	C215.645126,142.115005 213.961044,141.070007 212.214951,140.141663 
	C205.943176,136.807129 199.658997,133.495529 193.350632,130.231064 
	C192.801224,129.946747 191.964523,129.846603 191.389877,130.041031 
	C187.081863,131.498596 182.806168,133.051743 178.008743,134.756805 
	C175.067886,130.025269 169.557251,128.723511 163.513062,130.638214 
	C158.768433,132.141220 154.243347,134.477219 149.834274,136.841385 
	C147.582336,138.048889 145.981537,140.436478 143.767944,141.756638 
	C138.678635,144.791840 128.230927,161.805771 126.861031,167.424225 
	C125.035233,174.912491 121.948631,182.093719 119.385185,189.400375 
	C119.280861,189.697739 118.966408,189.914886 118.787155,190.193405 
	C115.223763,195.729980 115.569847,201.387222 119.254539,206.901230 
	C120.157211,208.252045 120.263817,210.586090 119.873573,212.267883 
	C118.520042,218.101013 119.527153,223.004395 123.891251,227.359573 
	C125.449608,228.914734 126.601295,231.278275 127.055557,233.456955 
	C128.056992,238.259949 130.345459,242.231995 134.987854,243.471054 
	C138.245956,244.340622 139.609467,246.023926 140.737137,248.717911 
	C144.730667,258.258484 155.414597,254.469223 162.116943,259.088440 
	C164.483505,260.719452 169.713257,258.867035 173.360352,257.725281 
	C175.663437,257.004303 177.456589,254.654480 179.448669,253.059128 
	C188.519012,261.409210 190.656769,261.677673 202.492004,256.253540 
	C203.352554,255.859131 204.425201,255.746155 205.387817,255.785049 
	C211.876343,256.047180 216.013092,252.818481 218.739258,247.190033 
	C219.321045,245.988892 220.405960,244.421356 221.509613,244.183075 
	C228.159286,242.747421 230.435852,237.981277 231.682999,232.061310 
	C232.021194,230.456009 233.343933,229.073410 234.125931,227.543182 
	C235.794281,224.278503 238.478378,221.082047 238.788773,217.679077 
	C239.263840,212.470749 237.168701,206.971237 241.746017,202.530045 
	C242.220581,202.069611 242.090393,200.940369 242.158875,200.114655 
	C242.493088,196.085052 236.212936,177.486313 233.587509,174.429626 
	C232.864075,173.587326 231.836151,172.510468 231.879639,171.585007 
	C232.192932,164.917953 229.507645,159.669724 224.848831,155.146469 
	C224.104584,154.423859 224.099396,152.997696 223.510376,152.046783 
	C221.723923,149.162827 219.818634,146.352509 217.357651,143.106491 
z"/>
<path fill="#FDFDFE" opacity="1.000000" stroke="none" 
	d="
M236.018585,293.018372 
	C236.339355,295.364136 237.188614,297.799072 236.758377,299.981873 
	C236.452194,301.535309 234.423187,302.749207 233.163055,304.114624 
	C231.449142,302.196686 229.050842,300.511841 228.287399,298.270203 
	C227.854752,296.999878 229.847610,294.559387 231.256424,293.156342 
	C231.924164,292.491302 233.783371,293.022644 235.532745,292.987000 
	C235.962708,292.961975 235.999832,292.999695 236.018585,293.018372 
z"/>
<path fill="#E4E4E4" opacity="1.000000" stroke="none" 
	d="
M137.091873,61.763657 
	C140.959000,60.832474 144.526169,60.587509 143.801712,66.635590 
	C143.615158,67.091095 143.552490,67.337296 143.552490,67.337296 
	C143.552490,67.337296 143.511795,67.360252 143.494324,67.375763 
	C142.811951,67.865501 142.147018,68.339722 141.246048,69.009659 
	C136.498917,68.648941 137.824432,64.788589 137.091873,61.763657 
z"/>
<path fill="#E3E3E3" opacity="1.000000" stroke="none" 
	d="
M195.587250,56.089264 
	C198.313766,57.134945 201.687256,57.492290 200.634750,61.287758 
	C199.644791,64.857605 196.546448,64.635834 193.300980,64.466995 
	C193.158493,61.549931 191.178604,58.040421 195.587250,56.089264 
z"/>
<path fill="#FDFDFE" opacity="1.000000" stroke="none" 
	d="
M49.313377,148.922485 
	C49.695049,146.549576 50.367340,144.408020 51.032543,141.932816 
	C57.548531,138.238480 62.248463,139.846283 67.038040,147.247070 
	C65.490334,149.389206 63.719025,151.284729 61.534523,153.304901 
	C57.282219,152.004303 53.443108,150.579086 49.313377,148.922485 
z"/>
<path fill="#FDFDFE" opacity="1.000000" stroke="none" 
	d="
M302.137360,190.444244 
	C301.598022,188.303848 301.226562,186.522461 300.651245,184.481049 
	C300.546753,179.359177 304.557129,178.967590 307.819458,178.217697 
	C310.127472,177.687164 312.668030,178.168213 315.548096,178.285767 
	C316.699249,180.849548 317.407043,183.325287 318.188995,186.187958 
	C313.723083,192.474930 309.104919,193.698593 302.137360,190.444244 
z"/>
<path fill="#282828" opacity="1.000000" stroke="none" 
	d="
M143.723495,67.458557 
	C143.552490,67.337296 143.615158,67.091095 143.728592,67.033951 
	C143.994751,67.173653 144.147461,67.370506 144.300186,67.567368 
	C144.164963,67.571518 144.029724,67.575661 143.723495,67.458557 
z"/>
<path fill="#2E58CC" opacity="1.000000" stroke="none" 
	d="
M217.658646,143.309998 
	C219.818634,146.352509 221.723923,149.162827 223.510376,152.046783 
	C224.099396,152.997696 224.104584,154.423859 224.848831,155.146469 
	C229.507645,159.669724 232.192932,164.917953 231.879639,171.585007 
	C231.836151,172.510468 232.864075,173.587326 233.587509,174.429626 
	C236.212936,177.486313 242.493088,196.085052 242.158875,200.114655 
	C242.090393,200.940369 242.220581,202.069611 241.746017,202.530045 
	C237.168701,206.971237 239.263840,212.470749 238.788773,217.679077 
	C238.478378,221.082047 235.794281,224.278503 234.125931,227.543182 
	C233.343933,229.073410 232.021194,230.456009 231.682999,232.061310 
	C230.435852,237.981277 228.159286,242.747421 221.509613,244.183075 
	C220.405960,244.421356 219.321045,245.988892 218.739258,247.190033 
	C216.013092,252.818481 211.876343,256.047180 205.387817,255.785049 
	C204.425201,255.746155 203.352554,255.859131 202.492004,256.253540 
	C190.656769,261.677673 188.519012,261.409210 179.448669,253.059128 
	C177.456589,254.654480 175.663437,257.004303 173.360352,257.725281 
	C169.713257,258.867035 164.483505,260.719452 162.116943,259.088440 
	C155.414597,254.469223 144.730667,258.258484 140.737137,248.717911 
	C139.609467,246.023926 138.245956,244.340622 134.987854,243.471054 
	C130.345459,242.231995 128.056992,238.259949 127.055557,233.456955 
	C126.601295,231.278275 125.449608,228.914734 123.891251,227.359573 
	C119.527153,223.004395 118.520042,218.101013 119.873573,212.267883 
	C120.263817,210.586090 120.157211,208.252045 119.254539,206.901230 
	C115.569847,201.387222 115.223763,195.729980 118.787155,190.193405 
	C118.966408,189.914886 119.280861,189.697739 119.385185,189.400375 
	C121.948631,182.093719 125.035233,174.912491 126.861031,167.424225 
	C128.230927,161.805771 138.678635,144.791840 143.767944,141.756638 
	C145.981537,140.436478 147.582336,138.048889 149.834274,136.841385 
	C154.243347,134.477219 158.768433,132.141220 163.513062,130.638214 
	C169.557251,128.723511 175.067886,130.025269 178.008743,134.756805 
	C182.806168,133.051743 187.081863,131.498596 191.389877,130.041031 
	C191.964523,129.846603 192.801224,129.946747 193.350632,130.231064 
	C199.658997,133.495529 205.943176,136.807129 212.214951,140.141663 
	C213.961044,141.070007 215.645126,142.115005 217.658646,143.309998 
M138.891190,162.387589 
	C145.504135,168.725449 152.203659,174.976089 158.703537,181.427841 
	C164.240448,186.923767 162.326111,195.148575 155.038223,197.943604 
	C146.506622,201.215622 137.145691,197.066727 133.841309,188.291336 
	C133.339935,186.959839 134.168655,185.127518 134.382141,183.526840 
	C135.475815,184.507797 136.948486,185.285965 137.599960,186.503540 
	C141.102615,193.049713 145.534363,195.575958 152.215042,193.892944 
	C154.023697,193.437286 156.315170,191.780838 156.828201,190.177429 
	C157.339920,188.578110 156.475327,185.790497 155.214859,184.499573 
	C149.285263,178.426819 143.021378,172.679718 136.852966,166.841568 
	C135.714523,165.764084 134.466263,164.802628 133.268677,163.787613 
	C132.710739,163.963379 132.152802,164.139145 131.594864,164.314911 
	C132.031586,166.717575 131.644424,169.994598 133.074982,171.342590 
	C136.141586,174.232208 134.670364,175.079559 131.982346,176.014023 
	C126.913246,177.776230 124.528793,181.050232 124.946556,186.618820 
	C125.085373,188.469330 124.025047,190.652740 122.937218,192.304871 
	C120.146225,196.543655 119.746956,201.081192 123.051254,204.139603 
	C125.853645,206.733444 126.091675,208.978027 124.739754,212.413345 
	C122.614899,217.812744 124.156448,222.293793 128.185410,224.715576 
	C132.189545,227.122437 137.837906,226.413849 141.554489,222.980667 
	C142.776169,221.852142 143.955185,220.663101 145.041641,219.404968 
	C150.191132,213.441864 155.798294,208.682220 165.171097,212.460846 
	C165.171097,209.839630 164.890167,208.001114 165.265808,206.308334 
	C165.534714,205.096558 166.683289,204.080017 167.439392,202.976379 
	C168.188461,204.089050 169.512955,205.166718 169.583130,206.320663 
	C169.835297,210.468140 169.793396,214.648514 169.565262,218.800095 
	C169.504929,219.897919 168.377228,220.937088 167.739624,222.003189 
	C166.856323,221.191254 165.714584,220.530807 165.134384,219.541168 
	C162.609543,215.234589 158.483200,214.078339 154.229431,216.965698 
	C152.190247,218.349854 150.427124,220.196350 148.721420,222.005478 
	C144.120102,226.885803 139.714096,232.038742 131.962860,230.244583 
	C131.936386,237.580261 134.218109,239.592529 141.565872,239.900513 
	C143.259003,239.971466 144.921341,240.777527 146.597839,241.245300 
	C145.849945,242.707718 145.102051,244.170120 144.280289,245.776962 
	C146.498520,249.937469 149.073898,251.938065 153.060837,250.961548 
	C155.929459,250.258926 158.423538,248.073288 161.126785,246.627899 
	C162.306534,245.997086 163.591614,245.563263 164.828857,245.039948 
	C164.792786,246.513458 165.201950,248.205338 164.612411,249.407425 
	C163.803345,251.057098 162.237183,252.335480 160.837265,253.956085 
	C165.478683,256.678680 169.233429,255.505264 172.731049,252.795502 
	C177.354553,249.213455 177.355545,244.382126 176.500168,239.982330 
	C173.555222,238.723618 171.155045,237.697754 168.754852,236.671890 
	C171.142624,235.452881 173.530380,234.233856 176.784271,232.572678 
	C176.784271,219.366867 176.834656,205.082504 176.667267,190.800690 
	C176.656464,189.880249 175.110428,188.544662 174.018860,188.180389 
	C172.675308,187.732040 170.967834,188.418030 169.588074,188.021194 
	C168.384369,187.675003 167.417145,186.506577 166.345444,185.701447 
	C167.360687,185.052231 168.306427,184.205582 169.413086,183.815979 
	C170.304108,183.502304 171.405090,183.625275 172.386169,183.755707 
	C176.013779,184.238022 176.958817,182.514236 176.864655,179.139542 
	C176.669662,172.149750 176.657394,165.146240 176.868698,158.157394 
	C176.973831,154.680511 176.264725,152.762558 172.255646,153.072052 
	C171.216354,153.152267 170.061890,151.740707 168.960327,151.014359 
	C170.076157,150.288879 171.129333,149.428558 172.324295,148.873459 
	C173.693054,148.237640 175.842896,148.302795 176.497635,147.304993 
	C178.093323,144.873260 175.310394,137.622086 172.474564,135.703430 
	C169.162567,133.462616 164.703522,134.309128 161.619629,137.198151 
	C160.229553,138.500381 158.123398,139.329575 156.209961,139.712021 
	C153.490219,140.255646 141.304504,147.805038 140.201691,150.353439 
	C138.922760,153.308746 137.797958,156.347504 136.894394,159.434372 
	C136.713959,160.050842 137.831436,161.047241 138.891190,162.387589 
M198.812775,182.643066 
	C206.371933,174.935989 213.931107,167.228912 221.370865,159.643555 
	C220.578949,157.692673 219.299850,155.812286 219.119949,153.832031 
	C218.753647,149.799896 216.657349,147.492432 213.160217,145.974670 
	C211.811417,145.389267 210.638031,144.413086 209.330307,143.717209 
	C203.606079,140.671249 198.123230,136.882385 192.054794,134.850235 
	C185.385559,132.616898 180.694962,139.723114 182.607147,148.658829 
	C183.834106,148.714951 185.231979,148.493423 186.401138,148.911499 
	C187.604477,149.341797 188.584778,150.395767 189.662674,151.176834 
	C188.654373,151.846878 187.726639,152.786453 186.617172,153.118027 
	C185.263824,153.522461 183.757828,153.416046 181.883072,153.565170 
	C181.883072,160.871521 181.883148,167.835632 181.883041,174.799744 
	C181.882919,182.483383 181.891235,182.437759 189.421234,183.820419 
	C190.382355,183.996902 191.201782,184.945023 192.086853,185.535660 
	C191.219376,186.363312 190.435822,187.763260 189.467773,187.905228 
	C187.099594,188.252548 184.646133,188.018600 182.156448,188.018600 
	C182.156448,203.793747 182.156448,218.720490 182.156448,233.882401 
	C183.699753,233.999084 185.091827,233.826416 186.253098,234.264954 
	C187.597702,234.772766 188.739319,235.818069 189.969055,236.630051 
	C188.807602,237.345917 187.724564,238.306839 186.463211,238.710464 
	C185.134903,239.135498 183.636169,239.027969 182.202347,239.153976 
	C181.388977,245.283615 181.564713,250.554749 187.452515,253.847000 
	C190.841492,255.742020 194.053101,256.480927 197.543594,253.541489 
	C196.697540,252.591782 195.789642,251.963028 195.446136,251.107651 
	C194.676407,249.190872 194.187424,247.161346 193.584106,245.177734 
	C195.118210,246.023346 196.894760,246.607162 198.142136,247.762390 
	C202.325043,251.636261 208.663437,252.349197 212.214783,248.964966 
	C213.760437,247.492050 215.387848,246.082382 212.793106,243.674957 
	C210.491669,241.539658 212.046616,240.161209 214.636810,239.933243 
	C216.291306,239.787628 217.973328,239.961548 219.629471,239.826324 
	C224.506851,239.428055 227.164764,235.695740 226.306412,230.354919 
	C220.466827,231.277176 216.058655,228.636581 212.219482,224.551712 
	C210.281723,222.489899 208.298019,220.455353 206.184998,218.577332 
	C200.880005,213.862350 197.266022,214.395325 193.221054,220.190994 
	C192.667419,220.984222 191.475967,221.332321 190.579819,221.886505 
	C190.012756,220.950729 188.992004,220.032074 188.955978,219.076279 
	C188.786743,214.586060 188.787857,210.081360 188.979675,205.592575 
	C189.016769,204.724472 190.176773,203.904358 190.818802,203.062088 
	C191.691238,203.883575 193.128693,204.593155 193.318207,205.549911 
	C193.709641,207.526321 193.436111,209.634415 193.436111,212.424774 
	C202.194275,209.023224 207.722366,212.899353 212.698242,218.408203 
	C214.370728,220.259827 216.076721,222.132416 218.027634,223.663910 
	C219.399323,224.740707 221.148941,225.719727 222.836700,225.946335 
	C231.933578,227.167831 236.874054,220.751312 233.762817,211.807602 
	C232.927094,209.405121 231.871140,207.568939 234.356369,205.168045 
	C239.237930,200.452179 239.095337,197.368118 234.991547,191.606857 
	C234.089111,190.339951 233.081924,188.627762 233.220901,187.229782 
	C233.795288,181.452225 232.047653,177.515076 226.130554,175.729172 
	C225.394714,175.507080 224.656616,172.209457 224.991501,171.992645 
	C228.985321,169.406937 226.940414,166.780182 225.307800,163.262070 
	C217.386597,170.843185 209.689423,177.880585 202.414871,185.330658 
	C199.413177,188.404785 201.591232,192.951035 206.047455,193.968903 
	C212.681839,195.484299 216.586761,193.347931 221.008820,186.160553 
	C221.718918,185.006378 223.345886,184.416321 224.548996,183.565475 
	C224.705566,185.046219 225.395889,186.724365 224.932999,187.976028 
	C221.666595,196.808578 213.280334,200.892838 204.414948,198.202759 
	C197.473389,196.096436 194.951294,189.908951 198.812775,182.643066 
z"/>
<path fill="#03060E" opacity="1.000000" stroke="none" 
	d="
M138.620819,162.128021 
	C137.831436,161.047241 136.713959,160.050842 136.894394,159.434372 
	C137.797958,156.347504 138.922760,153.308746 140.201691,150.353439 
	C141.304504,147.805038 153.490219,140.255646 156.209961,139.712021 
	C158.123398,139.329575 160.229553,138.500381 161.619629,137.198151 
	C164.703522,134.309128 169.162567,133.462616 172.474564,135.703430 
	C175.310394,137.622086 178.093323,144.873260 176.497635,147.304993 
	C175.842896,148.302795 173.693054,148.237640 172.324295,148.873459 
	C171.129333,149.428558 170.076157,150.288879 168.960327,151.014359 
	C170.061890,151.740707 171.216354,153.152267 172.255646,153.072052 
	C176.264725,152.762558 176.973831,154.680511 176.868698,158.157394 
	C176.657394,165.146240 176.669662,172.149750 176.864655,179.139542 
	C176.958817,182.514236 176.013779,184.238022 172.386169,183.755707 
	C171.405090,183.625275 170.304108,183.502304 169.413086,183.815979 
	C168.306427,184.205582 167.360687,185.052231 166.345444,185.701447 
	C167.417145,186.506577 168.384369,187.675003 169.588074,188.021194 
	C170.967834,188.418030 172.675308,187.732040 174.018860,188.180389 
	C175.110428,188.544662 176.656464,189.880249 176.667267,190.800690 
	C176.834656,205.082504 176.784271,219.366867 176.784271,232.572678 
	C173.530380,234.233856 171.142624,235.452881 168.754852,236.671875 
	C171.155045,237.697754 173.555222,238.723618 176.500168,239.982330 
	C177.355545,244.382126 177.354553,249.213455 172.731049,252.795502 
	C169.233429,255.505264 165.478683,256.678680 160.837265,253.956085 
	C162.237183,252.335480 163.803345,251.057098 164.612411,249.407425 
	C165.201950,248.205338 164.792786,246.513458 164.828857,245.039948 
	C163.591614,245.563263 162.306534,245.997086 161.126785,246.627899 
	C158.423538,248.073288 155.929459,250.258926 153.060837,250.961548 
	C149.073898,251.938065 146.498520,249.937469 144.280289,245.776962 
	C145.102051,244.170120 145.849945,242.707718 146.597839,241.245300 
	C144.921341,240.777527 143.259003,239.971466 141.565872,239.900513 
	C134.218109,239.592529 131.936386,237.580261 131.962860,230.244583 
	C139.714096,232.038742 144.120102,226.885803 148.721420,222.005478 
	C150.427124,220.196350 152.190247,218.349854 154.229431,216.965698 
	C158.483200,214.078339 162.609543,215.234589 165.134384,219.541168 
	C165.714584,220.530807 166.856323,221.191254 167.739624,222.003189 
	C168.377228,220.937088 169.504929,219.897919 169.565262,218.800095 
	C169.793396,214.648514 169.835297,210.468140 169.583130,206.320663 
	C169.512955,205.166718 168.188461,204.089050 167.439392,202.976379 
	C166.683289,204.080017 165.534714,205.096558 165.265808,206.308334 
	C164.890167,208.001114 165.171097,209.839630 165.171097,212.460846 
	C155.798294,208.682220 150.191132,213.441864 145.041641,219.404968 
	C143.955185,220.663101 142.776169,221.852142 141.554489,222.980667 
	C137.837906,226.413849 132.189545,227.122437 128.185410,224.715576 
	C124.156448,222.293793 122.614899,217.812744 124.739754,212.413345 
	C126.091675,208.978027 125.853645,206.733444 123.051254,204.139603 
	C119.746956,201.081192 120.146225,196.543655 122.937218,192.304871 
	C124.025047,190.652740 125.085373,188.469330 124.946556,186.618820 
	C124.528793,181.050232 126.913246,177.776230 131.982346,176.014023 
	C134.670364,175.079559 136.141586,174.232208 133.074982,171.342590 
	C131.644424,169.994598 132.031586,166.717575 131.594864,164.314911 
	C132.152802,164.139145 132.710739,163.963379 133.268677,163.787613 
	C134.466263,164.802628 135.714523,165.764084 136.852966,166.841568 
	C143.021378,172.679718 149.285263,178.426819 155.214859,184.499573 
	C156.475327,185.790497 157.339920,188.578110 156.828201,190.177429 
	C156.315170,191.780838 154.023697,193.437286 152.215042,193.892944 
	C145.534363,195.575958 141.102615,193.049713 137.599960,186.503540 
	C136.948486,185.285965 135.475815,184.507797 134.382141,183.526840 
	C134.168655,185.127518 133.339935,186.959839 133.841309,188.291336 
	C137.145691,197.066727 146.506622,201.215622 155.038223,197.943604 
	C162.326111,195.148575 164.240448,186.923767 158.703537,181.427841 
	C152.203659,174.976089 145.504135,168.725449 138.620819,162.128021 
M168.397858,164.159622 
	C167.418304,164.520294 165.909866,164.604935 165.552216,165.290222 
	C164.124634,168.025391 161.855835,169.086777 159.432724,167.654770 
	C158.124374,166.881577 157.143860,164.399033 157.198822,162.726547 
	C157.297211,159.732727 159.478607,158.715057 162.488724,158.879364 
	C163.652298,158.942871 164.879227,157.845612 166.077301,157.277191 
	C164.803162,156.246201 163.647522,154.559540 162.233246,154.303955 
	C157.491211,153.446991 152.962204,157.565369 152.434555,162.757065 
	C151.952652,167.498764 155.605026,172.397903 160.103180,172.907623 
	C161.542816,173.070740 163.016525,172.933151 164.652023,172.933151 
	C164.829910,173.740692 164.848633,174.422394 165.127289,174.972397 
	C165.806946,176.313889 166.606995,177.594391 167.358566,178.899445 
	C168.148651,177.454376 169.536713,176.037567 169.606628,174.558456 
	C169.761017,171.292084 169.251678,167.994324 168.397858,164.159622 
M168.771606,226.926224 
	C167.658691,225.960327 166.672379,224.764603 165.410339,224.069427 
	C160.660614,221.453125 154.687637,223.690201 152.579819,228.737549 
	C150.585876,233.512177 152.798889,239.135147 157.486633,240.555786 
	C158.608047,240.895615 160.078461,240.083817 161.388351,239.801697 
	C160.953140,238.872055 160.768417,237.510544 160.039307,237.087662 
	C156.908600,235.271896 154.755524,233.086914 157.377792,229.574051 
	C159.965103,226.108032 162.682953,227.748260 165.463181,229.832077 
	C167.934982,231.684708 169.060730,230.349152 168.771606,226.926224 
M137.410324,203.659790 
	C137.588501,204.266571 137.694580,204.906921 137.958664,205.473679 
	C138.689896,207.043060 139.487015,208.581757 140.258102,210.132568 
	C138.584839,209.892929 136.915161,209.622589 135.236862,209.425903 
	C134.323654,209.318863 133.139069,208.978683 132.548508,209.401840 
	C131.985382,209.805313 131.685501,211.750656 131.867203,211.843018 
	C134.612732,213.238525 137.441544,215.397522 140.281754,215.442932 
	C143.772873,215.498718 146.401108,210.440781 145.084747,207.147934 
	C143.841980,204.039139 142.128906,200.985657 137.410324,203.659790 
z"/>
<path fill="#03060D" opacity="1.000000" stroke="none" 
	d="
M198.562149,182.936127 
	C194.951294,189.908951 197.473389,196.096436 204.414948,198.202759 
	C213.280334,200.892838 221.666595,196.808578 224.932999,187.976028 
	C225.395889,186.724365 224.705566,185.046219 224.548981,183.565491 
	C223.345886,184.416321 221.718918,185.006378 221.008820,186.160553 
	C216.586761,193.347931 212.681839,195.484299 206.047455,193.968903 
	C201.591232,192.951035 199.413177,188.404785 202.414871,185.330658 
	C209.689423,177.880585 217.386597,170.843185 225.307800,163.262070 
	C226.940414,166.780182 228.985321,169.406937 224.991501,171.992645 
	C224.656616,172.209457 225.394714,175.507080 226.130554,175.729172 
	C232.047653,177.515076 233.795288,181.452225 233.220901,187.229782 
	C233.081924,188.627762 234.089111,190.339951 234.991547,191.606857 
	C239.095337,197.368118 239.237930,200.452179 234.356369,205.168045 
	C231.871140,207.568939 232.927094,209.405121 233.762817,211.807602 
	C236.874054,220.751312 231.933578,227.167831 222.836700,225.946335 
	C221.148941,225.719727 219.399323,224.740707 218.027634,223.663910 
	C216.076721,222.132416 214.370728,220.259827 212.698242,218.408203 
	C207.722366,212.899353 202.194275,209.023224 193.436111,212.424774 
	C193.436111,209.634415 193.709641,207.526321 193.318207,205.549911 
	C193.128693,204.593155 191.691238,203.883575 190.818787,203.062103 
	C190.176773,203.904358 189.016769,204.724472 188.979675,205.592575 
	C188.787857,210.081360 188.786743,214.586060 188.955978,219.076279 
	C188.992004,220.032074 190.012756,220.950729 190.579819,221.886505 
	C191.475967,221.332321 192.667419,220.984222 193.221054,220.190994 
	C197.266022,214.395325 200.880005,213.862350 206.184998,218.577332 
	C208.298019,220.455353 210.281723,222.489899 212.219482,224.551712 
	C216.058655,228.636581 220.466827,231.277176 226.306412,230.354919 
	C227.164764,235.695740 224.506851,239.428055 219.629471,239.826324 
	C217.973328,239.961548 216.291306,239.787628 214.636810,239.933243 
	C212.046616,240.161209 210.491669,241.539658 212.793106,243.674957 
	C215.387848,246.082382 213.760437,247.492050 212.214783,248.964966 
	C208.663437,252.349197 202.325043,251.636261 198.142136,247.762390 
	C196.894760,246.607162 195.118210,246.023346 193.584106,245.177734 
	C194.187424,247.161346 194.676407,249.190872 195.446136,251.107651 
	C195.789642,251.963028 196.697540,252.591782 197.543594,253.541489 
	C194.053101,256.480927 190.841492,255.742020 187.452515,253.847000 
	C181.564713,250.554749 181.388977,245.283615 182.202347,239.153976 
	C183.636169,239.027969 185.134903,239.135498 186.463211,238.710464 
	C187.724564,238.306839 188.807602,237.345917 189.969055,236.630051 
	C188.739319,235.818069 187.597702,234.772766 186.253098,234.264954 
	C185.091827,233.826416 183.699753,233.999084 182.156448,233.882401 
	C182.156448,218.720490 182.156448,203.793747 182.156448,188.018600 
	C184.646133,188.018600 187.099594,188.252548 189.467773,187.905228 
	C190.435822,187.763260 191.219376,186.363312 192.086853,185.535660 
	C191.201782,184.945023 190.382355,183.996902 189.421234,183.820419 
	C181.891235,182.437759 181.882919,182.483383 181.883041,174.799744 
	C181.883148,167.835632 181.883072,160.871521 181.883072,153.565170 
	C183.757828,153.416046 185.263824,153.522461 186.617172,153.118027 
	C187.726639,152.786453 188.654373,151.846878 189.662674,151.176834 
	C188.584778,150.395767 187.604477,149.341797 186.401138,148.911499 
	C185.231979,148.493423 183.834106,148.714951 182.607147,148.658829 
	C180.694962,139.723114 185.385559,132.616898 192.054794,134.850235 
	C198.123230,136.882385 203.606079,140.671249 209.330307,143.717209 
	C210.638031,144.413086 211.811417,145.389267 213.160217,145.974670 
	C216.657349,147.492432 218.753647,149.799896 219.119949,153.832031 
	C219.299850,155.812286 220.578949,157.692673 221.370865,159.643555 
	C213.931107,167.228912 206.371933,174.935989 198.562149,182.936127 
M188.833954,173.261108 
	C189.515076,175.091644 190.196213,176.922180 190.877350,178.752716 
	C192.197510,176.908737 193.517685,175.064758 195.036072,172.943893 
	C195.624512,172.943893 196.778015,173.032913 197.913620,172.928055 
	C202.194931,172.532761 205.809692,168.653702 206.095551,164.223969 
	C206.394150,159.596405 203.601227,155.077682 199.268219,154.589493 
	C197.076294,154.342545 194.675446,155.949951 192.369049,156.718964 
	C194.082382,157.432678 195.966248,157.899307 197.460495,158.930481 
	C198.919205,159.937119 200.749680,161.390274 201.002579,162.886475 
	C201.264114,164.433975 200.245300,167.142349 199.012390,167.736542 
	C197.739166,168.350143 195.455215,167.215973 193.763565,166.494446 
	C192.548615,165.976242 191.580383,164.879562 190.502106,164.040924 
	C189.946396,165.478226 189.207382,166.876541 188.890854,168.364716 
	C188.620102,169.637619 188.833755,171.013565 188.833954,173.261108 
M190.084351,226.557922 
	C190.156021,227.849167 190.227692,229.140396 190.299362,230.431625 
	C191.598129,229.987885 193.081039,229.806046 194.158997,229.048203 
	C196.742508,227.231888 199.181900,226.917801 201.137131,229.594986 
	C203.020905,232.174316 202.463684,234.459610 199.698303,236.381699 
	C198.592346,237.150436 198.050674,238.730972 197.252136,239.941986 
	C199.014572,239.919647 201.147003,240.532867 202.473007,239.760895 
	C207.273468,236.966171 208.130783,231.421402 204.874634,226.807709 
	C201.486816,222.007492 196.257431,221.705612 190.084351,226.557922 
M218.135147,207.887924 
	C218.855713,206.204056 219.576279,204.520187 220.296860,202.836334 
	C218.340744,203.549286 215.880203,203.752960 214.536316,205.084015 
	C211.952927,207.642776 212.971008,212.250290 216.242813,214.624100 
	C219.780685,217.190979 222.887558,215.839249 225.502914,213.089722 
	C226.239120,212.315735 226.215714,210.819199 226.540726,209.654083 
	C225.362427,209.697357 223.870590,209.297501 223.064972,209.867508 
	C220.703171,211.538589 218.917694,212.242050 218.135147,207.887924 
z"/>
<path fill="#2C54C3" opacity="1.000000" stroke="none" 
	d="
M168.705475,164.434494 
	C169.251678,167.994324 169.761017,171.292084 169.606628,174.558456 
	C169.536713,176.037567 168.148651,177.454376 167.358566,178.899445 
	C166.606995,177.594391 165.806946,176.313889 165.127289,174.972397 
	C164.848633,174.422394 164.829910,173.740692 164.652023,172.933151 
	C163.016525,172.933151 161.542816,173.070740 160.103180,172.907623 
	C155.605026,172.397903 151.952652,167.498764 152.434555,162.757065 
	C152.962204,157.565369 157.491211,153.446991 162.233246,154.303955 
	C163.647522,154.559540 164.803162,156.246201 166.077301,157.277191 
	C164.879227,157.845612 163.652298,158.942871 162.488724,158.879364 
	C159.478607,158.715057 157.297211,159.732727 157.198822,162.726547 
	C157.143860,164.399033 158.124374,166.881577 159.432724,167.654770 
	C161.855835,169.086777 164.124634,168.025391 165.552216,165.290222 
	C165.909866,164.604935 167.418304,164.520294 168.705475,164.434494 
z"/>
<path fill="#2E57CA" opacity="1.000000" stroke="none" 
	d="
M168.912659,227.280670 
	C169.060730,230.349152 167.934982,231.684708 165.463181,229.832077 
	C162.682953,227.748260 159.965103,226.108032 157.377792,229.574051 
	C154.755524,233.086914 156.908600,235.271896 160.039307,237.087662 
	C160.768417,237.510544 160.953140,238.872055 161.388351,239.801697 
	C160.078461,240.083817 158.608047,240.895615 157.486633,240.555786 
	C152.798889,239.135147 150.585876,233.512177 152.579819,228.737549 
	C154.687637,223.690201 160.660614,221.453125 165.410339,224.069427 
	C166.672379,224.764603 167.658691,225.960327 168.912659,227.280670 
z"/>
<path fill="#2D55C5" opacity="1.000000" stroke="none" 
	d="
M137.597961,203.369522 
	C142.128906,200.985657 143.841980,204.039139 145.084747,207.147934 
	C146.401108,210.440781 143.772873,215.498718 140.281754,215.442932 
	C137.441544,215.397522 134.612732,213.238525 131.867203,211.843018 
	C131.685501,211.750656 131.985382,209.805313 132.548508,209.401840 
	C133.139069,208.978683 134.323654,209.318863 135.236862,209.425903 
	C136.915161,209.622589 138.584839,209.892929 140.258102,210.132568 
	C139.487015,208.581757 138.689896,207.043060 137.958664,205.473679 
	C137.694580,204.906921 137.588501,204.266571 137.597961,203.369522 
z"/>
<path fill="#2E57C9" opacity="1.000000" stroke="none" 
	d="
M188.833557,172.802521 
	C188.833755,171.013565 188.620102,169.637619 188.890854,168.364716 
	C189.207382,166.876541 189.946396,165.478226 190.502106,164.040924 
	C191.580383,164.879562 192.548615,165.976242 193.763565,166.494446 
	C195.455215,167.215973 197.739166,168.350143 199.012390,167.736542 
	C200.245300,167.142349 201.264114,164.433975 201.002579,162.886475 
	C200.749680,161.390274 198.919205,159.937119 197.460495,158.930481 
	C195.966248,157.899307 194.082382,157.432678 192.369049,156.718964 
	C194.675446,155.949951 197.076294,154.342545 199.268219,154.589493 
	C203.601227,155.077682 206.394150,159.596405 206.095551,164.223969 
	C205.809692,168.653702 202.194931,172.532761 197.913620,172.928055 
	C196.778015,173.032913 195.624512,172.943893 195.036072,172.943893 
	C193.517685,175.064758 192.197510,176.908737 190.877350,178.752716 
	C190.196213,176.922180 189.515076,175.091644 188.833557,172.802521 
z"/>
<path fill="#2D55C5" opacity="1.000000" stroke="none" 
	d="
M190.318359,226.269440 
	C196.257431,221.705612 201.486816,222.007492 204.874634,226.807709 
	C208.130783,231.421402 207.273468,236.966171 202.473007,239.760895 
	C201.147003,240.532867 199.014572,239.919647 197.252136,239.941986 
	C198.050674,238.730972 198.592346,237.150436 199.698303,236.381699 
	C202.463684,234.459610 203.020905,232.174316 201.137131,229.594986 
	C199.181900,226.917801 196.742508,227.231888 194.158997,229.048203 
	C193.081039,229.806046 191.598129,229.987885 190.299362,230.431641 
	C190.227692,229.140396 190.156021,227.849167 190.318359,226.269440 
z"/>
<path fill="#2D55C5" opacity="1.000000" stroke="none" 
	d="
M218.044373,208.269836 
	C218.917694,212.242050 220.703171,211.538589 223.064972,209.867508 
	C223.870590,209.297501 225.362427,209.697357 226.540726,209.654083 
	C226.215714,210.819199 226.239120,212.315735 225.502914,213.089722 
	C222.887558,215.839249 219.780685,217.190979 216.242813,214.624100 
	C212.971008,212.250290 211.952927,207.642776 214.536316,205.084015 
	C215.880203,203.752960 218.340744,203.549286 220.296860,202.836334 
	C219.576279,204.520187 218.855713,206.204056 218.044373,208.269836 
z"/>
</svg>